<svg id="Capa_1" data-name="Capa 1" xmlns="http://www.w3.org/2000/svg" viewBox="0 0 500 500"><defs><style>.cls-1{fill:#bcbcbc;}</style></defs><title>iconoubicacion</title><path class="cls-1" d="M147.3,255.06c-3.84-5.66-7.76-11.18-11.42-16.87-11.71-18.25-20.65-37.68-24.86-59.09-7.48-38.06-.26-73.35,21.26-105.37,22.29-33.18,53.52-53.82,92.93-60.57,44.87-7.69,85,3.69,119.26,33.85C369.85,69.38,385,97.76,390.23,131.2c4.81,30.74-1.31,59.75-15,87.39A234,234,0,0,1,354,252.92c-.46.63-.91,1.28-1.5,2.12,6.9,2.84,13.64,5.61,20.39,8.37,13.34,5.45,26.67,10.92,40,16.31a10.59,10.59,0,0,1,6.38,6.62q30.58,84.29,61.25,168.54c2.53,7,5,13.93,7.63,20.86,1.45,3.83,1.33,7.36-1.51,10.47s-6.58,3.46-10.55,2.31Q418.51,471.69,360.85,455a7,7,0,0,0-3.88,0q-51.45,16.63-102.85,33.42a12.6,12.6,0,0,1-8.16,0q-51.4-16.78-102.84-33.47a6.61,6.61,0,0,0-3.66-.08Q94,468,48.48,481.37c-8.33,2.43-16.67,4.8-25,7.23-3.82,1.12-7.33.69-10.12-2.3s-3-6.6-1.61-10.46q25.56-70.11,51-140.24c5.91-16.23,11.83-32.46,17.64-48.72a11.75,11.75,0,0,1,7.18-7.41c19.57-7.89,39.08-15.91,58.61-23.9C146.57,255.43,146.91,255.24,147.3,255.06ZM250,347.8c7.37-9.22,14.49-18.75,22.25-27.73,17.33-20.05,35.14-39.68,52.43-59.75,13.3-15.44,25.23-31.91,34.26-50.29,12.88-26.24,18-53.58,11.92-82.6-13.48-64.68-76.1-107.61-141.19-96.36C192.29,37.52,163.58,57.26,144,89.62c-15.64,25.88-20.84,54-15.32,83.91,3.73,20.23,12.2,38.46,23.26,55.61,12.46,19.33,27.61,36.51,42.82,53.63,11.72,13.19,23.51,26.32,35,39.72C236.8,330.71,243.3,339.4,250,347.8ZM35,465.8c1-.17,1.51-.21,2-.34q47.33-13.79,94.65-27.57a2.55,2.55,0,0,0,2.11-2.39c2-11.13,4.05-22.24,6.07-33.36q5.37-29.5,10.71-59c3.92-21.54,7.74-43.1,11.89-64.6.74-3.86-.52-6.18-3.27-8.34Q128.83,282.59,98.59,295a4.63,4.63,0,0,0-2.27,2.4c-2.78,7.29-5.42,14.63-8.09,22Q64.7,384.1,41.17,448.84C39.17,454.35,37.19,459.87,35,465.8Zm429.81.18c-.37-1.28-.54-2-.81-2.77q-30.12-82.79-60.22-165.58a4.47,4.47,0,0,0-2.81-2.89q-18.5-7.47-36.94-15l-23.54-9.62c-1.13,2.14-3.86,3.12-3.32,6.1q4.88,26.67,9.7,53.34,4.69,25.73,9.42,51.45c3.32,18.17,6.66,36.33,9.9,54.51a2.68,2.68,0,0,0,2.34,2.44q38.51,11.18,77,22.44ZM348,438.34c-8.85-48.65-17.67-97.11-26.57-146-.92,1-1.42,1.49-1.89,2-9,10.12-18.13,20.18-27.07,30.38-11.46,13.09-22.51,26.51-32,41.15a8.56,8.56,0,0,0-1.34,4.39q-.1,47-.05,94.09v3Zm-196.07,0,88.76,28.93c.06-1,.13-1.58.13-2.2q0-47.76,0-95.53a5.83,5.83,0,0,0-.94-3.08C236.33,361.26,232.8,356,229,351c-12.83-17-27.16-32.81-41.42-48.63l-9.07-10.09Z"/><path class="cls-1" d="M250,64a88.73,88.73,0,0,1,88.74,89c0,49.23-40.46,89-89.52,88.64A88.8,88.8,0,0,1,250,64Zm70.37,89c0-38.84-31.39-70.51-70.08-70.6-38.95-.1-70.7,31.4-70.73,70.19s31.44,70.58,70.08,70.63C288.63,223.23,320.37,191.73,320.4,153Z"/></svg>