<svg id="Capa_1" data-name="Capa 1" xmlns="http://www.w3.org/2000/svg" viewBox="0 0 500 500"><defs><style>.cls-1{fill:#bcbcbc;}</style></defs><title>iconoengrane</title><path class="cls-1" d="M239.61.2h20.55c.8.16,1.59.39,2.4.48,8,.87,16,1.61,24,2.59,9.51,1.17,15.54,6.6,18.68,15.58,4.13,11.87,8.46,23.68,12.59,35.55a5,5,0,0,0,3.33,3.29c4.74,1.82,9.48,3.69,14.1,5.81a5.71,5.71,0,0,0,5.43-.1c11.49-5.55,23-11.07,34.56-16.47,8-3.73,15.64-2.93,22.77,2.32a251.51,251.51,0,0,1,52,51.68c5.89,7.81,6.72,15.94,2.5,24.73q-8.19,17-16.15,34.1a6.26,6.26,0,0,0,0,4.33c1.79,4.85,4,9.55,5.8,14.4a5.45,5.45,0,0,0,3.69,3.64Q464,188.46,482.15,195c7.87,2.84,13,8.41,14.18,16.68,1.47,10.34,2.54,20.76,3.22,31.18.95,14.46-.61,28.83-2.57,43.16-1.33,9.8-6.56,16.16-15.9,19.39q-17.82,6.18-35.51,12.71a6.22,6.22,0,0,0-3.06,3.07c-2,4.45-3.56,9.14-5.69,13.54a6.89,6.89,0,0,0,.15,6.73c5.46,11.23,10.86,22.49,16.1,33.81,3.74,8.08,3,15.84-2.38,23a252.16,252.16,0,0,1-52,52.09c-7.58,5.66-15.52,6.42-24,2.4-11.45-5.44-22.9-10.86-34.31-16.37a5,5,0,0,0-4.68,0c-4.74,2.09-9.52,4.08-14.36,5.91a5.23,5.23,0,0,0-3.45,3.51c-4.2,12-8.5,24.06-12.8,36.08-2.89,8.08-8.51,13.38-17,14.58-10.34,1.46-20.77,2.5-31.19,3.07-14.46.79-28.84-.67-43.17-2.68-9.58-1.35-15.86-6.44-19.06-15.53-4.21-11.94-8.43-23.88-12.8-35.77a6.22,6.22,0,0,0-3-3.07c-4.71-2.15-9.59-3.91-14.31-6a5.53,5.53,0,0,0-5.2.08c-11.23,5.45-22.51,10.8-33.79,16.14-8.64,4.1-16.74,3.35-24.49-2.48a259,259,0,0,1-51.45-51.49C44,391.33,43.06,383.45,47,375c5.49-11.62,11.08-23.2,16.49-34.86a5.79,5.79,0,0,0,.11-4.06c-1.87-5-4.1-9.91-6-14.91a5,5,0,0,0-3.34-3.27q-18.33-6.39-36.58-13C9.63,302,4.75,296.23,3.35,287.72c-.67-4-1.11-8.06-1.58-12.11-.58-4.94-1.07-9.9-1.61-14.85V239.09c.16-.81.39-1.61.48-2.42.87-7.91,1.58-15.83,2.6-23.71,1.19-9.15,6.41-15.11,15.05-18.17,12.11-4.28,24.23-8.56,36.3-13a5.44,5.44,0,0,0,2.73-2.68c2.14-4.81,4-9.76,6.1-14.57a5.52,5.52,0,0,0,0-5.18C58,148.24,52.77,137,47.37,125.86c-4.3-8.87-3.53-17,2.45-25a258.48,258.48,0,0,1,51.1-51c7.72-5.8,15.74-6.76,24.45-2.59,11.43,5.47,22.89,10.86,34.31,16.34a4.64,4.64,0,0,0,4.4.09q7.2-3.24,14.61-6a5.17,5.17,0,0,0,3.4-3.56Q188.34,36.05,194.8,18c3-8.43,9-13.36,17.86-14.72,4-.61,8.07-1.06,12.11-1.53C229.71,1.23,234.66.73,239.61.2ZM117.94,408.73c.79-.36,1.47-.64,2.13-1,10.53-5,21.1-9.93,31.57-15,7.29-3.55,14.22-3.15,21.57.21,9.9,4.53,20,8.58,30.23,12.4,7.16,2.68,12.18,7.13,14.74,14.34,4,11.24,8,22.46,11.95,33.73.61,1.74,1.42,2.65,3.28,2.65q16.49,0,33,0c2,0,2.77-1.08,3.38-2.87,3.88-11.18,7.93-22.31,11.83-33.48,2.58-7.36,7.72-11.78,15-14.49,10.11-3.78,20.16-7.8,30-12.28,7.35-3.36,14.3-3.78,21.59-.25,10.4,5,20.91,9.86,31.31,14.91,1.92.94,3.24,1.05,4.84-.58q11.38-11.58,22.94-23c1.44-1.43,1.44-2.61.59-4.36-5-10.23-9.7-20.59-14.77-30.77-4-8-3.41-15.4.43-23.36A255.75,255.75,0,0,0,405,297.69c2.82-8.19,7.68-13.62,15.88-16.4,11-3.74,22-7.73,32.91-11.75a3.89,3.89,0,0,0,2.13-2.62,158.56,158.56,0,0,0,.15-33.81,3,3,0,0,0-2.41-2.86c-11.17-3.91-22.3-7.93-33.47-11.84-7.53-2.64-12.15-7.78-14.9-15.27-3.69-10-7.7-20-12.18-29.73-3.43-7.43-3.92-14.43-.3-21.82,5.08-10.39,9.9-20.9,15-31.29.92-1.9.79-3.15-.69-4.61q-11.54-11.41-23-23c-1.39-1.4-2.57-1.49-4.38-.61-10.64,5.17-21.37,10.17-32,15.29-7.12,3.41-13.93,2.82-21.07-.45-9.64-4.43-19.47-8.52-29.45-12.12-7.7-2.78-13-7.39-15.73-15.14-3.88-11.18-7.93-22.3-11.83-33.47a3,3,0,0,0-2.89-2.33,165.77,165.77,0,0,0-33.26-.06c-2.05.2-2.77,1.09-3.38,2.84-3.84,11-7.82,22-11.66,33-2.7,7.72-7.95,12.41-15.69,15.18-9.9,3.55-19.64,7.6-29.19,12-7.52,3.47-14.63,3.94-22.11.28C140.93,102,130.35,97.1,119.85,92c-1.55-.76-2.64-.78-3.91.5q-11.62,11.72-23.37,23.32c-1.44,1.42-1.41,2.63-.56,4.39,5.06,10.4,9.92,20.89,15,31.28,3.65,7.49,3.16,14.6-.33,22.11-4.36,9.37-8.39,18.93-11.81,28.68-2.83,8-7.58,13.5-15.66,16.28-10.93,3.75-21.77,7.77-32.68,11.56-1.84.64-2.77,1.53-2.76,3.49q0,16.35,0,32.71c0,2,1,2.81,2.8,3.44,11.18,3.89,22.29,8,33.46,11.87,7.58,2.64,12,7.93,14.71,15.42,3.59,9.88,7.55,19.67,12,29.2,3.51,7.51,4,14.6.37,22.09C102,358.84,97,369.4,92,379.91c-.64,1.33-1.09,2.41.22,3.7,8.08,8,16.09,16.07,24.15,24.1A9.41,9.41,0,0,0,117.94,408.73Z"/><path class="cls-1" d="M349,244.6c.63,53.94-43.63,98.73-98.26,99.43-54.33.69-99.09-43.41-99.89-98.39-.77-54.12,43.59-99.24,98.14-99.81C303.74,145.25,348.33,189.28,349,244.6Zm-155.34.15c.16,31.47,25.41,56.72,56.5,56.49a56.39,56.39,0,0,0,56-57c-.11-30.69-25.78-55.85-56.78-55.63C218.78,188.87,193.49,214.32,193.64,244.75Z"/></svg>