<svg id="Capa_1" data-name="Capa 1" xmlns="http://www.w3.org/2000/svg" viewBox="0 0 500 500"><defs><style>.cls-1{fill:#e8481d;}</style></defs><title>iconoenergiasolar</title><path class="cls-1" d="M248.56,410H45.16a25.78,25.78,0,0,1-25.95-22.5,53.11,53.11,0,0,1-.28-6.92c0-4.09.07-8.19,0-12.28-.14-5.33,1.33-10.35,2.7-15.4l12.61-46.45q9-33.17,17.95-66.31,9.09-33.65,18.22-67.27c2.93-10.74,10.05-17.18,20.9-19.48a22,22,0,0,1,4.59-.39q152.45,0,304.89,0c12.44,0,22.5,8,25.79,20.3q11.46,42.67,23,85.32,10.36,38.45,20.72,76.87c2.11,7.81,4.42,15.57,6.37,23.43a46.26,46.26,0,0,1,1.17,9.83c.16,5.78.23,11.57-.09,17.34-.69,12.2-9.13,22.11-21.58,23.62a39.3,39.3,0,0,1-4.6.28Q350,410,248.56,410Zm-77-64.31h67.61v-64H179Q175.25,313.66,171.54,345.67Zm153.69.06c-2.5-21.48-5-42.79-7.44-64.07H257.73v64.07Zm-172.1,0c2.48-21.42,5-42.73,7.44-64.11-.37,0-.65-.08-.93-.08q-28.9,0-57.81,0c-1,0-1.25.38-1.47,1.28Q93.21,313.25,86,343.66c-.15.67-.26,1.35-.4,2.1Zm258.15,0c-5.07-21.45-10.11-42.74-15.16-64.08H336.2c2.48,21.43,5,42.75,7.43,64.08ZM239.18,208.13H236q-23.49,0-47,0c-1.08,0-1.59.13-1.67,1.43-.19,2.92-.65,5.82-1,8.73q-1.08,9.38-2.14,18.76l-2.19,19c-.26,2.3-.51,4.62-.77,6.95h57.86Zm76.29,54.93c-2.11-18.38-4.2-36.59-6.29-54.83H257.71v54.83Zm18.68,0h57.47a8.19,8.19,0,0,0-.08-1.06c-4.1-17.44-8.23-34.86-12.28-52.31-.29-1.24-.71-1.59-2-1.58q-24,.06-48,0h-1.75C329.78,226.5,332,244.69,334.15,263.05ZM117.86,208.19C113.57,226.5,109.3,244.74,105,263h57.6l6.56-54.85Z"/><path class="cls-1" d="M293.51,143.82c5.26-31-17.76-54.28-43.5-55-14.69-.43-27.09,5-36.63,16.25s-12.47,24.27-10.06,38.84H201.4c-21,0-42,0-63,0a9.49,9.49,0,0,1-9.16-7.48,9.31,9.31,0,0,1,5.21-10.38c4.48-2.07,9.08-3.89,13.48-6.11,7.87-4,15.74-7.95,23.38-12.33,5.13-2.95,4.1-2,3.28-7.76-1.54-10.63-5.17-20.72-9-30.71-1.18-3.09-2.54-6.11-3.69-9.2a9,9,0,0,1,6-12.06,9.44,9.44,0,0,1,6.45.67,182.91,182.91,0,0,0,28.49,10.74c4,1.06,8.07,1.63,12.11,2.37,2.82.51,4.88-.65,6.6-2.87a89.15,89.15,0,0,0,10.71-18.69C235,34,237.33,27.8,239.76,21.6c1.45-3.68,4.62-6.2,8.19-6.28a8.89,8.89,0,0,1,8.91,5.78c5,11.48,10.52,22.7,17.55,33.11,1.4,2.06,3,3.95,4.57,5.93,2,2.68,4.86,2.36,7.65,1.91,7.49-1.21,14.51-3.92,21.41-6.93,4.57-2,9-4.24,13.51-6.45a9.43,9.43,0,0,1,13.8,6.82,9.62,9.62,0,0,1-1.16,6,140.1,140.1,0,0,0-10.67,29.71c-.88,3.92-1.67,7.89-1.08,12a5.83,5.83,0,0,0,2.21,4,90.91,90.91,0,0,0,17.87,10.45c6.33,3,12.8,5.66,19.23,8.42a9.55,9.55,0,0,1,5.95,9,9.37,9.37,0,0,1-6.93,8.6,5.15,5.15,0,0,1-1.41.18H294.75C294.37,143.89,294,143.85,293.51,143.82Z"/><path class="cls-1" d="M202.5,428.32v-9h91.81v9H312c13.8,0,24.91,9,27.64,22.49a47.11,47.11,0,0,1,.45,7.9c.06,2.31,0,4.63,0,6.94a9,9,0,0,1-8.09,8.51c-1.2.08-2.41.12-3.61.12q-80.66,0-161.32,0c-3,0-5.8-.58-8-2.91a7.81,7.81,0,0,1-2.45-5.25c0-5.28-.27-10.66.6-15.82a26.82,26.82,0,0,1,23.36-21.71c5.06-.5,10.2-.23,15.3-.29C198,428.3,200.16,428.32,202.5,428.32Z"/></svg>