<svg id="Capa_1" data-name="Capa 1" xmlns="http://www.w3.org/2000/svg" viewBox="0 0 500 500"><defs><style>.cls-1{fill:#bcbcbc;}</style></defs><title>iconocasco</title><path class="cls-1" d="M0,352.54v39l9,3.77c4.41,1.84,110.13,45.08,241,45.08s236.61-43.24,241-45.08l9-3.77v-39Z"/><path class="cls-1" d="M279.3,264.65,308.59,59.57H191.41L220.7,264.65Z"/><path class="cls-1" d="M470.7,308.59C470.7,240,438.19,179,389,138.74L367.49,281.47l-29-4.35,23.65-157.21a220.73,220.73,0,0,0-30.43-15.17L304.7,294H195.3l-27-189.21a219.67,219.67,0,0,0-30.43,15.18l23.65,157.2-29,4.35L111,138.74C61.81,179,29.3,240,29.3,308.59v14.65H470.7Z"/></svg>