<svg id="Capa_1" data-name="Capa 1" xmlns="http://www.w3.org/2000/svg" xmlns:xlink="http://www.w3.org/1999/xlink" viewBox="0 0 500 500"><defs><style>.cls-1,.cls-2{fill:none;}.cls-1{stroke:#1d1d1b;stroke-miterlimit:10;}.cls-3{clip-path:url(#clip-path);}.cls-4{clip-path:url(#clip-path-2);}.cls-5{opacity:0.42;}.cls-6{clip-path:url(#clip-path-3);}.cls-7{fill:#ccc8c8;}.cls-8{fill:#e8481d;}.cls-9{fill:#fff;}</style><clipPath id="clip-path"><rect class="cls-1" x="-1172.47" y="798.35" width="240.94" height="269.29" transform="translate(-2104 1866) rotate(-180)"/></clipPath><clipPath id="clip-path-2"><rect class="cls-2" x="-1172.47" y="911.74" width="240.94" height="113.39" transform="translate(-2104 1936.87) rotate(-180)"/></clipPath><clipPath id="clip-path-3"><rect id="SVGID" class="cls-2" x="-1182.95" y="742.45" width="750" height="500"/></clipPath></defs><title>iconoacueducto</title><g class="cls-3"><g class="cls-4"><g class="cls-5"><g class="cls-6"><path class="cls-7" d="M59.18,772.54-468.13,245.22l-.2.2a7.5,7.5,0,0,0,1.2,1.58l.1.09.09.1a7.37,7.37,0,0,0,2.23,1.52,7.31,7.31,0,0,0-2.37,1.57,7.35,7.35,0,0,0-1.67,2.62,7.31,7.31,0,0,0-1.56-2.35.81.81,0,0,1-.1-.09l-.09-.09a7,7,0,0,0-1.59-1.2l-9.74,9.75a7.5,7.5,0,0,0,1.19,1.59l.1.09.09.09a7.18,7.18,0,0,0,2.66,1.68,7.07,7.07,0,0,0-2.8,1.69,7,7,0,0,0-1.79,3.15,6.89,6.89,0,0,0-1.71-2.88l-.1-.09-.08-.1a7.19,7.19,0,0,0-1.61-1.17l-9.43,9.43a7,7,0,0,0,1.16,1.62l.11.08.08.1a6.93,6.93,0,0,0,3.21,1.8,7,7,0,0,0-3.35,1.83,6.85,6.85,0,0,0-1.9,3.75,6.79,6.79,0,0,0-1.86-3.48l-.1-.08-.09-.1a6.55,6.55,0,0,0-1.62-1.17l-9.15,9.16a6.92,6.92,0,0,0,1.16,1.61l.11.09.08.1a6.73,6.73,0,0,0,4.42,2,6.69,6.69,0,0,0-4.55,1.95,6.69,6.69,0,0,0,0,9.47.81.81,0,0,0,.1.09l.08.1a6.7,6.7,0,0,0,9.48,0,6.63,6.63,0,0,0,1.94-4.55,6.76,6.76,0,0,0,2,4.42l.1.08.08.1a6.79,6.79,0,0,0,4.42,2,6.63,6.63,0,0,0-4.55,1.94,6.7,6.7,0,0,0,0,9.48l.1.08.08.1a6.66,6.66,0,0,0,4.28,1.92,6.59,6.59,0,0,0-4.6,1.93,6.6,6.6,0,0,0,0,9.34l.11.08.08.11a6.62,6.62,0,0,0,9.34,0,6.61,6.61,0,0,0,0-9.35l-.1-.08-.08-.1a6.55,6.55,0,0,0-4.21-1.89,6.67,6.67,0,0,0,4.66-2,6.65,6.65,0,0,0,1.87-3.75,6.76,6.76,0,0,0,1.84,3.43.81.81,0,0,1,.1.09l.09.1A6.73,6.73,0,0,0-476,316.7a6.65,6.65,0,0,0-4.56,1.95,6.71,6.71,0,0,0,0,9.47l.11.08a1,1,0,0,0,.08.11,6.71,6.71,0,0,0,9.47,0,6.65,6.65,0,0,0,2-4.56,6.73,6.73,0,0,0,1.95,4.42.48.48,0,0,0,.11.09l.08.1a6.73,6.73,0,0,0,4.42,1.95,6.73,6.73,0,0,0-4.56,1.95,6.71,6.71,0,0,0,0,9.47l.11.09.08.1a6.66,6.66,0,0,0,4.27,1.92,6.57,6.57,0,0,0-4.59,1.92,6.61,6.61,0,0,0,0,9.35l.1.08.09.1a6.6,6.6,0,0,0,9.34,0,6.6,6.6,0,0,0,0-9.34l-.1-.08-.09-.11a6.55,6.55,0,0,0-4.2-1.89,6.66,6.66,0,0,0,4.66-1.95,6.66,6.66,0,0,0,1.86-3.75,6.79,6.79,0,0,0,1.85,3.43l.1.08.08.1a6.76,6.76,0,0,0,4.42,2,6.63,6.63,0,0,0-4.55,1.94,6.7,6.7,0,0,0,0,9.48l.1.08a.81.81,0,0,0,.09.1,6.69,6.69,0,0,0,9.47,0,6.69,6.69,0,0,0,1.95-4.55,6.73,6.73,0,0,0,1.95,4.42l.1.08.09.11a6.75,6.75,0,0,0,4.41,2,6.68,6.68,0,0,0-4.55,1.94,6.72,6.72,0,0,0,0,9.48l.1.08.09.11a6.58,6.58,0,0,0,4.27,1.91A6.58,6.58,0,0,0-440,372.8a6.6,6.6,0,0,0,0,9.34l.1.09.08.1a6.61,6.61,0,0,0,9.35,0,6.6,6.6,0,0,0,0-9.34l-.11-.09-.08-.1a6.55,6.55,0,0,0-4.21-1.89,6.7,6.7,0,0,0,4.66-2,6.61,6.61,0,0,0,1.87-3.76,6.83,6.83,0,0,0,1.84,3.44l.11.08.08.1a6.73,6.73,0,0,0,4.42,1.95,6.69,6.69,0,0,0-4.55,2,6.69,6.69,0,0,0,0,9.47.81.81,0,0,0,.1.09l.08.1a6.7,6.7,0,0,0,9.48,0,6.63,6.63,0,0,0,1.94-4.55,6.76,6.76,0,0,0,2,4.42l.1.08.08.1a6.74,6.74,0,0,0,4.42,2,6.63,6.63,0,0,0-4.55,1.94,6.7,6.7,0,0,0,0,9.48l.1.08a.81.81,0,0,0,.09.1,6.62,6.62,0,0,0,4.27,1.92,6.59,6.59,0,0,0-4.6,1.93,6.6,6.6,0,0,0,0,9.34l.11.08.08.11a6.6,6.6,0,0,0,9.34,0,6.61,6.61,0,0,0,0-9.35l-.1-.08-.08-.1a6.58,6.58,0,0,0-4.21-1.89,6.67,6.67,0,0,0,4.66-2,6.65,6.65,0,0,0,1.87-3.75,6.76,6.76,0,0,0,1.84,3.43.81.81,0,0,1,.1.09.81.81,0,0,1,.09.1,6.73,6.73,0,0,0,4.42,1.95,6.69,6.69,0,0,0-4.56,1.95,6.71,6.71,0,0,0,0,9.47l.11.09.08.1a6.72,6.72,0,0,0,9.48,0,6.64,6.64,0,0,0,1.94-4.56,6.7,6.7,0,0,0,2,4.42l.11.09.08.1a6.73,6.73,0,0,0,4.42,1.95,6.69,6.69,0,0,0-4.55,1.95,6.69,6.69,0,0,0,0,9.47l.1.09.08.1a6.66,6.66,0,0,0,4.27,1.92,6.57,6.57,0,0,0-4.59,1.92,6.61,6.61,0,0,0,0,9.35l.1.08a.81.81,0,0,1,.09.1,6.6,6.6,0,0,0,9.34,0,6.6,6.6,0,0,0,0-9.34l-.1-.08-.09-.11a6.55,6.55,0,0,0-4.2-1.89,6.66,6.66,0,0,0,4.66-2,6.66,6.66,0,0,0,1.86-3.75,6.79,6.79,0,0,0,1.85,3.43l.1.08.08.11a6.79,6.79,0,0,0,4.42,2,6.63,6.63,0,0,0-4.55,1.94,6.7,6.7,0,0,0,0,9.48l.1.08.09.1a6.69,6.69,0,0,0,9.47,0,6.69,6.69,0,0,0,1.95-4.55,6.73,6.73,0,0,0,1.95,4.42l.1.08a.48.48,0,0,0,.09.11,6.7,6.7,0,0,0,4.42,1.95,6.68,6.68,0,0,0-4.56,1.94,6.72,6.72,0,0,0,0,9.48l.1.08.09.11a6.6,6.6,0,0,0,4.27,1.91,6.58,6.58,0,0,0-4.59,1.93,6.6,6.6,0,0,0,0,9.34l.1.09.08.1a6.61,6.61,0,0,0,9.35,0,6.6,6.6,0,0,0,0-9.34l-.11-.09-.08-.1a6.55,6.55,0,0,0-4.21-1.89,6.69,6.69,0,0,0,4.66-1.95,6.61,6.61,0,0,0,1.87-3.76,6.77,6.77,0,0,0,1.85,3.44l.1.08.08.1a6.79,6.79,0,0,0,4.42,2,6.63,6.63,0,0,0-4.55,1.94,6.7,6.7,0,0,0,0,9.48l.1.08.08.1a6.7,6.7,0,0,0,9.48,0,6.63,6.63,0,0,0,1.94-4.55,6.74,6.74,0,0,0,2,4.42l.1.08.08.1a6.74,6.74,0,0,0,4.42,2,6.63,6.63,0,0,0-4.55,1.94,6.7,6.7,0,0,0,0,9.48l.1.08a.81.81,0,0,0,.09.1,6.62,6.62,0,0,0,4.27,1.92A6.55,6.55,0,0,0-331.9,481a6.6,6.6,0,0,0,0,9.34l.1.08.08.11a6.6,6.6,0,0,0,9.34,0,6.61,6.61,0,0,0,0-9.35l-.1-.08-.08-.1a6.58,6.58,0,0,0-4.21-1.89,6.67,6.67,0,0,0,4.66-2,6.58,6.58,0,0,0,1.87-3.75,6.76,6.76,0,0,0,1.84,3.43l.1.09a.81.81,0,0,1,.09.1,6.73,6.73,0,0,0,4.42,1.95,6.73,6.73,0,0,0-4.56,1.95,6.71,6.71,0,0,0,0,9.47l.11.09.08.1a6.72,6.72,0,0,0,9.48,0,6.64,6.64,0,0,0,1.94-4.56,6.75,6.75,0,0,0,1.95,4.42l.11.09.08.1a6.73,6.73,0,0,0,4.42,1.95,6.69,6.69,0,0,0-4.55,2,6.69,6.69,0,0,0,0,9.47.81.81,0,0,0,.1.09l.08.1a6.66,6.66,0,0,0,4.27,1.92,6.58,6.58,0,0,0-4.59,1.93,6.6,6.6,0,0,0,0,9.34l.1.08a.81.81,0,0,1,.09.1,6.6,6.6,0,0,0,9.34,0,6.6,6.6,0,0,0,0-9.34l-.1-.08a.81.81,0,0,0-.09-.1,6.51,6.51,0,0,0-4.2-1.9,6.62,6.62,0,0,0,4.66-1.95,6.74,6.74,0,0,0,1.87-3.75,6.69,6.69,0,0,0,1.84,3.43l.1.08.09.11a6.75,6.75,0,0,0,4.41,1.95,6.63,6.63,0,0,0-4.55,1.94,6.7,6.7,0,0,0,0,9.48l.1.08.09.11a6.71,6.71,0,0,0,9.47,0A6.73,6.73,0,0,0-279.7,513a6.73,6.73,0,0,0,1.95,4.42.81.81,0,0,1,.1.09l.09.1a6.73,6.73,0,0,0,4.42,2,6.65,6.65,0,0,0-4.56,1.95,6.71,6.71,0,0,0,0,9.47l.11.08.08.11a6.6,6.6,0,0,0,4.27,1.91,6.58,6.58,0,0,0-4.59,1.93,6.6,6.6,0,0,0,0,9.34.81.81,0,0,0,.1.09.81.81,0,0,0,.09.1,6.6,6.6,0,0,0,9.34,0,6.6,6.6,0,0,0,0-9.34l-.11-.09-.08-.1a6.55,6.55,0,0,0-4.21-1.89,6.64,6.64,0,0,0,4.66-2,6.61,6.61,0,0,0,1.87-3.76,6.77,6.77,0,0,0,1.85,3.44l.1.08.08.1a6.79,6.79,0,0,0,4.42,2,6.63,6.63,0,0,0-4.55,1.94,6.7,6.7,0,0,0,0,9.48l.1.08.08.1a6.7,6.7,0,0,0,9.48,0,6.63,6.63,0,0,0,1.94-4.55,6.79,6.79,0,0,0,2,4.42l.1.08.08.1a6.76,6.76,0,0,0,4.42,2,6.63,6.63,0,0,0-4.55,1.94,6.7,6.7,0,0,0,0,9.48l.1.08a.81.81,0,0,0,.09.1,6.64,6.64,0,0,0,4.27,1.92,6.56,6.56,0,0,0-4.59,1.93,6.6,6.6,0,0,0,0,9.34l.1.08.08.11a6.6,6.6,0,0,0,9.34,0,6.6,6.6,0,0,0,0-9.34.81.81,0,0,0-.1-.09l-.08-.1a6.58,6.58,0,0,0-4.21-1.89,6.67,6.67,0,0,0,4.66-2,6.58,6.58,0,0,0,1.87-3.75,6.76,6.76,0,0,0,1.84,3.43.48.48,0,0,0,.11.09l.08.1a6.73,6.73,0,0,0,4.42,1.95,6.73,6.73,0,0,0-4.56,2,6.71,6.71,0,0,0,0,9.47l.11.09.08.1a6.7,6.7,0,0,0,9.48,0,6.64,6.64,0,0,0,1.94-4.56,6.75,6.75,0,0,0,1.95,4.42l.11.09.08.1a6.73,6.73,0,0,0,4.42,1.95,6.69,6.69,0,0,0-4.55,2,6.69,6.69,0,0,0,0,9.47.81.81,0,0,0,.1.09l.08.1a6.66,6.66,0,0,0,4.28,1.92,6.59,6.59,0,0,0-4.6,1.93,6.6,6.6,0,0,0,0,9.34l.11.08.08.1a6.6,6.6,0,0,0,9.34,0,6.6,6.6,0,0,0,0-9.34l-.1-.08a.81.81,0,0,0-.09-.1,6.45,6.45,0,0,0-4.2-1.89,6.67,6.67,0,0,0,4.66-2,6.74,6.74,0,0,0,1.87-3.75,6.69,6.69,0,0,0,1.84,3.43l.1.08.09.11a6.75,6.75,0,0,0,4.42,2A6.68,6.68,0,0,0-210.2,589a6.72,6.72,0,0,0,0,9.48l.1.08.09.11a6.71,6.71,0,0,0,9.47,0,6.73,6.73,0,0,0,1.95-4.56,6.73,6.73,0,0,0,2,4.42.81.81,0,0,1,.1.09.81.81,0,0,1,.09.1,6.73,6.73,0,0,0,4.42,1.95,6.65,6.65,0,0,0-4.56,2,6.71,6.71,0,0,0,0,9.47l.11.08a1,1,0,0,0,.08.11,6.66,6.66,0,0,0,4.27,1.92,6.53,6.53,0,0,0-4.59,1.92,6.6,6.6,0,0,0,0,9.34.81.81,0,0,0,.1.09.81.81,0,0,0,.09.1,6.6,6.6,0,0,0,9.34,0,6.6,6.6,0,0,0,0-9.34l-.11-.08a1,1,0,0,0-.08-.11,6.55,6.55,0,0,0-4.2-1.89,6.64,6.64,0,0,0,4.65-2,6.61,6.61,0,0,0,1.87-3.76,6.77,6.77,0,0,0,1.85,3.44l.1.08.08.1a6.74,6.74,0,0,0,4.42,2,6.63,6.63,0,0,0-4.55,1.94,6.7,6.7,0,0,0,0,9.48l.1.08a.81.81,0,0,0,.09.1,6.69,6.69,0,0,0,9.47,0,6.63,6.63,0,0,0,1.94-4.55,6.79,6.79,0,0,0,2,4.42l.1.08a1,1,0,0,1,.08.11,6.79,6.79,0,0,0,4.42,2,6.63,6.63,0,0,0-4.55,1.94,6.7,6.7,0,0,0,0,9.48l.1.08a.81.81,0,0,0,.09.1,6.64,6.64,0,0,0,4.27,1.92,6.56,6.56,0,0,0-4.59,1.93,6.6,6.6,0,0,0,0,9.34l.1.08a1,1,0,0,0,.08.11,6.6,6.6,0,0,0,9.34,0,6.6,6.6,0,0,0,0-9.34.81.81,0,0,0-.1-.09l-.08-.1a6.58,6.58,0,0,0-4.21-1.89,6.67,6.67,0,0,0,4.66-2,6.58,6.58,0,0,0,1.87-3.75,6.76,6.76,0,0,0,1.84,3.43l.11.09.08.1a6.73,6.73,0,0,0,4.42,1.95,6.69,6.69,0,0,0-4.55,2,6.69,6.69,0,0,0,0,9.47l.1.09.08.1a6.7,6.7,0,0,0,9.48,0,6.64,6.64,0,0,0,1.94-4.56,6.8,6.8,0,0,0,2,4.43l.11.08.08.1a6.79,6.79,0,0,0,4.42,2,6.63,6.63,0,0,0-4.55,1.94,6.69,6.69,0,0,0,0,9.47.81.81,0,0,0,.1.09l.08.1a6.66,6.66,0,0,0,4.28,1.92,6.59,6.59,0,0,0-4.6,1.93,6.6,6.6,0,0,0,0,9.34l.11.08.08.1a6.6,6.6,0,0,0,9.34,0,6.6,6.6,0,0,0,0-9.34l-.1-.08a.81.81,0,0,0-.09-.1,6.5,6.5,0,0,0-4.2-1.89,6.67,6.67,0,0,0,4.66-2,6.68,6.68,0,0,0,1.87-3.75,6.62,6.62,0,0,0,1.84,3.43l.1.08a.48.48,0,0,0,.09.11,6.7,6.7,0,0,0,4.42,1.95,6.68,6.68,0,0,0-4.56,1.94,6.72,6.72,0,0,0,0,9.48l.1.08.09.11a6.71,6.71,0,0,0,9.47,0,6.69,6.69,0,0,0,2-4.56,6.73,6.73,0,0,0,2,4.42l.1.09a.81.81,0,0,1,.09.1,6.73,6.73,0,0,0,4.42,1.95,6.71,6.71,0,0,0-4.56,2,6.71,6.71,0,0,0,0,9.47l.11.09.08.1a6.66,6.66,0,0,0,4.27,1.92,6.57,6.57,0,0,0-4.59,1.92,6.6,6.6,0,0,0,0,9.34.81.81,0,0,0,.1.09.81.81,0,0,0,.09.1,6.6,6.6,0,0,0,9.34,0,6.6,6.6,0,0,0,0-9.34l-.1-.08-.09-.11a6.55,6.55,0,0,0-4.2-1.89,6.68,6.68,0,0,0,4.66-2,6.66,6.66,0,0,0,1.86-3.75,6.79,6.79,0,0,0,1.85,3.43l.1.08.08.1a6.74,6.74,0,0,0,4.42,2,6.63,6.63,0,0,0-4.55,1.94,6.7,6.7,0,0,0,0,9.48l.1.08a.81.81,0,0,0,.09.1,6.69,6.69,0,0,0,9.47,0,6.69,6.69,0,0,0,2-4.55,6.73,6.73,0,0,0,2,4.42l.1.08.09.11a6.75,6.75,0,0,0,4.41,2,6.63,6.63,0,0,0-4.55,1.94,6.7,6.7,0,0,0,0,9.48l.1.08.09.1A6.64,6.64,0,0,0-84,722.35a6.58,6.58,0,0,0-4.59,1.93,6.6,6.6,0,0,0,0,9.34.81.81,0,0,1,.1.09l.08.1a6.6,6.6,0,0,0,9.34,0,6.6,6.6,0,0,0,0-9.34.81.81,0,0,0-.1-.09l-.08-.1a6.58,6.58,0,0,0-4.21-1.89,6.67,6.67,0,0,0,4.66-2,6.58,6.58,0,0,0,1.87-3.75,6.76,6.76,0,0,0,1.84,3.43l.11.09.08.1a6.73,6.73,0,0,0,4.42,2,6.69,6.69,0,0,0-4.55,2,6.69,6.69,0,0,0,0,9.47.81.81,0,0,0,.1.09l.08.1a6.7,6.7,0,0,0,9.48,0,6.63,6.63,0,0,0,1.94-4.55,6.76,6.76,0,0,0,2,4.42l.1.08.08.1a6.79,6.79,0,0,0,4.42,2,6.63,6.63,0,0,0-4.55,1.94,6.7,6.7,0,0,0,0,9.48l.1.08.08.1a6.66,6.66,0,0,0,4.28,1.92,6.59,6.59,0,0,0-4.6,1.93,6.6,6.6,0,0,0,0,9.34l.11.08.08.1a6.6,6.6,0,0,0,9.34,0,6.6,6.6,0,0,0,0-9.34l-.1-.08-.08-.1a6.55,6.55,0,0,0-4.21-1.89,6.67,6.67,0,0,0,4.66-2,6.65,6.65,0,0,0,1.87-3.75A6.76,6.76,0,0,0-48,747.15a.81.81,0,0,1,.1.09l.09.1a6.73,6.73,0,0,0,4.42,1.95,6.65,6.65,0,0,0-4.56,2,6.71,6.71,0,0,0,0,9.47l.11.08a1,1,0,0,0,.08.11,6.71,6.71,0,0,0,9.47,0,6.67,6.67,0,0,0,2-4.56,6.73,6.73,0,0,0,1.95,4.42l.1.09a.81.81,0,0,1,.09.1,6.73,6.73,0,0,0,4.42,1.95,6.73,6.73,0,0,0-4.56,2,6.71,6.71,0,0,0,0,9.47l.11.09.08.1a6.66,6.66,0,0,0,4.27,1.92,6.57,6.57,0,0,0-4.59,1.92,6.61,6.61,0,0,0,0,9.35l.1.08.09.1a6.6,6.6,0,0,0,9.34,0,6.6,6.6,0,0,0,0-9.34l-.1-.08-.09-.11a6.55,6.55,0,0,0-4.2-1.89,6.68,6.68,0,0,0,4.66-2,6.66,6.66,0,0,0,1.86-3.75A6.79,6.79,0,0,0-21,774.19l.1.08.08.1a6.76,6.76,0,0,0,4.42,2,6.63,6.63,0,0,0-4.55,1.94,6.7,6.7,0,0,0,0,9.48l.1.08a.81.81,0,0,0,.09.1,6.69,6.69,0,0,0,9.47,0,6.69,6.69,0,0,0,1.95-4.55,6.73,6.73,0,0,0,2,4.42l.1.08.09.11a6.75,6.75,0,0,0,4.41,2,6.63,6.63,0,0,0-4.55,1.94,6.7,6.7,0,0,0,0,9.48l.1.08.09.11a6.63,6.63,0,0,0,4.27,1.91,6.58,6.58,0,0,0-4.59,1.93,6.6,6.6,0,0,0,0,9.34.81.81,0,0,1,.1.09l.08.1a6.61,6.61,0,0,0,9.35,0,6.6,6.6,0,0,0,0-9.34L2,805.49l-.08-.1a6.58,6.58,0,0,0-4.21-1.89,6.7,6.7,0,0,0,4.66-2,6.61,6.61,0,0,0,1.87-3.76A6.83,6.83,0,0,0,6,801.23l.11.08.08.1a6.73,6.73,0,0,0,4.42,2A6.69,6.69,0,0,0,6.1,814.78a.81.81,0,0,0,.1.09l.08.1a6.7,6.7,0,0,0,9.48,0,6.63,6.63,0,0,0,1.94-4.55,6.91,6.91,0,0,0,.8,2.81l9.15-9.16a6.65,6.65,0,0,0-1.86-.7,6.8,6.8,0,0,0,5.57-5.26,6.76,6.76,0,0,0,.64,1.61l9.43-9.43a6,6,0,0,0-1.28-.54,7,7,0,0,0,3.16-1.8A7,7,0,0,0,45,785.16a6.52,6.52,0,0,0,.49,1.08l9.74-9.75a5.91,5.91,0,0,0-.76-.37,7.37,7.37,0,0,0,2.61-1.67,7.19,7.19,0,0,0,1.58-2.37c.1.22.21.44.33.65Zm-12.37,1.91A7.12,7.12,0,0,0,49.22,776a7.14,7.14,0,0,0-4.29,4.48A7,7,0,0,0,43.31,778a.81.81,0,0,0-.1-.09.81.81,0,0,1-.09-.1,7.14,7.14,0,0,0-2.58-1.63A7.09,7.09,0,0,0,45,771.85a7.3,7.3,0,0,0,1.6,2.41l.1.09ZM-88.38,639.26a7.52,7.52,0,0,0,2.41,1.6,7.31,7.31,0,0,0-2.54,1.63,7.14,7.14,0,0,0-1.74,2.85,7,7,0,0,0-1.63-2.58l-.1-.08-.08-.1A7,7,0,0,0-94.64,641a7,7,0,0,0,2.84-1.74,7.19,7.19,0,0,0,1.64-2.54,7.21,7.21,0,0,0,1.6,2.4.43.43,0,0,0,.1.09ZM-223.56,504.08a7.12,7.12,0,0,0,2.41,1.59,7,7,0,0,0-2.54,1.64,7.17,7.17,0,0,0-1.75,2.85,7,7,0,0,0-1.62-2.58l-.1-.09-.09-.1a7,7,0,0,0-2.57-1.62A7.29,7.29,0,0,0-227,504a7.14,7.14,0,0,0,1.64-2.55,7.12,7.12,0,0,0,1.59,2.41l.1.09ZM-358.74,368.89a7.21,7.21,0,0,0,2.4,1.6,7.19,7.19,0,0,0-2.54,1.64,7,7,0,0,0-1.74,2.84,7.07,7.07,0,0,0-1.62-2.58l-.11-.08-.08-.1a6.88,6.88,0,0,0-2.58-1.63,7.14,7.14,0,0,0,2.85-1.74,7.21,7.21,0,0,0,1.63-2.54,7.41,7.41,0,0,0,1.6,2.41l.1.08A.43.43,0,0,0-358.74,368.89ZM-496,284a6.93,6.93,0,0,0,1.88,3.54l.11.08.08.1a6.84,6.84,0,0,0,3.53,1.89,6.64,6.64,0,0,0-3.66,1.88,6.78,6.78,0,0,0-2,4.62,6.64,6.64,0,0,0-1.92-4.35.81.81,0,0,0-.1-.09.81.81,0,0,1-.09-.1,6.65,6.65,0,0,0-4.35-1.93,6.72,6.72,0,0,0,4.62-2A6.77,6.77,0,0,0-496,284Zm7.11,19.26a6.78,6.78,0,0,0,4.62-2,6.71,6.71,0,0,0,1.88-3.66,6.84,6.84,0,0,0,1.89,3.53l.1.08.08.1a6.71,6.71,0,0,0,3.07,1.75,6.78,6.78,0,0,0-3.39,1.83,6.78,6.78,0,0,0-1.9,3.83,6.61,6.61,0,0,0-1.81-3.37l-.1-.09-.09-.1A6.64,6.64,0,0,0-488.87,303.3Zm13.43,13.42a6.79,6.79,0,0,0,4.62-2,6.83,6.83,0,0,0,1.88-3.67,6.79,6.79,0,0,0,1.88,3.53l.1.09a.81.81,0,0,1,.09.1,6.83,6.83,0,0,0,3.53,1.88,6.83,6.83,0,0,0-3.67,1.88,6.79,6.79,0,0,0-2,4.63,6.65,6.65,0,0,0-1.93-4.36l-.1-.08-.08-.1A6.65,6.65,0,0,0-475.44,316.72Zm13.61,13.61a6.74,6.74,0,0,0,4.62-2,6.8,6.8,0,0,0,1.88-3.67,6.79,6.79,0,0,0,1.88,3.53.48.48,0,0,0,.11.09l.08.1a6.89,6.89,0,0,0,3.07,1.75,6.74,6.74,0,0,0-3.39,1.83,6.72,6.72,0,0,0-1.9,3.83,6.6,6.6,0,0,0-1.81-3.38l-.11-.08-.08-.1A6.65,6.65,0,0,0-461.83,330.33Zm13.42,13.43a6.78,6.78,0,0,0,4.62-2,6.64,6.64,0,0,0,1.88-3.66,6.92,6.92,0,0,0,1.89,3.53l.1.08.08.11a6.86,6.86,0,0,0,3.54,1.88A6.8,6.8,0,0,0-440,345.6a6.74,6.74,0,0,0-2,4.62,6.65,6.65,0,0,0-1.93-4.35l-.1-.08a1,1,0,0,0-.08-.11A6.64,6.64,0,0,0-448.41,343.76Zm13.61,13.61a6.77,6.77,0,0,0,4.62-2,6.78,6.78,0,0,0,1.89-3.67,6.83,6.83,0,0,0,1.88,3.53.81.81,0,0,1,.1.09.81.81,0,0,0,.09.1,6.84,6.84,0,0,0,3.07,1.75,6.7,6.7,0,0,0-3.4,1.83,6.74,6.74,0,0,0-1.89,3.83,6.7,6.7,0,0,0-1.82-3.38l-.1-.08-.08-.11A6.64,6.64,0,0,0-434.8,357.37Zm13.43,13.42a6.72,6.72,0,0,0,4.62-2,6.71,6.71,0,0,0,1.88-3.66,6.94,6.94,0,0,0,1.88,3.53l.11.08.08.1a6.84,6.84,0,0,0,3.53,1.89,6.64,6.64,0,0,0-3.66,1.88,6.78,6.78,0,0,0-2,4.62,6.64,6.64,0,0,0-1.92-4.35.81.81,0,0,0-.1-.09.81.81,0,0,1-.09-.1A6.7,6.7,0,0,0-421.37,370.79Zm13.61,13.62a6.78,6.78,0,0,0,4.62-2,6.64,6.64,0,0,0,1.88-3.66,6.84,6.84,0,0,0,1.89,3.53l.1.08.08.1a6.71,6.71,0,0,0,3.07,1.75,6.86,6.86,0,0,0-3.39,1.83,6.71,6.71,0,0,0-1.89,3.83,6.71,6.71,0,0,0-1.82-3.37l-.1-.09a.81.81,0,0,0-.09-.1A6.64,6.64,0,0,0-407.76,384.41Zm13.43,13.42a6.74,6.74,0,0,0,4.62-2,6.83,6.83,0,0,0,1.88-3.67,6.79,6.79,0,0,0,1.88,3.53.81.81,0,0,0,.1.09.81.81,0,0,1,.09.1,6.83,6.83,0,0,0,3.53,1.88,6.78,6.78,0,0,0-3.67,1.89,6.77,6.77,0,0,0-2,4.62,6.64,6.64,0,0,0-1.92-4.36l-.11-.08-.08-.1A6.65,6.65,0,0,0-394.33,397.83Zm13.61,13.61a6.74,6.74,0,0,0,4.62-2,6.8,6.8,0,0,0,1.88-3.67,6.86,6.86,0,0,0,1.88,3.54l.11.08.08.1a6.8,6.8,0,0,0,3.07,1.75,6.74,6.74,0,0,0-3.39,1.83,6.72,6.72,0,0,0-1.9,3.83,6.6,6.6,0,0,0-1.81-3.38l-.11-.08-.08-.1A6.65,6.65,0,0,0-380.72,411.44Zm13.42,13.43a6.81,6.81,0,0,0,4.62-2,6.7,6.7,0,0,0,1.88-3.67,6.92,6.92,0,0,0,1.89,3.53l.1.08.09.11a6.79,6.79,0,0,0,3.53,1.88,6.8,6.8,0,0,0-3.67,1.88,6.74,6.74,0,0,0-2,4.62,6.65,6.65,0,0,0-1.93-4.35l-.1-.08-.08-.11A6.64,6.64,0,0,0-367.3,424.87Zm13.62,13.61a6.74,6.74,0,0,0,4.61-2,6.78,6.78,0,0,0,1.89-3.67,6.83,6.83,0,0,0,1.88,3.53.81.81,0,0,1,.1.09.81.81,0,0,0,.09.1,6.84,6.84,0,0,0,3.07,1.75,6.63,6.63,0,0,0-3.39,1.83,6.69,6.69,0,0,0-1.9,3.83,6.7,6.7,0,0,0-1.82-3.38l-.1-.08-.08-.11A6.69,6.69,0,0,0-353.68,438.48Zm13.42,13.42a6.72,6.72,0,0,0,4.62-2,6.71,6.71,0,0,0,1.88-3.66,6.88,6.88,0,0,0,1.89,3.53l.1.08.08.1a6.84,6.84,0,0,0,3.53,1.89,6.71,6.71,0,0,0-3.66,1.88,6.78,6.78,0,0,0-2,4.62,6.64,6.64,0,0,0-1.92-4.35.81.81,0,0,0-.1-.09l-.09-.1A6.7,6.7,0,0,0-340.26,451.9Zm13.61,13.62a6.78,6.78,0,0,0,4.62-2,6.64,6.64,0,0,0,1.88-3.66,6.84,6.84,0,0,0,1.89,3.53l.1.08a1,1,0,0,1,.08.11,6.78,6.78,0,0,0,3.07,1.74,6.86,6.86,0,0,0-3.39,1.83,6.71,6.71,0,0,0-1.89,3.83,6.71,6.71,0,0,0-1.82-3.37.81.81,0,0,1-.1-.09.81.81,0,0,0-.09-.1A6.62,6.62,0,0,0-326.65,465.52Zm13.43,13.42a6.74,6.74,0,0,0,4.62-2,6.83,6.83,0,0,0,1.88-3.67,6.79,6.79,0,0,0,1.88,3.53.81.81,0,0,0,.1.09.81.81,0,0,1,.09.1,6.92,6.92,0,0,0,3.53,1.89,6.7,6.7,0,0,0-3.67,1.88,6.77,6.77,0,0,0-2,4.62,6.64,6.64,0,0,0-1.92-4.36l-.11-.08-.08-.1A6.65,6.65,0,0,0-313.22,478.94Zm13.61,13.61a6.72,6.72,0,0,0,4.62-2,6.8,6.8,0,0,0,1.88-3.67,6.86,6.86,0,0,0,1.88,3.54l.11.08.08.1a6.8,6.8,0,0,0,3.07,1.75,6.74,6.74,0,0,0-3.39,1.83,6.78,6.78,0,0,0-1.9,3.83,6.54,6.54,0,0,0-1.81-3.37.48.48,0,0,0-.11-.09l-.08-.1A6.65,6.65,0,0,0-299.61,492.55ZM-286.19,506a6.77,6.77,0,0,0,4.62-2,6.7,6.7,0,0,0,1.88-3.67,6.92,6.92,0,0,0,1.89,3.53l.1.08a.48.48,0,0,0,.09.11,6.79,6.79,0,0,0,3.53,1.88,6.83,6.83,0,0,0-3.67,1.88,6.74,6.74,0,0,0-2,4.62,6.65,6.65,0,0,0-1.93-4.35l-.1-.08-.08-.11A6.64,6.64,0,0,0-286.19,506Zm13.62,13.61a6.79,6.79,0,0,0,4.62-2,6.83,6.83,0,0,0,1.88-3.67,6.83,6.83,0,0,0,1.88,3.53l.1.09.09.1a6.89,6.89,0,0,0,3.07,1.75,6.67,6.67,0,0,0-3.39,1.83,6.72,6.72,0,0,0-1.9,3.83A6.7,6.7,0,0,0-268,521.7l-.1-.08-.08-.1A6.65,6.65,0,0,0-272.57,519.59ZM-259.15,533a6.78,6.78,0,0,0,4.62-2,6.71,6.71,0,0,0,1.88-3.66,6.84,6.84,0,0,0,1.89,3.53l.1.08.08.1A6.88,6.88,0,0,0-247,533a6.71,6.71,0,0,0-3.66,1.88,6.72,6.72,0,0,0-2,4.62,6.7,6.7,0,0,0-1.93-4.35l-.1-.09a.81.81,0,0,0-.09-.1A6.64,6.64,0,0,0-259.15,533Zm13.61,13.61a6.78,6.78,0,0,0,4.62-2A6.64,6.64,0,0,0-239,541a6.92,6.92,0,0,0,1.89,3.53l.1.08.08.11a6.83,6.83,0,0,0,3.07,1.74,6.86,6.86,0,0,0-3.39,1.83,6.77,6.77,0,0,0-1.89,3.83,6.71,6.71,0,0,0-1.82-3.37.81.81,0,0,1-.1-.09.81.81,0,0,0-.09-.1A6.6,6.6,0,0,0-245.54,546.63Zm13.43,13.42a6.74,6.74,0,0,0,4.62-2,6.8,6.8,0,0,0,1.88-3.67,6.79,6.79,0,0,0,1.88,3.53.48.48,0,0,0,.11.09l.08.1A6.92,6.92,0,0,0-220,560a6.7,6.7,0,0,0-3.67,1.88,6.77,6.77,0,0,0-2,4.62,6.64,6.64,0,0,0-1.92-4.36l-.11-.08-.08-.1A6.65,6.65,0,0,0-232.11,560.05Zm13.61,13.61a6.72,6.72,0,0,0,4.62-2A6.7,6.7,0,0,0-212,568a6.93,6.93,0,0,0,1.88,3.54l.11.08.08.1a6.8,6.8,0,0,0,3.07,1.75,6.74,6.74,0,0,0-3.39,1.83,6.78,6.78,0,0,0-1.9,3.83,6.54,6.54,0,0,0-1.81-3.37.81.81,0,0,0-.1-.09.81.81,0,0,1-.09-.1A6.65,6.65,0,0,0-218.5,573.66Zm13.42,13.43a6.77,6.77,0,0,0,4.62-2,6.78,6.78,0,0,0,1.89-3.67,6.83,6.83,0,0,0,1.88,3.53.81.81,0,0,1,.1.09.81.81,0,0,0,.09.1,6.79,6.79,0,0,0,3.53,1.88,6.83,6.83,0,0,0-3.67,1.88,6.74,6.74,0,0,0-2,4.62,6.65,6.65,0,0,0-1.93-4.35l-.1-.08-.08-.11A6.64,6.64,0,0,0-205.08,587.09Zm13.62,13.61a6.74,6.74,0,0,0,4.62-2,6.83,6.83,0,0,0,1.88-3.67,6.79,6.79,0,0,0,1.88,3.53l.1.09a.81.81,0,0,1,.09.1,6.89,6.89,0,0,0,3.07,1.75,6.67,6.67,0,0,0-3.39,1.83,6.72,6.72,0,0,0-1.9,3.83,6.7,6.7,0,0,0-1.82-3.38l-.1-.08-.08-.1A6.65,6.65,0,0,0-191.46,600.7ZM-178,614.13a6.78,6.78,0,0,0,4.62-2,6.64,6.64,0,0,0,1.88-3.66,6.84,6.84,0,0,0,1.89,3.53l.1.08.08.1a6.87,6.87,0,0,0,3.54,1.89A6.7,6.7,0,0,0-169.6,616a6.72,6.72,0,0,0-2,4.62,6.7,6.7,0,0,0-1.93-4.35l-.1-.09a.81.81,0,0,0-.09-.1A6.64,6.64,0,0,0-178,614.13Zm13.61,13.61a6.81,6.81,0,0,0,4.62-2,6.7,6.7,0,0,0,1.88-3.67,6.92,6.92,0,0,0,1.89,3.53l.1.08.08.11a6.83,6.83,0,0,0,3.07,1.74,6.8,6.8,0,0,0-3.39,1.84,6.71,6.71,0,0,0-1.89,3.82,6.71,6.71,0,0,0-1.82-3.37l-.1-.08a1,1,0,0,0-.08-.11A6.64,6.64,0,0,0-164.43,627.74ZM-151,641.16a6.74,6.74,0,0,0,4.62-2,6.8,6.8,0,0,0,1.88-3.67,6.86,6.86,0,0,0,1.88,3.54l.11.08.08.1a6.92,6.92,0,0,0,3.53,1.89,6.64,6.64,0,0,0-3.66,1.88,6.78,6.78,0,0,0-2,4.62,6.64,6.64,0,0,0-1.92-4.36l-.11-.08-.08-.1A6.65,6.65,0,0,0-151,641.16Zm13.61,13.61a6.72,6.72,0,0,0,4.62-2,6.71,6.71,0,0,0,1.88-3.66,6.88,6.88,0,0,0,1.89,3.53l.1.08.08.1a6.8,6.8,0,0,0,3.07,1.75,6.74,6.74,0,0,0-3.39,1.83,6.78,6.78,0,0,0-1.9,3.83,6.58,6.58,0,0,0-1.81-3.37.81.81,0,0,0-.1-.09.81.81,0,0,1-.09-.1A6.7,6.7,0,0,0-137.39,654.77ZM-124,668.2a6.79,6.79,0,0,0,4.62-2,6.83,6.83,0,0,0,1.88-3.67,6.83,6.83,0,0,0,1.88,3.53.81.81,0,0,1,.1.09.81.81,0,0,0,.09.1,6.83,6.83,0,0,0,3.53,1.88,6.83,6.83,0,0,0-3.67,1.88,6.75,6.75,0,0,0-2,4.63,6.65,6.65,0,0,0-1.93-4.36l-.1-.08a1,1,0,0,1-.08-.11A6.69,6.69,0,0,0-124,668.2Zm13.61,13.61a6.74,6.74,0,0,0,4.62-2,6.83,6.83,0,0,0,1.88-3.67A6.79,6.79,0,0,0-102,679.7a.81.81,0,0,0,.1.09.81.81,0,0,1,.09.1,6.89,6.89,0,0,0,3.07,1.75,6.67,6.67,0,0,0-3.39,1.83,6.72,6.72,0,0,0-1.9,3.83,6.76,6.76,0,0,0-1.81-3.38l-.11-.08-.08-.1A6.65,6.65,0,0,0-110.35,681.81Zm13.42,13.43a6.78,6.78,0,0,0,4.62-2,6.64,6.64,0,0,0,1.88-3.66,6.84,6.84,0,0,0,1.89,3.53l.1.08.08.11a6.93,6.93,0,0,0,3.54,1.88,6.7,6.7,0,0,0-3.67,1.88,6.74,6.74,0,0,0-2,4.62,6.65,6.65,0,0,0-1.93-4.35.81.81,0,0,1-.1-.09.81.81,0,0,0-.09-.1A6.62,6.62,0,0,0-96.93,695.24Zm13.61,13.61a6.77,6.77,0,0,0,4.62-2,6.7,6.7,0,0,0,1.88-3.67,6.92,6.92,0,0,0,1.89,3.53l.1.08.09.11a6.73,6.73,0,0,0,3.07,1.74,6.79,6.79,0,0,0-3.4,1.84A6.71,6.71,0,0,0-77,714.33,6.71,6.71,0,0,0-78.78,711l-.1-.08-.08-.11A6.64,6.64,0,0,0-83.32,708.85Zm13.43,13.42a6.72,6.72,0,0,0,4.62-2,6.77,6.77,0,0,0,1.88-3.67,6.86,6.86,0,0,0,1.88,3.54l.11.08.08.1a6.92,6.92,0,0,0,3.53,1.89,6.64,6.64,0,0,0-3.66,1.88,6.78,6.78,0,0,0-2,4.62,6.64,6.64,0,0,0-1.92-4.35.48.48,0,0,0-.11-.09l-.08-.1A6.65,6.65,0,0,0-69.89,722.27Zm13.61,13.61a6.72,6.72,0,0,0,4.62-2,6.71,6.71,0,0,0,1.88-3.66,6.88,6.88,0,0,0,1.89,3.53l.1.08.08.1a6.8,6.8,0,0,0,3.07,1.75A6.78,6.78,0,0,0-48,737.54a6.78,6.78,0,0,0-1.9,3.83A6.61,6.61,0,0,0-51.74,738a.81.81,0,0,0-.1-.09l-.09-.1A6.7,6.7,0,0,0-56.28,735.88Zm13.43,13.43a6.79,6.79,0,0,0,4.62-2,6.83,6.83,0,0,0,1.88-3.67,6.83,6.83,0,0,0,1.88,3.53l.1.09.09.1a6.83,6.83,0,0,0,3.53,1.88,6.83,6.83,0,0,0-3.67,1.88,6.75,6.75,0,0,0-2,4.63,6.65,6.65,0,0,0-1.93-4.36l-.1-.08-.08-.1A6.65,6.65,0,0,0-42.85,749.31Zm13.61,13.61a6.74,6.74,0,0,0,4.62-2,6.8,6.8,0,0,0,1.88-3.67,6.79,6.79,0,0,0,1.88,3.53.48.48,0,0,0,.11.09l.08.1a6.89,6.89,0,0,0,3.07,1.75A6.74,6.74,0,0,0-21,764.58a6.72,6.72,0,0,0-1.9,3.83A6.6,6.6,0,0,0-24.7,765l-.11-.08-.08-.1A6.65,6.65,0,0,0-29.24,762.92Zm13.42,13.43a6.78,6.78,0,0,0,4.62-2,6.64,6.64,0,0,0,1.88-3.66,6.92,6.92,0,0,0,1.89,3.53l.1.08.08.11a6.86,6.86,0,0,0,3.54,1.88,6.8,6.8,0,0,0-3.67,1.88,6.74,6.74,0,0,0-2,4.62,6.65,6.65,0,0,0-1.93-4.35.81.81,0,0,1-.1-.09.81.81,0,0,0-.09-.1A6.6,6.6,0,0,0-15.82,776.35ZM-2.21,790a6.77,6.77,0,0,0,4.62-2,6.78,6.78,0,0,0,1.89-3.67,6.83,6.83,0,0,0,1.88,3.53l.1.08a.48.48,0,0,0,.09.11,6.84,6.84,0,0,0,3.07,1.75,6.68,6.68,0,0,0-5.29,5.66,6.7,6.7,0,0,0-1.82-3.38l-.1-.08-.08-.11A6.64,6.64,0,0,0-2.21,790Zm13.43,13.42a6.72,6.72,0,0,0,6.5-5.64,6.93,6.93,0,0,0,1.88,3.54l.11.08.08.1a6.84,6.84,0,0,0,3.53,1.89,6.64,6.64,0,0,0-3.66,1.88,6.78,6.78,0,0,0-2,4.62,6.64,6.64,0,0,0-1.92-4.35.81.81,0,0,0-.1-.09.81.81,0,0,1-.09-.1A6.65,6.65,0,0,0,11.22,803.38Zm22-15.53.08.1a7,7,0,0,0,3,1.74,6.84,6.84,0,0,0-4.95,5.18,6.77,6.77,0,0,0-1.77-3.15l-.1-.08-.08-.11a6.91,6.91,0,0,0-3.15-1.77,6.78,6.78,0,0,0,3.41-1.86,6.87,6.87,0,0,0,1.77-3.08,7.07,7.07,0,0,0,1.73,2.95Zm-17.48,3.87-.09-.1a6.61,6.61,0,0,0-3-1.72,6.74,6.74,0,0,0,5.22-5,7,7,0,0,0,1.68,2.81l.11.08.08.1A6.93,6.93,0,0,0,23,789.7a7,7,0,0,0-3.35,1.83,6.85,6.85,0,0,0-1.9,3.75,6.79,6.79,0,0,0-1.86-3.48Zm4-17.29a.81.81,0,0,0,.09.1,6.94,6.94,0,0,0,2.54,1.61,6.73,6.73,0,0,0-4.66,4.9,6.88,6.88,0,0,0-1.65-2.74.48.48,0,0,0-.11-.09l-.08-.1a6.86,6.86,0,0,0-3.15-1.77,7,7,0,0,0,3.42-1.86A6.88,6.88,0,0,0,18,771.39a7,7,0,0,0,1.74,3A.81.81,0,0,1,19.79,774.43ZM2.31,778.29l-.08-.1a6.7,6.7,0,0,0-3.48-1.85,6.94,6.94,0,0,0,3.75-1.91,7,7,0,0,0,1.83-3.35,6.93,6.93,0,0,0,1.8,3.21l.1.08a1,1,0,0,0,.08.11,6.91,6.91,0,0,0,3.22,1.8,6.8,6.8,0,0,0-5.26,5.57,6.69,6.69,0,0,0-1.86-3.47A.81.81,0,0,1,2.31,778.29Zm3.87-17.48.08.11a7,7,0,0,0,3,1.73,6.85,6.85,0,0,0-3.09,1.77,6.93,6.93,0,0,0-1.86,3.41,6.91,6.91,0,0,0-1.77-3.15l-.11-.08-.08-.1a6.77,6.77,0,0,0-3.15-1.77,7,7,0,0,0,3.42-1.86,7,7,0,0,0,1.76-3.09,7,7,0,0,0,1.74,3Zm-17.48,3.87-.08-.1a6.88,6.88,0,0,0-3-1.72A6.81,6.81,0,0,0-10.93,761a6.8,6.8,0,0,0,1.77-3.13,6.69,6.69,0,0,0,1.68,2.81l.1.08.08.11a6.91,6.91,0,0,0,3.22,1.8,6.7,6.7,0,0,0-3.35,1.83,6.74,6.74,0,0,0-1.91,3.74,6.69,6.69,0,0,0-1.86-3.47A.81.81,0,0,0-11.3,764.68Zm4.05-17.29a.81.81,0,0,1,.09.1,7,7,0,0,0,2.54,1.62,6.88,6.88,0,0,0-2.86,1.69,6.9,6.9,0,0,0-1.8,3.2,6.77,6.77,0,0,0-1.65-2.74l-.1-.08a.48.48,0,0,0-.09-.11,6.83,6.83,0,0,0-3.14-1.77,6.93,6.93,0,0,0,3.41-1.86,6.9,6.9,0,0,0,1.77-3.09,6.9,6.9,0,0,0,1.73,2.95A.81.81,0,0,0-7.25,747.39Zm-17.48,3.87-.08-.11a6.79,6.79,0,0,0-3.47-1.85,6.84,6.84,0,0,0,3.74-1.91A6.9,6.9,0,0,0-22.71,744a6.88,6.88,0,0,0,1.8,3.21.81.81,0,0,0,.1.09.81.81,0,0,1,.09.1,6.93,6.93,0,0,0,3.21,1.8,7,7,0,0,0-3.35,1.83,6.94,6.94,0,0,0-1.91,3.75,6.78,6.78,0,0,0-1.85-3.48Zm3.87-17.48a.81.81,0,0,0,.09.1,6.9,6.9,0,0,0,2.95,1.73,7,7,0,0,0-3.09,1.77,6.92,6.92,0,0,0-1.86,3.42,6.81,6.81,0,0,0-1.77-3.15l-.1-.09-.09-.1a6.83,6.83,0,0,0-3.14-1.77,6.93,6.93,0,0,0,3.41-1.86,7,7,0,0,0,1.77-3.09,6.9,6.9,0,0,0,1.73,3A.81.81,0,0,0-20.86,733.78Zm-17.48,3.87a1,1,0,0,0-.08-.11,6.73,6.73,0,0,0-3-1.71A6.84,6.84,0,0,0-38,734a6.77,6.77,0,0,0,1.77-3.12,6.94,6.94,0,0,0,1.68,2.8.81.81,0,0,1,.1.09.81.81,0,0,0,.09.1,6.88,6.88,0,0,0,3.21,1.8,6.9,6.9,0,0,0-3.35,1.83,6.84,6.84,0,0,0-1.91,3.74,6.79,6.79,0,0,0-1.85-3.47Zm4.06-17.3.08.1a7,7,0,0,0,2.55,1.62,6.83,6.83,0,0,0-2.87,1.7,6.82,6.82,0,0,0-1.8,3.19A6.72,6.72,0,0,0-38,724.22l-.1-.08-.08-.1a6.69,6.69,0,0,0-3.15-1.77,7,7,0,0,0,3.42-1.87,6.89,6.89,0,0,0,1.76-3.08,7,7,0,0,0,1.74,2.95Zm-17.48,3.87a.81.81,0,0,0-.09-.1,6.69,6.69,0,0,0-3.47-1.86,6.74,6.74,0,0,0,3.74-1.91A6.7,6.7,0,0,0-49.75,717a6.91,6.91,0,0,0,1.8,3.22l.11.08.08.1a7,7,0,0,0,3.21,1.81A6.71,6.71,0,0,0-47.89,724a6.74,6.74,0,0,0-1.91,3.74,6.83,6.83,0,0,0-1.86-3.48Zm3.87-17.48.08.1a7,7,0,0,0,3,1.74,7,7,0,0,0-3.09,1.76,7,7,0,0,0-1.86,3.42,6.77,6.77,0,0,0-1.77-3.15l-.1-.08-.08-.11a6.91,6.91,0,0,0-3.15-1.77,6.93,6.93,0,0,0,3.41-1.86,6.87,6.87,0,0,0,1.77-3.08A7.13,7.13,0,0,0-48,706.66Zm-17.48,3.87a.81.81,0,0,1-.09-.1,6.61,6.61,0,0,0-3-1.72A6.85,6.85,0,0,0-65,706.93a6.92,6.92,0,0,0,1.76-3.13,7,7,0,0,0,1.68,2.81l.11.08.08.1a6.93,6.93,0,0,0,3.21,1.8,7,7,0,0,0-3.35,1.83,6.94,6.94,0,0,0-1.91,3.75,6.7,6.7,0,0,0-1.85-3.48Zm4.05-17.3a1,1,0,0,0,.08.11A7.06,7.06,0,0,0-58.69,695a6.94,6.94,0,0,0-2.87,1.7,7,7,0,0,0-1.79,3.2A6.88,6.88,0,0,0-65,697.19l-.11-.09-.08-.1a6.86,6.86,0,0,0-3.15-1.77,7,7,0,0,0,3.42-1.86,6.88,6.88,0,0,0,1.76-3.09,7,7,0,0,0,1.74,3Zm-17.48,3.87-.08-.1a6.79,6.79,0,0,0-3.48-1.86,6.85,6.85,0,0,0,3.75-1.9A7,7,0,0,0-76.78,690a6.93,6.93,0,0,0,1.8,3.21l.1.08.08.11a6.91,6.91,0,0,0,3.22,1.8A6.78,6.78,0,0,0-74.93,697a6.84,6.84,0,0,0-1.91,3.74,6.69,6.69,0,0,0-1.86-3.47Zm3.87-17.48.08.11a7.07,7.07,0,0,0,2.95,1.73A6.87,6.87,0,0,0-75,683.31a6.78,6.78,0,0,0-1.86,3.41,6.91,6.91,0,0,0-1.77-3.15l-.11-.08-.08-.1a6.77,6.77,0,0,0-3.15-1.77,7,7,0,0,0,3.42-1.86,7,7,0,0,0,1.76-3.09,7,7,0,0,0,1.74,3Zm-17.48,3.87-.08-.1a6.78,6.78,0,0,0-3-1.72A6.81,6.81,0,0,0-92,679.89a6.69,6.69,0,0,0,1.76-3.13,6.82,6.82,0,0,0,1.69,2.81l.1.08a1,1,0,0,1,.08.11,7,7,0,0,0,3.22,1.8,6.7,6.7,0,0,0-3.35,1.83,6.74,6.74,0,0,0-1.91,3.74,6.77,6.77,0,0,0-1.86-3.47A.81.81,0,0,0-92.41,683.57Zm4-17.29a.81.81,0,0,1,.09.1A7.19,7.19,0,0,0-85.73,668a6.88,6.88,0,0,0-2.86,1.69,6.9,6.9,0,0,0-1.8,3.2A6.88,6.88,0,0,0-92,670.15a.81.81,0,0,1-.1-.09.81.81,0,0,0-.09-.1,6.83,6.83,0,0,0-3.14-1.77A6.93,6.93,0,0,0-92,666.33a6.9,6.9,0,0,0,1.77-3.09,6.9,6.9,0,0,0,1.73,3A.81.81,0,0,0-88.36,666.28Zm-17.48,3.87-.08-.11a6.79,6.79,0,0,0-3.47-1.85,6.84,6.84,0,0,0,3.74-1.91,6.9,6.9,0,0,0,1.83-3.35,6.93,6.93,0,0,0,1.8,3.21.81.81,0,0,0,.1.09l.09.1a6.93,6.93,0,0,0,3.21,1.8A6.9,6.9,0,0,0-102,670a6.91,6.91,0,0,0-1.91,3.74,6.79,6.79,0,0,0-1.85-3.47Zm3.87-17.48a.81.81,0,0,0,.09.1,6.9,6.9,0,0,0,2.95,1.73,6.9,6.9,0,0,0-3.09,1.77,6.93,6.93,0,0,0-1.86,3.41,6.83,6.83,0,0,0-1.77-3.14.81.81,0,0,0-.1-.09.81.81,0,0,1-.09-.1,6.83,6.83,0,0,0-3.14-1.77,6.93,6.93,0,0,0,3.41-1.86,6.88,6.88,0,0,0,1.76-3.09,7,7,0,0,0,1.74,3Zm-17.48,3.86-.08-.1a6.71,6.71,0,0,0-3-1.71,6.83,6.83,0,0,0,3.46-1.87,6.77,6.77,0,0,0,1.77-3.12,6.94,6.94,0,0,0,1.68,2.8.81.81,0,0,1,.1.09.81.81,0,0,0,.09.1,6.88,6.88,0,0,0,3.21,1.8,6.86,6.86,0,0,0-3.35,1.83,6.84,6.84,0,0,0-1.91,3.74,6.79,6.79,0,0,0-1.85-3.47A.48.48,0,0,1-119.45,656.53Zm4.06-17.29.08.1a7.14,7.14,0,0,0,2.54,1.62,6.86,6.86,0,0,0-2.86,1.7,6.82,6.82,0,0,0-1.8,3.19,6.72,6.72,0,0,0-1.65-2.74l-.1-.08-.08-.1a6.79,6.79,0,0,0-3.15-1.78,6.85,6.85,0,0,0,3.42-1.86,7,7,0,0,0,1.76-3.08,7.07,7.07,0,0,0,1.73,2.95Zm-17.48,3.87a.81.81,0,0,0-.09-.1,6.69,6.69,0,0,0-3.47-1.86,6.84,6.84,0,0,0,3.74-1.91,6.78,6.78,0,0,0,1.83-3.35,6.91,6.91,0,0,0,1.8,3.22l.11.08.08.1a6.84,6.84,0,0,0,3.21,1.8,6.81,6.81,0,0,0-3.34,1.84,6.74,6.74,0,0,0-1.91,3.74,6.79,6.79,0,0,0-1.86-3.48Zm3.87-17.48.08.1a7,7,0,0,0,2.95,1.74,7,7,0,0,0-3.09,1.76,7,7,0,0,0-1.86,3.42,6.77,6.77,0,0,0-1.77-3.15l-.1-.08-.08-.11a6.91,6.91,0,0,0-3.15-1.77,6.93,6.93,0,0,0,3.41-1.86,6.85,6.85,0,0,0,1.77-3.09,7,7,0,0,0,1.73,3Zm-17.48,3.87a.81.81,0,0,1-.09-.1,6.61,6.61,0,0,0-3-1.72,7,7,0,0,0,3.46-1.86,6.92,6.92,0,0,0,1.76-3.13,6.94,6.94,0,0,0,1.68,2.8.81.81,0,0,0,.1.09.81.81,0,0,1,.09.1,6.93,6.93,0,0,0,3.21,1.8,7,7,0,0,0-3.35,1.83,6.94,6.94,0,0,0-1.91,3.75,6.78,6.78,0,0,0-1.85-3.48Zm4-17.3a1,1,0,0,0,.08.11,7.06,7.06,0,0,0,2.55,1.61,6.94,6.94,0,0,0-2.87,1.7,6.94,6.94,0,0,0-1.79,3.19,7,7,0,0,0-1.65-2.74l-.11-.08-.08-.1a6.86,6.86,0,0,0-3.15-1.77,7,7,0,0,0,3.42-1.86,7,7,0,0,0,1.76-3.09,7,7,0,0,0,1.74,3Zm-17.48,3.87-.08-.1a6.83,6.83,0,0,0-3.48-1.86,6.74,6.74,0,0,0,3.74-1.91,6.81,6.81,0,0,0,1.84-3.34,6.84,6.84,0,0,0,1.8,3.21l.1.08.08.11a6.91,6.91,0,0,0,3.22,1.8,6.78,6.78,0,0,0-3.35,1.83,6.81,6.81,0,0,0-1.91,3.74,6.69,6.69,0,0,0-1.86-3.47A.81.81,0,0,0-159.91,616.07Zm3.87-17.48.08.11a7.07,7.07,0,0,0,3,1.73,7,7,0,0,0-3.08,1.76,6.85,6.85,0,0,0-1.86,3.42,6.79,6.79,0,0,0-1.78-3.15l-.1-.08-.08-.1a6.77,6.77,0,0,0-3.15-1.77,7,7,0,0,0,3.42-1.87,6.89,6.89,0,0,0,1.76-3.08,6.93,6.93,0,0,0,1.74,3Zm-17.48,3.87a.81.81,0,0,0-.09-.1,6.7,6.7,0,0,0-3-1.72,6.81,6.81,0,0,0,3.46-1.86,6.69,6.69,0,0,0,1.76-3.13,6.82,6.82,0,0,0,1.69,2.81l.1.08.08.1a6.93,6.93,0,0,0,3.22,1.81,6.7,6.7,0,0,0-3.35,1.83,6.74,6.74,0,0,0-1.91,3.74,6.77,6.77,0,0,0-1.86-3.47A.81.81,0,0,0-173.52,602.46Zm4.05-17.29.09.1a6.94,6.94,0,0,0,2.54,1.61,7,7,0,0,0-2.86,1.7,6.9,6.9,0,0,0-1.8,3.2,6.88,6.88,0,0,0-1.65-2.74.81.81,0,0,1-.1-.09l-.09-.1a6.83,6.83,0,0,0-3.14-1.77,6.93,6.93,0,0,0,3.41-1.86,6.9,6.9,0,0,0,1.77-3.09,6.9,6.9,0,0,0,1.73,3A.81.81,0,0,0-169.47,585.17ZM-186.95,589l-.08-.11a6.78,6.78,0,0,0-3.48-1.85,6.94,6.94,0,0,0,3.75-1.91,7,7,0,0,0,1.83-3.35,6.93,6.93,0,0,0,1.8,3.21l.1.09a.81.81,0,0,0,.09.1,6.93,6.93,0,0,0,3.21,1.8,6.9,6.9,0,0,0-3.35,1.83,6.84,6.84,0,0,0-1.91,3.74,6.79,6.79,0,0,0-1.85-3.47Zm3.87-17.48a.81.81,0,0,0,.09.1,6.9,6.9,0,0,0,3,1.73,6.9,6.9,0,0,0-3.09,1.77,6.93,6.93,0,0,0-1.86,3.41,6.83,6.83,0,0,0-1.77-3.14.81.81,0,0,0-.1-.09.81.81,0,0,1-.09-.1,6.81,6.81,0,0,0-3.15-1.77,7,7,0,0,0,3.42-1.86,6.88,6.88,0,0,0,1.76-3.09,7,7,0,0,0,1.74,3A.81.81,0,0,1-183.08,571.56Zm-17.48,3.86-.08-.1a6.71,6.71,0,0,0-3-1.71,6.83,6.83,0,0,0,3.46-1.87,6.75,6.75,0,0,0,1.77-3.13,6.9,6.9,0,0,0,1.68,2.81.81.81,0,0,1,.1.09.81.81,0,0,0,.09.1,6.83,6.83,0,0,0,3.21,1.8,6.86,6.86,0,0,0-3.35,1.83A6.84,6.84,0,0,0-198.6,579a6.69,6.69,0,0,0-1.86-3.47A.81.81,0,0,1-200.56,575.42Zm4.06-17.29.08.1a7,7,0,0,0,2.54,1.62,6.86,6.86,0,0,0-2.86,1.7,6.82,6.82,0,0,0-1.8,3.19,6.66,6.66,0,0,0-1.65-2.74l-.1-.08-.08-.11a6.91,6.91,0,0,0-3.15-1.77,6.78,6.78,0,0,0,3.41-1.86,6.87,6.87,0,0,0,1.77-3.08,7.07,7.07,0,0,0,1.73,2.95ZM-214,562l-.09-.1a6.69,6.69,0,0,0-3.47-1.86,6.84,6.84,0,0,0,3.74-1.91,6.78,6.78,0,0,0,1.83-3.35,6.91,6.91,0,0,0,1.8,3.22l.11.08.08.1a6.93,6.93,0,0,0,3.21,1.8,7,7,0,0,0-3.35,1.83,6.85,6.85,0,0,0-1.9,3.75,6.79,6.79,0,0,0-1.86-3.48Zm3.86-17.48a.81.81,0,0,1,.09.1,7,7,0,0,0,2.95,1.74,6.88,6.88,0,0,0-3.09,1.76,7,7,0,0,0-1.86,3.42,6.86,6.86,0,0,0-1.77-3.15l-.1-.08a.48.48,0,0,0-.09-.11,6.83,6.83,0,0,0-3.14-1.77,6.93,6.93,0,0,0,3.41-1.86,6.9,6.9,0,0,0,1.77-3.09,7,7,0,0,0,1.73,3Zm-17.48,3.87a1,1,0,0,1-.08-.11,6.68,6.68,0,0,0-3-1.71,7,7,0,0,0,3.46-1.86,6.92,6.92,0,0,0,1.76-3.13,6.94,6.94,0,0,0,1.68,2.8.81.81,0,0,0,.1.09.81.81,0,0,1,.09.1,6.93,6.93,0,0,0,3.21,1.8,7,7,0,0,0-3.35,1.83,6.94,6.94,0,0,0-1.91,3.75,6.78,6.78,0,0,0-1.85-3.48Zm4.06-17.3.08.11a7.06,7.06,0,0,0,2.55,1.61,6.94,6.94,0,0,0-2.87,1.7,6.94,6.94,0,0,0-1.79,3.19,7,7,0,0,0-1.65-2.74l-.11-.08-.08-.1a6.77,6.77,0,0,0-3.15-1.77,7,7,0,0,0,3.42-1.86,7,7,0,0,0,1.76-3.09,7,7,0,0,0,1.74,3ZM-241,535l-.08-.1a6.83,6.83,0,0,0-3.48-1.86,6.74,6.74,0,0,0,3.74-1.91,6.7,6.7,0,0,0,1.83-3.35A6.93,6.93,0,0,0-237.2,531l.1.08.08.11a6.91,6.91,0,0,0,3.22,1.8,6.7,6.7,0,0,0-3.35,1.83,6.74,6.74,0,0,0-1.91,3.74,6.69,6.69,0,0,0-1.86-3.47A.81.81,0,0,0-241,535Zm3.87-17.48.08.1a7,7,0,0,0,2.95,1.74,7,7,0,0,0-3.08,1.76,7,7,0,0,0-1.87,3.42,6.69,6.69,0,0,0-1.77-3.15l-.1-.08-.08-.1a6.69,6.69,0,0,0-3.15-1.77,7,7,0,0,0,3.42-1.87,6.89,6.89,0,0,0,1.76-3.08,7,7,0,0,0,1.74,2.95Zm-17.48,3.87a.81.81,0,0,0-.09-.1,6.7,6.7,0,0,0-3-1.72,6.81,6.81,0,0,0,3.46-1.86,6.83,6.83,0,0,0,1.76-3.13,7,7,0,0,0,1.68,2.81l.11.08.08.1a6.93,6.93,0,0,0,3.22,1.81,6.7,6.7,0,0,0-3.35,1.83,6.74,6.74,0,0,0-1.91,3.74,6.83,6.83,0,0,0-1.86-3.48Zm4-17.29a.81.81,0,0,0,.09.1,6.94,6.94,0,0,0,2.54,1.61,6.94,6.94,0,0,0-2.87,1.7,7,7,0,0,0-1.79,3.2,6.88,6.88,0,0,0-1.65-2.74l-.1-.09-.09-.1a6.83,6.83,0,0,0-3.14-1.77,6.93,6.93,0,0,0,3.41-1.86,7,7,0,0,0,1.77-3.09,6.9,6.9,0,0,0,1.73,3Zm-17.48,3.87a1,1,0,0,0-.08-.11,6.78,6.78,0,0,0-3.48-1.85,6.94,6.94,0,0,0,3.75-1.91,7,7,0,0,0,1.83-3.35,6.93,6.93,0,0,0,1.8,3.21.81.81,0,0,1,.1.09.81.81,0,0,0,.09.1,6.88,6.88,0,0,0,3.21,1.8,6.9,6.9,0,0,0-3.35,1.83,6.84,6.84,0,0,0-1.91,3.74,6.79,6.79,0,0,0-1.85-3.47Zm3.87-17.48.08.1a7,7,0,0,0,3,1.73,6.9,6.9,0,0,0-3.09,1.77,6.93,6.93,0,0,0-1.86,3.41,6.83,6.83,0,0,0-1.77-3.14.48.48,0,0,0-.11-.09l-.08-.1a6.86,6.86,0,0,0-3.15-1.77,7,7,0,0,0,3.42-1.86,6.88,6.88,0,0,0,1.76-3.09,7,7,0,0,0,1.74,2.95A.81.81,0,0,1-264.19,490.45Zm-17.48,3.86-.08-.1a6.88,6.88,0,0,0-3-1.72,6.74,6.74,0,0,0,3.46-1.86,6.75,6.75,0,0,0,1.77-3.13,6.9,6.9,0,0,0,1.68,2.81l.1.08a1,1,0,0,0,.08.11,6.91,6.91,0,0,0,3.22,1.8,6.78,6.78,0,0,0-3.35,1.83,6.84,6.84,0,0,0-1.91,3.74,6.69,6.69,0,0,0-1.86-3.47Zm4.06-17.29.08.1a7,7,0,0,0,2.54,1.62,6.86,6.86,0,0,0-2.86,1.7,6.82,6.82,0,0,0-1.8,3.19,6.66,6.66,0,0,0-1.65-2.74l-.1-.08-.08-.11a6.91,6.91,0,0,0-3.15-1.77,6.93,6.93,0,0,0,3.41-1.86,6.87,6.87,0,0,0,1.77-3.08,7.13,7.13,0,0,0,1.73,2.95Zm-17.48,3.87a.81.81,0,0,1-.09-.1,6.69,6.69,0,0,0-3.47-1.86,6.84,6.84,0,0,0,3.74-1.91,6.78,6.78,0,0,0,1.83-3.35,6.91,6.91,0,0,0,1.8,3.22l.11.08.08.1a6.93,6.93,0,0,0,3.21,1.8,7,7,0,0,0-3.35,1.83,6.94,6.94,0,0,0-1.91,3.75A6.7,6.7,0,0,0-295,481Zm3.86-17.48a.81.81,0,0,1,.09.1,7,7,0,0,0,2.95,1.74,6.88,6.88,0,0,0-3.09,1.76,7,7,0,0,0-1.86,3.42,6.86,6.86,0,0,0-1.77-3.15.81.81,0,0,1-.1-.09.81.81,0,0,0-.09-.1,6.83,6.83,0,0,0-3.14-1.77,6.93,6.93,0,0,0,3.41-1.86,6.9,6.9,0,0,0,1.77-3.09,6.9,6.9,0,0,0,1.73,2.95A.81.81,0,0,0-291.23,463.41Zm-17.48,3.87-.08-.11a6.73,6.73,0,0,0-3-1.71,7,7,0,0,0,3.46-1.86,6.92,6.92,0,0,0,1.76-3.13,6.94,6.94,0,0,0,1.68,2.8.81.81,0,0,0,.1.09l.09.1a6.93,6.93,0,0,0,3.21,1.8,7,7,0,0,0-3.35,1.83,6.94,6.94,0,0,0-1.91,3.74,6.79,6.79,0,0,0-1.85-3.47Zm4.06-17.3.08.11A7.06,7.06,0,0,0-302,451.7a6.94,6.94,0,0,0-2.87,1.7,6.94,6.94,0,0,0-1.79,3.19,7,7,0,0,0-1.65-2.74l-.11-.08-.08-.1a6.77,6.77,0,0,0-3.15-1.77,7,7,0,0,0,3.42-1.86,7,7,0,0,0,1.76-3.09,7,7,0,0,0,1.74,2.95Zm-17.48,3.87-.08-.1a6.83,6.83,0,0,0-3.48-1.86,6.74,6.74,0,0,0,3.74-1.91,6.7,6.7,0,0,0,1.83-3.35,6.93,6.93,0,0,0,1.81,3.22l.1.08a1,1,0,0,1,.08.11,7,7,0,0,0,3.22,1.8,6.7,6.7,0,0,0-3.35,1.83,6.74,6.74,0,0,0-1.91,3.74,6.77,6.77,0,0,0-1.86-3.47A.81.81,0,0,0-322.13,453.85Zm3.87-17.48.08.1a7,7,0,0,0,2.95,1.74,6.89,6.89,0,0,0-3.08,1.76,7,7,0,0,0-1.87,3.42,6.69,6.69,0,0,0-1.77-3.15l-.1-.08-.08-.1a6.79,6.79,0,0,0-3.15-1.78,6.85,6.85,0,0,0,3.42-1.86,7,7,0,0,0,1.76-3.08,7.07,7.07,0,0,0,1.73,3Zm-17.48,3.87a.81.81,0,0,0-.09-.1,6.7,6.7,0,0,0-3-1.72,6.81,6.81,0,0,0,3.46-1.86,6.92,6.92,0,0,0,1.76-3.13,7,7,0,0,0,1.68,2.81l.11.08.08.1a7,7,0,0,0,3.21,1.81,6.71,6.71,0,0,0-3.34,1.83,6.74,6.74,0,0,0-1.91,3.74,6.83,6.83,0,0,0-1.86-3.48Zm4.05-17.29a.81.81,0,0,0,.09.1,6.94,6.94,0,0,0,2.54,1.61,6.94,6.94,0,0,0-2.87,1.7,7,7,0,0,0-1.79,3.2,6.88,6.88,0,0,0-1.65-2.74.81.81,0,0,0-.1-.09.81.81,0,0,1-.09-.1,6.81,6.81,0,0,0-3.15-1.77,6.92,6.92,0,0,0,3.42-1.86,6.88,6.88,0,0,0,1.76-3.09,7,7,0,0,0,1.74,2.95Zm-17.48,3.86-.08-.1a6.78,6.78,0,0,0-3.48-1.85A6.94,6.94,0,0,0-349,423a7,7,0,0,0,1.83-3.35,6.93,6.93,0,0,0,1.8,3.21.81.81,0,0,1,.1.09.81.81,0,0,0,.09.1,6.88,6.88,0,0,0,3.21,1.8,6.86,6.86,0,0,0-3.35,1.83,6.84,6.84,0,0,0-1.91,3.74,6.73,6.73,0,0,0-1.86-3.47A.81.81,0,0,1-349.17,426.81Zm3.87-17.48a1,1,0,0,0,.08.11,7,7,0,0,0,3,1.73,6.9,6.9,0,0,0-3.09,1.77,6.93,6.93,0,0,0-1.86,3.41,6.83,6.83,0,0,0-1.77-3.14l-.11-.09-.08-.1a6.86,6.86,0,0,0-3.15-1.77,7,7,0,0,0,3.42-1.86,6.88,6.88,0,0,0,1.76-3.09,7,7,0,0,0,1.74,2.95Zm-17.48,3.87-.08-.1a6.88,6.88,0,0,0-3-1.72,6.81,6.81,0,0,0,3.46-1.86,6.75,6.75,0,0,0,1.77-3.13A6.69,6.69,0,0,0-359,409.2l.1.08.08.11a6.91,6.91,0,0,0,3.22,1.8,6.78,6.78,0,0,0-3.35,1.83,6.84,6.84,0,0,0-1.91,3.74,6.69,6.69,0,0,0-1.86-3.47Zm4.06-17.29.08.1a7,7,0,0,0,2.54,1.62,6.86,6.86,0,0,0-2.86,1.7,6.82,6.82,0,0,0-1.8,3.19,6.66,6.66,0,0,0-1.65-2.74l-.1-.08-.08-.11a6.91,6.91,0,0,0-3.15-1.77,6.93,6.93,0,0,0,3.41-1.86,6.85,6.85,0,0,0,1.77-3.09,7,7,0,0,0,1.73,3Zm-17.48,3.87a.81.81,0,0,1-.09-.1,6.69,6.69,0,0,0-3.47-1.86,6.84,6.84,0,0,0,3.74-1.91,6.86,6.86,0,0,0,1.83-3.35,6.88,6.88,0,0,0,1.8,3.21.81.81,0,0,0,.1.09.81.81,0,0,1,.09.1,6.93,6.93,0,0,0,3.21,1.8,7,7,0,0,0-3.35,1.83,6.94,6.94,0,0,0-1.91,3.75,6.78,6.78,0,0,0-1.85-3.48Zm3.86-17.48a.81.81,0,0,1,.09.1,7,7,0,0,0,2.95,1.74,6.88,6.88,0,0,0-3.09,1.76,7,7,0,0,0-1.86,3.42,6.81,6.81,0,0,0-1.77-3.15.81.81,0,0,1-.1-.09.81.81,0,0,0-.09-.1,6.83,6.83,0,0,0-3.14-1.77,6.93,6.93,0,0,0,3.41-1.86,6.9,6.9,0,0,0,1.77-3.09,6.9,6.9,0,0,0,1.73,2.95A.81.81,0,0,0-372.34,382.3Zm-17.48,3.87-.08-.11a6.73,6.73,0,0,0-3-1.71,6.84,6.84,0,0,0,3.45-1.87,6.77,6.77,0,0,0,1.77-3.12,6.94,6.94,0,0,0,1.68,2.8.81.81,0,0,0,.1.09l.09.1a6.93,6.93,0,0,0,3.21,1.8,6.9,6.9,0,0,0-3.35,1.83,6.91,6.91,0,0,0-1.91,3.74,6.79,6.79,0,0,0-1.85-3.47Zm4.06-17.3a1,1,0,0,1,.08.11,7.06,7.06,0,0,0,2.55,1.61,6.83,6.83,0,0,0-2.87,1.7,7,7,0,0,0-1.8,3.19,6.72,6.72,0,0,0-1.65-2.74l-.1-.08-.08-.1a6.77,6.77,0,0,0-3.15-1.77,7,7,0,0,0,3.42-1.87,6.89,6.89,0,0,0,1.76-3.08,6.93,6.93,0,0,0,1.74,3Zm-17.48,3.87a.81.81,0,0,0-.09-.1,6.77,6.77,0,0,0-3.47-1.86,6.74,6.74,0,0,0,3.74-1.91,6.7,6.7,0,0,0,1.83-3.35,6.93,6.93,0,0,0,1.81,3.22l.1.08.08.1a6.93,6.93,0,0,0,3.22,1.81,6.7,6.7,0,0,0-3.35,1.83,6.74,6.74,0,0,0-1.91,3.74,6.77,6.77,0,0,0-1.86-3.47A.81.81,0,0,0-403.24,372.74Zm3.87-17.48.08.1a6.93,6.93,0,0,0,3,1.74,6.89,6.89,0,0,0-3.08,1.76,7,7,0,0,0-1.87,3.42,6.77,6.77,0,0,0-1.77-3.15l-.1-.08a1,1,0,0,1-.08-.11,6.86,6.86,0,0,0-3.15-1.77,6.85,6.85,0,0,0,3.42-1.86,7,7,0,0,0,1.76-3.08,7.07,7.07,0,0,0,1.73,2.95Zm-17.48,3.87a.81.81,0,0,0-.09-.1,6.61,6.61,0,0,0-3-1.72,6.85,6.85,0,0,0,3.46-1.86,6.92,6.92,0,0,0,1.76-3.13,7,7,0,0,0,1.68,2.81l.11.08.08.1a6.84,6.84,0,0,0,3.21,1.8,7,7,0,0,0-3.35,1.83,6.85,6.85,0,0,0-1.9,3.75,6.79,6.79,0,0,0-1.86-3.48Zm4.05-17.29a.81.81,0,0,0,.09.1,6.94,6.94,0,0,0,2.54,1.61,6.94,6.94,0,0,0-2.87,1.7,7,7,0,0,0-1.79,3.2,6.88,6.88,0,0,0-1.65-2.74.81.81,0,0,0-.1-.09.81.81,0,0,1-.09-.1,6.81,6.81,0,0,0-3.15-1.77,7,7,0,0,0,3.42-1.86,6.88,6.88,0,0,0,1.76-3.09,7,7,0,0,0,1.74,2.95A.81.81,0,0,1-412.8,341.84Zm-17.48,3.86-.08-.1a6.78,6.78,0,0,0-3.48-1.85,6.94,6.94,0,0,0,3.75-1.91,7,7,0,0,0,1.83-3.35,6.93,6.93,0,0,0,1.8,3.21l.1.08a.48.48,0,0,0,.09.11,6.83,6.83,0,0,0,3.21,1.8,6.86,6.86,0,0,0-3.35,1.83,6.84,6.84,0,0,0-1.91,3.74,6.69,6.69,0,0,0-1.86-3.47A.81.81,0,0,1-430.28,345.7Zm3.87-17.48.08.11a7,7,0,0,0,3,1.73,6.85,6.85,0,0,0-3.09,1.77,6.93,6.93,0,0,0-1.86,3.41,6.91,6.91,0,0,0-1.77-3.15l-.11-.08-.08-.1a6.77,6.77,0,0,0-3.15-1.77,7,7,0,0,0,3.42-1.86,7,7,0,0,0,1.76-3.09,7,7,0,0,0,1.74,2.95Zm-17.48,3.87-.08-.1a6.88,6.88,0,0,0-3-1.72,6.81,6.81,0,0,0,3.46-1.86,6.8,6.8,0,0,0,1.77-3.13,6.69,6.69,0,0,0,1.68,2.81l.1.08.08.11a6.91,6.91,0,0,0,3.22,1.8,6.7,6.7,0,0,0-3.35,1.83,6.81,6.81,0,0,0-1.91,3.74,6.69,6.69,0,0,0-1.86-3.47A.81.81,0,0,0-443.89,332.09Zm4.05-17.29a.81.81,0,0,1,.09.1,7,7,0,0,0,2.54,1.62,6.88,6.88,0,0,0-2.86,1.69,6.9,6.9,0,0,0-1.8,3.2,6.77,6.77,0,0,0-1.65-2.74l-.1-.08a.48.48,0,0,0-.09-.11,6.83,6.83,0,0,0-3.14-1.77,6.93,6.93,0,0,0,3.41-1.86,6.9,6.9,0,0,0,1.77-3.09,7,7,0,0,0,1.73,3Zm-17.48,3.87a1,1,0,0,1-.08-.11,6.79,6.79,0,0,0-3.47-1.85,6.84,6.84,0,0,0,3.74-1.91,6.9,6.9,0,0,0,1.83-3.35,6.88,6.88,0,0,0,1.8,3.21.81.81,0,0,0,.1.09.81.81,0,0,1,.09.1,6.93,6.93,0,0,0,3.21,1.8,7,7,0,0,0-3.35,1.83,6.94,6.94,0,0,0-1.91,3.75,6.78,6.78,0,0,0-1.85-3.48Zm3.87-17.48.09.1a7,7,0,0,0,2.95,1.74,6.88,6.88,0,0,0-3.09,1.76,6.92,6.92,0,0,0-1.86,3.42,6.81,6.81,0,0,0-1.77-3.15l-.1-.09-.09-.1a6.83,6.83,0,0,0-3.14-1.77,6.93,6.93,0,0,0,3.41-1.86,6.9,6.9,0,0,0,1.77-3.09,6.9,6.9,0,0,0,1.73,3A.81.81,0,0,0-453.45,301.19Zm-17.48,3.87L-471,305a6.73,6.73,0,0,0-3-1.71,6.84,6.84,0,0,0,3.45-1.87,6.77,6.77,0,0,0,1.77-3.12,6.94,6.94,0,0,0,1.68,2.8l.1.09a.81.81,0,0,0,.09.1,6.88,6.88,0,0,0,3.21,1.8,6.9,6.9,0,0,0-3.35,1.83,6.84,6.84,0,0,0-1.91,3.74,6.79,6.79,0,0,0-1.85-3.47Zm4.06-17.3.08.1a7,7,0,0,0,2.55,1.62,6.83,6.83,0,0,0-2.87,1.7,6.91,6.91,0,0,0-1.8,3.19,6.72,6.72,0,0,0-1.65-2.74l-.1-.08-.08-.1a6.69,6.69,0,0,0-3.15-1.77,7,7,0,0,0,3.42-1.87,6.89,6.89,0,0,0,1.76-3.08,7,7,0,0,0,1.74,2.95Zm-17.48,3.87a.81.81,0,0,0-.09-.1,6.69,6.69,0,0,0-3.47-1.86,6.74,6.74,0,0,0,3.74-1.91,6.7,6.7,0,0,0,1.83-3.35,6.91,6.91,0,0,0,1.8,3.22l.11.08.08.1a7,7,0,0,0,3.21,1.81,6.71,6.71,0,0,0-3.34,1.83,6.74,6.74,0,0,0-1.91,3.74,6.83,6.83,0,0,0-1.86-3.48Zm3.87-17.48.08.1a7,7,0,0,0,2.95,1.74,7,7,0,0,0-3.09,1.76,7,7,0,0,0-1.86,3.42,6.77,6.77,0,0,0-1.77-3.15l-.1-.08-.08-.11a6.91,6.91,0,0,0-3.15-1.77,6.78,6.78,0,0,0,3.41-1.86,6.87,6.87,0,0,0,1.77-3.08,7.07,7.07,0,0,0,1.73,2.95Zm13.5-13.5.09.1a7.12,7.12,0,0,0,2.41,1.59A7.14,7.14,0,0,0-467,264a7.15,7.15,0,0,0-1.74,2.84,7,7,0,0,0-1.62-2.57.48.48,0,0,0-.11-.09l-.08-.1a7.14,7.14,0,0,0-2.58-1.63,7,7,0,0,0,2.85-1.74,7,7,0,0,0,1.63-2.54,7.3,7.3,0,0,0,1.6,2.41Zm.05,13.56.09.1a7.15,7.15,0,0,0,2.66,1.67,7,7,0,0,0-2.79,1.69,7,7,0,0,0-1.8,3.15,6.87,6.87,0,0,0-1.7-2.88l-.11-.08a1,1,0,0,0-.08-.11,6.84,6.84,0,0,0-2.89-1.7,7,7,0,0,0,3.16-1.8,7,7,0,0,0,1.69-2.79,7.15,7.15,0,0,0,1.67,2.66Zm13.56.05.09.1a7.39,7.39,0,0,0,2.1,1.45,7.16,7.16,0,0,0-2.42,1.59,7.32,7.32,0,0,0-1.69,2.69,6.93,6.93,0,0,0-1.49-2.23l-.1-.09-.09-.1a7,7,0,0,0-2.58-1.62,7.26,7.26,0,0,0,2.85-1.74,7.14,7.14,0,0,0,1.64-2.55,7.12,7.12,0,0,0,1.59,2.41Zm-.13,13.37a.81.81,0,0,0,.09.1,7.1,7.1,0,0,0,2.66,1.68,7,7,0,0,0-2.8,1.69,7,7,0,0,0-1.79,3.15,7.1,7.1,0,0,0-1.71-2.89l-.1-.08-.08-.1a7,7,0,0,0-2.48-1.59,6.9,6.9,0,0,0,2.93-1.73,7,7,0,0,0,1.64-2.62,7.1,7.1,0,0,0,1.54,2.3A.43.43,0,0,0-453.5,287.63Zm13.56.05a.43.43,0,0,0,.09.1,7.21,7.21,0,0,0,2.4,1.6A7.19,7.19,0,0,0-440,291a7,7,0,0,0-1.74,2.84,7,7,0,0,0-1.63-2.58l-.1-.08-.08-.1a7,7,0,0,0-2.58-1.63,7.14,7.14,0,0,0,2.85-1.74,7.31,7.31,0,0,0,1.63-2.54,7.52,7.52,0,0,0,1.6,2.41Zm.05,13.56.09.1a7.1,7.1,0,0,0,2.66,1.68,7,7,0,0,0-2.8,1.69,7,7,0,0,0-1.79,3.15,6.89,6.89,0,0,0-1.71-2.88.81.81,0,0,0-.1-.09l-.08-.1a7.1,7.1,0,0,0-2.89-1.71,7,7,0,0,0,3.15-1.79,6.85,6.85,0,0,0,1.69-2.8,7.14,7.14,0,0,0,1.68,2.67Zm13.56.06.09.09a7.1,7.1,0,0,0,2.1,1.46,7.07,7.07,0,0,0-2.42,1.59,7.08,7.08,0,0,0-1.69,2.68,6.93,6.93,0,0,0-1.49-2.23l-.11-.08-.08-.1a7,7,0,0,0-2.58-1.63,7.14,7.14,0,0,0,2.85-1.74A7.13,7.13,0,0,0-428,298.8a7.3,7.3,0,0,0,1.6,2.41A.81.81,0,0,1-426.33,301.3Zm-.14,13.37.09.1a7.15,7.15,0,0,0,2.66,1.67,7,7,0,0,0-2.79,1.69,7,7,0,0,0-1.8,3.16,6.84,6.84,0,0,0-1.7-2.89l-.1-.08-.09-.11a6.9,6.9,0,0,0-2.48-1.58,7,7,0,0,0,2.94-1.73,7,7,0,0,0,1.63-2.62,7.13,7.13,0,0,0,1.55,2.3Zm13.56.05.09.1a7.3,7.3,0,0,0,2.41,1.6,7.13,7.13,0,0,0-2.54,1.63,7,7,0,0,0-1.74,2.85,7.14,7.14,0,0,0-1.63-2.58l-.1-.08a.48.48,0,0,0-.09-.11,7,7,0,0,0-2.57-1.62,7.15,7.15,0,0,0,2.84-1.74,7.14,7.14,0,0,0,1.64-2.55,7,7,0,0,0,1.6,2.41Zm.05,13.56a.81.81,0,0,1,.09.1,7.18,7.18,0,0,0,2.66,1.68,7,7,0,0,0-2.79,1.68,7,7,0,0,0-1.8,3.16,6.9,6.9,0,0,0-1.7-2.89l-.1-.08a.81.81,0,0,0-.09-.1,6.89,6.89,0,0,0-2.88-1.71,7,7,0,0,0,3.15-1.79,7,7,0,0,0,1.69-2.8,7.1,7.1,0,0,0,1.68,2.66Zm13.57.05.08.1a7.23,7.23,0,0,0,2.1,1.46,7.11,7.11,0,0,0-2.42,1.59,7.05,7.05,0,0,0-1.68,2.68,7.12,7.12,0,0,0-1.5-2.23l-.1-.08-.08-.11a7.07,7.07,0,0,0-2.58-1.62,7,7,0,0,0,2.84-1.74,7.19,7.19,0,0,0,1.64-2.54,7.21,7.21,0,0,0,1.6,2.4A.43.43,0,0,0-399.29,328.33Zm-.14,13.38.09.09a7.18,7.18,0,0,0,2.66,1.68,7.07,7.07,0,0,0-2.8,1.69,7,7,0,0,0-1.79,3.15,6.87,6.87,0,0,0-1.7-2.88.48.48,0,0,1-.11-.09l-.08-.1a7.07,7.07,0,0,0-2.48-1.58,7,7,0,0,0,2.93-1.73,7,7,0,0,0,1.64-2.62,7.21,7.21,0,0,0,1.54,2.3Zm13.56.05.09.1a7.12,7.12,0,0,0,2.41,1.59,7.14,7.14,0,0,0-2.55,1.64,7.22,7.22,0,0,0-1.74,2.84,7,7,0,0,0-1.62-2.57.81.81,0,0,0-.1-.09.81.81,0,0,1-.09-.1,7,7,0,0,0-2.58-1.62,7.17,7.17,0,0,0,2.85-1.75,6.86,6.86,0,0,0,1.63-2.54,7.3,7.3,0,0,0,1.6,2.41Zm.05,13.56.09.1a7.15,7.15,0,0,0,2.66,1.67,7,7,0,0,0-2.79,1.69,7,7,0,0,0-1.8,3.15,6.87,6.87,0,0,0-1.7-2.88l-.11-.08a1,1,0,0,0-.08-.11,6.87,6.87,0,0,0-2.88-1.7,7,7,0,0,0,3.15-1.8,7,7,0,0,0,1.69-2.79,7.15,7.15,0,0,0,1.67,2.66Zm13.56.05.09.1a7.39,7.39,0,0,0,2.1,1.45,7.16,7.16,0,0,0-2.42,1.59,7.16,7.16,0,0,0-1.68,2.69,7.12,7.12,0,0,0-1.5-2.23.81.81,0,0,1-.1-.09.81.81,0,0,0-.09-.1,7,7,0,0,0-2.57-1.62,7.22,7.22,0,0,0,2.84-1.74,7.14,7.14,0,0,0,1.64-2.55,7.12,7.12,0,0,0,1.59,2.41Zm-.13,13.37a.43.43,0,0,0,.09.1,7.1,7.1,0,0,0,2.66,1.68,7,7,0,0,0-2.8,1.69,7,7,0,0,0-1.79,3.15,7,7,0,0,0-1.71-2.89l-.1-.08-.08-.1a7,7,0,0,0-2.48-1.59,7,7,0,0,0,2.93-1.72,7.09,7.09,0,0,0,1.64-2.63,7.1,7.1,0,0,0,1.54,2.3A.81.81,0,0,0-372.39,368.74Zm13.61,13.61.09.1a7.1,7.1,0,0,0,2.66,1.68,7,7,0,0,0-2.8,1.69,7,7,0,0,0-1.79,3.15,6.89,6.89,0,0,0-1.71-2.88.81.81,0,0,0-.1-.09l-.08-.1a7,7,0,0,0-2.89-1.7,7,7,0,0,0,3.15-1.8,6.85,6.85,0,0,0,1.69-2.8,7.14,7.14,0,0,0,1.68,2.67Zm13.56.06.09.09A7.1,7.1,0,0,0-343,384a7.16,7.16,0,0,0-2.42,1.59,7.08,7.08,0,0,0-1.69,2.68,7,7,0,0,0-1.49-2.23l-.11-.08-.08-.1a7,7,0,0,0-2.58-1.63,7.14,7.14,0,0,0,2.85-1.74,7.13,7.13,0,0,0,1.63-2.54,7.3,7.3,0,0,0,1.6,2.41Zm-.14,13.37.09.1a7,7,0,0,0,2.66,1.67,7,7,0,0,0-2.79,1.69,7,7,0,0,0-1.8,3.16,6.84,6.84,0,0,0-1.7-2.89l-.1-.08-.09-.1a6.79,6.79,0,0,0-2.48-1.59,7,7,0,0,0,2.94-1.73,7,7,0,0,0,1.63-2.62,7.13,7.13,0,0,0,1.55,2.3Zm13.56.05.09.1a7.3,7.3,0,0,0,2.41,1.6,7.13,7.13,0,0,0-2.54,1.63,7.14,7.14,0,0,0-1.74,2.85,7,7,0,0,0-1.63-2.58l-.1-.08-.08-.11a7.07,7.07,0,0,0-2.58-1.62,7.15,7.15,0,0,0,2.84-1.74,7.14,7.14,0,0,0,1.64-2.55,7.15,7.15,0,0,0,1.6,2.41Zm.06,13.56.08.1a7.14,7.14,0,0,0,2.67,1.68,6.85,6.85,0,0,0-2.8,1.69,7,7,0,0,0-1.8,3.15,6.9,6.9,0,0,0-1.7-2.89l-.1-.08a.81.81,0,0,0-.09-.1,6.89,6.89,0,0,0-2.88-1.71,7,7,0,0,0,3.15-1.79,7,7,0,0,0,1.69-2.8,7.1,7.1,0,0,0,1.68,2.66Zm13.56.05.08.1A7.23,7.23,0,0,0-316,411a7.11,7.11,0,0,0-2.42,1.59,7.05,7.05,0,0,0-1.68,2.68,7.12,7.12,0,0,0-1.5-2.23l-.1-.08-.08-.1a7,7,0,0,0-2.58-1.63,7,7,0,0,0,2.84-1.74,7.19,7.19,0,0,0,1.64-2.54,7.21,7.21,0,0,0,1.6,2.4A.43.43,0,0,0-318.18,409.44Zm-.14,13.38.09.09a7.05,7.05,0,0,0,2.66,1.68,7.14,7.14,0,0,0-2.8,1.69,7,7,0,0,0-1.79,3.15,6.87,6.87,0,0,0-1.7-2.88l-.11-.09-.08-.1a7.07,7.07,0,0,0-2.48-1.58,6.94,6.94,0,0,0,2.93-1.73,7,7,0,0,0,1.64-2.62,7.21,7.21,0,0,0,1.54,2.3Zm13.56.05.09.1a7.12,7.12,0,0,0,2.41,1.59,7.14,7.14,0,0,0-2.55,1.64,7.26,7.26,0,0,0-1.74,2.85,7,7,0,0,0-1.62-2.58.81.81,0,0,0-.1-.09.81.81,0,0,1-.09-.1,7,7,0,0,0-2.58-1.62,7.17,7.17,0,0,0,2.85-1.75,7,7,0,0,0,1.64-2.54,7.12,7.12,0,0,0,1.59,2.41Zm.05,13.56.09.1A7.15,7.15,0,0,0-302,438.2a7,7,0,0,0-2.79,1.69,7,7,0,0,0-1.8,3.15,6.87,6.87,0,0,0-1.7-2.88l-.11-.08-.08-.11a6.87,6.87,0,0,0-2.88-1.7,7,7,0,0,0,3.15-1.8,7,7,0,0,0,1.69-2.79,7.15,7.15,0,0,0,1.67,2.66Zm13.56.05.09.1A7.39,7.39,0,0,0-289,438a7.16,7.16,0,0,0-2.42,1.59,7.16,7.16,0,0,0-1.68,2.69,7.12,7.12,0,0,0-1.5-2.23.81.81,0,0,1-.1-.09.81.81,0,0,0-.09-.1,7,7,0,0,0-2.57-1.62,7.15,7.15,0,0,0,2.84-1.74,7.14,7.14,0,0,0,1.64-2.55,7.12,7.12,0,0,0,1.59,2.41Zm-.13,13.37a.43.43,0,0,0,.09.1,7.1,7.1,0,0,0,2.66,1.68,7,7,0,0,0-2.8,1.69,7,7,0,0,0-1.79,3.15,6.89,6.89,0,0,0-1.71-2.88.81.81,0,0,0-.1-.09l-.08-.1a6.8,6.8,0,0,0-2.48-1.58,7.11,7.11,0,0,0,2.93-1.73,7.14,7.14,0,0,0,1.64-2.62,7.32,7.32,0,0,0,1.54,2.3Zm13.56.06a.76.76,0,0,0,.09.09,7.15,7.15,0,0,0,2.41,1.6,7.14,7.14,0,0,0-2.55,1.64,7,7,0,0,0-1.74,2.84,7.07,7.07,0,0,0-1.62-2.58l-.11-.08-.08-.1a7,7,0,0,0-2.58-1.63A7.14,7.14,0,0,0-281,450a7.21,7.21,0,0,0,1.63-2.54,7.41,7.41,0,0,0,1.6,2.41A.81.81,0,0,1-277.72,449.91Zm.05,13.56.09.09a7.1,7.1,0,0,0,2.66,1.68,7,7,0,0,0-2.8,1.69,7,7,0,0,0-1.79,3.15,6.89,6.89,0,0,0-1.71-2.88l-.1-.09-.08-.1a6.9,6.9,0,0,0-2.89-1.7,7.1,7.1,0,0,0,3.16-1.8,7,7,0,0,0,1.68-2.79,7.18,7.18,0,0,0,1.68,2.66A.81.81,0,0,1-277.67,463.47Zm13.56,0,.09.09a7.1,7.1,0,0,0,2.1,1.46,7.16,7.16,0,0,0-2.42,1.59,7.15,7.15,0,0,0-1.69,2.68,6.89,6.89,0,0,0-1.49-2.22.48.48,0,0,0-.11-.09l-.08-.1a7.14,7.14,0,0,0-2.58-1.63,7,7,0,0,0,2.85-1.74,7,7,0,0,0,1.63-2.54,7.3,7.3,0,0,0,1.6,2.41Zm-.14,13.37a.81.81,0,0,1,.09.1,7,7,0,0,0,2.66,1.67,7,7,0,0,0-2.79,1.69,7,7,0,0,0-1.8,3.16,6.9,6.9,0,0,0-1.7-2.89l-.1-.08-.09-.1a6.84,6.84,0,0,0-2.47-1.59,7,7,0,0,0,2.93-1.73,7,7,0,0,0,1.63-2.62,7.13,7.13,0,0,0,1.55,2.3Zm13.56.05a.81.81,0,0,1,.09.1,7.41,7.41,0,0,0,2.41,1.6,7.21,7.21,0,0,0-2.54,1.63,7.14,7.14,0,0,0-1.74,2.85,7,7,0,0,0-1.63-2.58l-.1-.08-.08-.11a7.07,7.07,0,0,0-2.58-1.62A7.15,7.15,0,0,0-254,477a7.14,7.14,0,0,0,1.64-2.55,7.15,7.15,0,0,0,1.6,2.41Zm.06,13.56.08.1a7.14,7.14,0,0,0,2.67,1.68,7,7,0,0,0-2.8,1.69,7,7,0,0,0-1.79,3.15,7.1,7.1,0,0,0-1.71-2.89l-.1-.08a.81.81,0,0,0-.09-.1,6.89,6.89,0,0,0-2.88-1.71,7,7,0,0,0,3.15-1.79,7,7,0,0,0,1.69-2.8,7.1,7.1,0,0,0,1.68,2.66A.43.43,0,0,0-250.63,490.5Zm13.56.05.08.1a7.23,7.23,0,0,0,2.1,1.46,7.26,7.26,0,0,0-2.42,1.59,7.05,7.05,0,0,0-1.68,2.68,7.12,7.12,0,0,0-1.5-2.23l-.1-.08-.08-.1a7,7,0,0,0-2.58-1.63,7.14,7.14,0,0,0,2.85-1.74,7.31,7.31,0,0,0,1.63-2.54,7.52,7.52,0,0,0,1.6,2.41Zm-.14,13.38.09.1a7.15,7.15,0,0,0,2.66,1.67,7,7,0,0,0-2.79,1.69,7,7,0,0,0-1.8,3.15,6.87,6.87,0,0,0-1.7-2.88l-.11-.08a1,1,0,0,0-.08-.11,7.07,7.07,0,0,0-2.48-1.58,6.94,6.94,0,0,0,2.93-1.73,7,7,0,0,0,1.64-2.62,7.21,7.21,0,0,0,1.54,2.3Zm13.61,13.61.09.1a7.15,7.15,0,0,0,2.66,1.67,7,7,0,0,0-2.79,1.69,7,7,0,0,0-1.8,3.16,6.84,6.84,0,0,0-1.7-2.89l-.1-.08-.09-.11a6.87,6.87,0,0,0-2.88-1.7,7,7,0,0,0,3.15-1.8,7,7,0,0,0,1.69-2.79,7.05,7.05,0,0,0,1.68,2.66Zm13.56.05.09.1a7.39,7.39,0,0,0,2.1,1.45,7,7,0,0,0-2.42,1.6,7.05,7.05,0,0,0-1.68,2.68,7.12,7.12,0,0,0-1.5-2.23l-.1-.08a.48.48,0,0,0-.09-.11,7,7,0,0,0-2.57-1.62,7.15,7.15,0,0,0,2.84-1.74,7.14,7.14,0,0,0,1.64-2.55,7,7,0,0,0,1.6,2.41Zm-.13,13.37.09.1a7.1,7.1,0,0,0,2.66,1.68,7,7,0,0,0-2.8,1.69,7,7,0,0,0-1.79,3.15,6.89,6.89,0,0,0-1.71-2.88.81.81,0,0,0-.1-.09l-.08-.1a6.94,6.94,0,0,0-2.48-1.58,7.11,7.11,0,0,0,2.93-1.73,7,7,0,0,0,1.64-2.62,7.21,7.21,0,0,0,1.54,2.3Zm13.56.06.09.09a7.15,7.15,0,0,0,2.41,1.6,7.14,7.14,0,0,0-2.55,1.64,7.15,7.15,0,0,0-1.74,2.84,7.07,7.07,0,0,0-1.62-2.58l-.11-.08-.08-.1a7,7,0,0,0-2.58-1.63,7.14,7.14,0,0,0,2.85-1.74,7.13,7.13,0,0,0,1.63-2.54,7.3,7.3,0,0,0,1.6,2.41A.81.81,0,0,1-196.61,531Zm.05,13.56.09.09a7.18,7.18,0,0,0,2.66,1.68,7.07,7.07,0,0,0-2.8,1.69,7,7,0,0,0-1.79,3.15,6.89,6.89,0,0,0-1.71-2.88l-.1-.09-.08-.1a6.84,6.84,0,0,0-2.89-1.7,7,7,0,0,0,3.16-1.8,7,7,0,0,0,1.69-2.79,7,7,0,0,0,1.67,2.66Zm13.56,0,.09.1a7.25,7.25,0,0,0,2.1,1.45,7.16,7.16,0,0,0-2.42,1.59,7.15,7.15,0,0,0-1.69,2.68,7,7,0,0,0-1.49-2.22.81.81,0,0,0-.1-.09.81.81,0,0,1-.09-.1,7.14,7.14,0,0,0-2.58-1.63,7,7,0,0,0,2.85-1.74,7,7,0,0,0,1.63-2.54,7.3,7.3,0,0,0,1.6,2.41Zm-.13,13.37.08.1a7.18,7.18,0,0,0,2.66,1.68,7,7,0,0,0-2.79,1.68,7,7,0,0,0-1.8,3.16,6.9,6.9,0,0,0-1.7-2.89l-.1-.08a.81.81,0,0,0-.09-.1,6.84,6.84,0,0,0-2.47-1.59,7,7,0,0,0,2.93-1.73,7.1,7.1,0,0,0,1.64-2.62,7.1,7.1,0,0,0,1.54,2.3Zm13.56,0,.08.1a7.41,7.41,0,0,0,2.41,1.6,7.21,7.21,0,0,0-2.54,1.63,7.14,7.14,0,0,0-1.74,2.85,6.88,6.88,0,0,0-1.63-2.58l-.1-.08-.08-.11a7.07,7.07,0,0,0-2.58-1.62,7,7,0,0,0,2.84-1.74,7.19,7.19,0,0,0,1.64-2.54,7.21,7.21,0,0,0,1.6,2.4A.43.43,0,0,0-169.57,558.05Zm0,13.56a.81.81,0,0,0,.09.1,7.1,7.1,0,0,0,2.66,1.68,7,7,0,0,0-2.8,1.69,7,7,0,0,0-1.79,3.15,7.1,7.1,0,0,0-1.71-2.89l-.1-.08-.08-.1a7,7,0,0,0-2.89-1.71,7,7,0,0,0,3.15-1.79,7,7,0,0,0,1.69-2.8,7.1,7.1,0,0,0,1.68,2.66A.43.43,0,0,0-169.52,571.61Zm13.56,0a.43.43,0,0,0,.09.1,7.18,7.18,0,0,0,2.09,1.46,7.26,7.26,0,0,0-2.42,1.59,7.17,7.17,0,0,0-1.68,2.68,7,7,0,0,0-1.5-2.23l-.1-.08-.08-.1a7,7,0,0,0-2.58-1.63,7.14,7.14,0,0,0,2.85-1.74,7.21,7.21,0,0,0,1.63-2.54,7.52,7.52,0,0,0,1.6,2.41ZM-156.1,585l.09.1a7.15,7.15,0,0,0,2.66,1.67,7,7,0,0,0-2.79,1.69,7,7,0,0,0-1.8,3.15,6.87,6.87,0,0,0-1.7-2.88l-.11-.08-.08-.11a7.07,7.07,0,0,0-2.48-1.58,6.94,6.94,0,0,0,2.93-1.73,6.93,6.93,0,0,0,1.64-2.62,7.1,7.1,0,0,0,1.54,2.3Zm13.56.05.09.1a7.3,7.3,0,0,0,2.41,1.6,6.86,6.86,0,0,0-2.54,1.63,7.17,7.17,0,0,0-1.75,2.85,7,7,0,0,0-1.62-2.58.81.81,0,0,1-.1-.09.81.81,0,0,0-.09-.1,7,7,0,0,0-2.57-1.62,7.22,7.22,0,0,0,2.84-1.74,7.14,7.14,0,0,0,1.64-2.55,7.12,7.12,0,0,0,1.59,2.41Zm0,13.56.09.1a7.15,7.15,0,0,0,2.66,1.67,7,7,0,0,0-2.79,1.69,7,7,0,0,0-1.8,3.16,6.84,6.84,0,0,0-1.7-2.89l-.1-.08-.09-.11a6.87,6.87,0,0,0-2.88-1.7,7,7,0,0,0,3.15-1.79,7.14,7.14,0,0,0,1.69-2.8,7.05,7.05,0,0,0,1.68,2.66Zm13.56.05.09.1a7.39,7.39,0,0,0,2.1,1.45,7,7,0,0,0-2.42,1.6,7.05,7.05,0,0,0-1.68,2.68,7.12,7.12,0,0,0-1.5-2.23l-.1-.08-.08-.11a7.07,7.07,0,0,0-2.58-1.62,7.15,7.15,0,0,0,2.84-1.74,7.14,7.14,0,0,0,1.64-2.55,7,7,0,0,0,1.6,2.41Zm-.13,13.37.09.1a7.1,7.1,0,0,0,2.66,1.68,7,7,0,0,0-2.8,1.69,7,7,0,0,0-1.79,3.15,6.89,6.89,0,0,0-1.71-2.88.81.81,0,0,0-.1-.09l-.08-.1a6.94,6.94,0,0,0-2.48-1.58,7.11,7.11,0,0,0,2.93-1.73,7,7,0,0,0,1.64-2.62,7.21,7.21,0,0,0,1.54,2.3Zm13.56.06.09.09a7,7,0,0,0,2.41,1.6,7.14,7.14,0,0,0-2.55,1.64,7.15,7.15,0,0,0-1.74,2.84,7.07,7.07,0,0,0-1.62-2.58l-.11-.08-.08-.1a7.14,7.14,0,0,0-2.58-1.63,7,7,0,0,0,2.85-1.74,7.13,7.13,0,0,0,1.63-2.54,7.3,7.3,0,0,0,1.6,2.41Zm0,13.56.09.09a7.05,7.05,0,0,0,2.66,1.68,7.14,7.14,0,0,0-2.8,1.69,7,7,0,0,0-1.79,3.15,6.87,6.87,0,0,0-1.7-2.88l-.11-.09-.08-.1a6.84,6.84,0,0,0-2.89-1.7,7,7,0,0,0,3.16-1.8,7,7,0,0,0,1.69-2.79,7.15,7.15,0,0,0,1.67,2.66Zm13.56,0,.09.1a7.25,7.25,0,0,0,2.1,1.45,7.16,7.16,0,0,0-2.42,1.59,7.19,7.19,0,0,0-1.69,2.69,6.93,6.93,0,0,0-1.49-2.23.81.81,0,0,0-.1-.09.81.81,0,0,1-.09-.1,7,7,0,0,0-2.58-1.62,7.17,7.17,0,0,0,2.85-1.75,6.86,6.86,0,0,0,1.63-2.54,7.3,7.3,0,0,0,1.6,2.41Zm-.13,13.37.08.1a7.14,7.14,0,0,0,2.67,1.68,6.85,6.85,0,0,0-2.8,1.69,7,7,0,0,0-1.8,3.15,7,7,0,0,0-1.7-2.89l-.1-.08a.81.81,0,0,0-.09-.1,6.84,6.84,0,0,0-2.47-1.59,6.9,6.9,0,0,0,2.93-1.73,7.1,7.1,0,0,0,1.64-2.62,7.1,7.1,0,0,0,1.54,2.3Zm13.61,13.61a.43.43,0,0,0,.09.1,7.1,7.1,0,0,0,2.66,1.68,7,7,0,0,0-2.8,1.69,7,7,0,0,0-1.79,3.15A7,7,0,0,0-92,656.45l-.1-.08-.08-.1A7.1,7.1,0,0,0-95,654.56a7,7,0,0,0,3.15-1.79,7,7,0,0,0,1.69-2.8,7.1,7.1,0,0,0,1.68,2.66A.81.81,0,0,0-88.41,652.72Zm13.56,0a.43.43,0,0,0,.09.1,7.1,7.1,0,0,0,2.1,1.46,7.2,7.2,0,0,0-2.43,1.59,7.17,7.17,0,0,0-1.68,2.68,7.09,7.09,0,0,0-1.49-2.23l-.11-.08-.08-.1A6.88,6.88,0,0,0-81,654.56a7.14,7.14,0,0,0,2.85-1.74,7.21,7.21,0,0,0,1.63-2.54,7.41,7.41,0,0,0,1.6,2.41ZM-75,666.15l.09.1a7.15,7.15,0,0,0,2.66,1.67A7,7,0,0,0-75,669.61a7,7,0,0,0-1.8,3.15,6.87,6.87,0,0,0-1.7-2.88l-.11-.08-.08-.11a6.9,6.9,0,0,0-2.48-1.58,7,7,0,0,0,2.94-1.73,7,7,0,0,0,1.63-2.62,7.1,7.1,0,0,0,1.54,2.3Zm13.56.05.09.1a7.3,7.3,0,0,0,2.41,1.6,7,7,0,0,0-2.54,1.63,7,7,0,0,0-1.74,2.85,7.14,7.14,0,0,0-1.63-2.58.81.81,0,0,1-.1-.09.81.81,0,0,0-.09-.1A7,7,0,0,0-67.6,668a7.15,7.15,0,0,0,2.84-1.74,7.14,7.14,0,0,0,1.64-2.55,7.12,7.12,0,0,0,1.59,2.41Zm0,13.56.09.1a7,7,0,0,0,2.66,1.67,7,7,0,0,0-2.79,1.69,7,7,0,0,0-1.8,3.16,6.84,6.84,0,0,0-1.7-2.89l-.1-.08-.09-.1A6.79,6.79,0,0,0-68,681.6a7,7,0,0,0,3.15-1.79,7.07,7.07,0,0,0,1.69-2.8,7.18,7.18,0,0,0,1.68,2.66Zm13.56,0,.09.1a7.19,7.19,0,0,0,2.1,1.45A7,7,0,0,0-48,683a7.05,7.05,0,0,0-1.68,2.68,7.12,7.12,0,0,0-1.5-2.23l-.1-.08-.08-.11A7.07,7.07,0,0,0-54,681.6a7.15,7.15,0,0,0,2.84-1.74,7.14,7.14,0,0,0,1.64-2.55,7.15,7.15,0,0,0,1.6,2.41Zm-.13,13.38.09.09A7.1,7.1,0,0,0-45.2,695a7,7,0,0,0-2.8,1.69,7,7,0,0,0-1.79,3.15,6.89,6.89,0,0,0-1.71-2.88l-.1-.09-.08-.1a6.94,6.94,0,0,0-2.48-1.58,7,7,0,0,0,2.93-1.73,7,7,0,0,0,1.64-2.62A7.21,7.21,0,0,0-48,693.1.81.81,0,0,1-47.95,693.19Zm13.56,0,.09.09a7,7,0,0,0,2.41,1.6,7.14,7.14,0,0,0-2.55,1.64,7.15,7.15,0,0,0-1.74,2.84,7,7,0,0,0-1.62-2.57.48.48,0,0,0-.11-.09l-.08-.1A7.14,7.14,0,0,0-40.57,695a7,7,0,0,0,2.85-1.74,7,7,0,0,0,1.63-2.54,7.3,7.3,0,0,0,1.6,2.41Zm0,13.56.09.1a7.15,7.15,0,0,0,2.66,1.67,7,7,0,0,0-2.79,1.69,7,7,0,0,0-1.8,3.15,6.87,6.87,0,0,0-1.7-2.88l-.11-.09-.08-.1a6.84,6.84,0,0,0-2.89-1.7,7,7,0,0,0,3.16-1.8,7,7,0,0,0,1.69-2.79,7.15,7.15,0,0,0,1.67,2.66Zm13.56.05.09.1a7.39,7.39,0,0,0,2.1,1.45A7.16,7.16,0,0,0-21,710a7.32,7.32,0,0,0-1.69,2.69,6.93,6.93,0,0,0-1.49-2.23l-.1-.09-.09-.1A7,7,0,0,0-27,708.64a7.26,7.26,0,0,0,2.85-1.74,7.14,7.14,0,0,0,1.64-2.55,7.12,7.12,0,0,0,1.59,2.41Zm-.13,13.37.08.1A7.14,7.14,0,0,0-18.16,722a7,7,0,0,0-2.8,1.69,7,7,0,0,0-1.79,3.15A7.1,7.1,0,0,0-24.46,724l-.1-.08a.81.81,0,0,0-.09-.1,6.84,6.84,0,0,0-2.47-1.59,6.9,6.9,0,0,0,2.93-1.73,7.1,7.1,0,0,0,1.64-2.62,7.1,7.1,0,0,0,1.54,2.3A.43.43,0,0,0-20.91,720.22Zm13.56,0,.08.1A7.52,7.52,0,0,0-4.86,722,7.31,7.31,0,0,0-7.4,723.6a7.14,7.14,0,0,0-1.74,2.85,7,7,0,0,0-1.63-2.58l-.1-.08-.08-.1a7,7,0,0,0-2.58-1.63,7.14,7.14,0,0,0,2.85-1.74A7.31,7.31,0,0,0-9,717.78a7.52,7.52,0,0,0,1.6,2.41Zm0,13.56a.43.43,0,0,0,.09.1,7.1,7.1,0,0,0,2.66,1.68,7,7,0,0,0-2.8,1.69,7,7,0,0,0-1.79,3.15,6.89,6.89,0,0,0-1.71-2.88.81.81,0,0,0-.1-.09l-.08-.1a7.1,7.1,0,0,0-2.89-1.71,7,7,0,0,0,3.15-1.79,7,7,0,0,0,1.69-2.8,7.22,7.22,0,0,0,1.68,2.67Zm13.56.06.09.09a7.1,7.1,0,0,0,2.1,1.46,7.16,7.16,0,0,0-4.11,4.27,6.93,6.93,0,0,0-1.49-2.23l-.11-.08-.08-.1a7,7,0,0,0-2.58-1.63,7.14,7.14,0,0,0,2.85-1.74,7.13,7.13,0,0,0,1.63-2.54,7.41,7.41,0,0,0,1.6,2.41A.81.81,0,0,1,6.26,733.89Zm-.14,13.37.09.1A7.15,7.15,0,0,0,8.87,749a7,7,0,0,0-2.79,1.69,7,7,0,0,0-1.8,3.16A6.84,6.84,0,0,0,2.58,751l-.1-.08-.09-.11a6.9,6.9,0,0,0-2.48-1.58,7,7,0,0,0,2.94-1.73,7,7,0,0,0,1.63-2.62A7,7,0,0,0,6,747.17Zm13.56,0,.09.1a7.3,7.3,0,0,0,2.41,1.6,7.09,7.09,0,0,0-4.28,4.48,7.14,7.14,0,0,0-1.63-2.58l-.1-.08a.48.48,0,0,0-.09-.11,7,7,0,0,0-2.57-1.62A7.14,7.14,0,0,0,18,744.81a7,7,0,0,0,1.6,2.41Zm.05,13.56a.81.81,0,0,1,.09.1,7.18,7.18,0,0,0,2.66,1.68,6.9,6.9,0,0,0-2.79,1.68,7,7,0,0,0-1.8,3.16,6.9,6.9,0,0,0-1.7-2.89l-.1-.08a.81.81,0,0,0-.09-.1,6.89,6.89,0,0,0-2.88-1.71A6.82,6.82,0,0,0,18,758.12a7.1,7.1,0,0,0,1.68,2.66Zm13.56,0a.81.81,0,0,1,.09.1,7,7,0,0,0,2.1,1.45,7.16,7.16,0,0,0-4.1,4.28,7.12,7.12,0,0,0-1.5-2.23l-.1-.08-.08-.11a7.07,7.07,0,0,0-2.58-1.62A7,7,0,0,0,30,761a7.19,7.19,0,0,0,1.64-2.54,7.21,7.21,0,0,0,1.6,2.4Zm-.13,13.38.09.09a7.18,7.18,0,0,0,2.66,1.68,7.07,7.07,0,0,0-2.8,1.69,7,7,0,0,0-1.79,3.15A6.89,6.89,0,0,0,29.61,778l-.1-.09-.08-.1A7.07,7.07,0,0,0,27,776.26a6.86,6.86,0,0,0,4.57-4.35,7.21,7.21,0,0,0,1.54,2.3Zm-484.26-512a7.19,7.19,0,0,0-2.37,1.58,7.37,7.37,0,0,0-1.67,2.61,7.31,7.31,0,0,0-1.56-2.35l-.1-.08a.43.43,0,0,0-.09-.1,7.19,7.19,0,0,0-2.34-1.57,7.1,7.1,0,0,0,2.61-1.67,7,7,0,0,0,1.58-2.36,7.37,7.37,0,0,0,1.52,2.23l.1.09.09.1A7.37,7.37,0,0,0-451.1,262.32Zm13.42,13.42a7.3,7.3,0,0,0-2.36,1.58,7.14,7.14,0,0,0-1.67,2.62,7.1,7.1,0,0,0-1.56-2.35l-.1-.09-.09-.1a7.42,7.42,0,0,0-2-1.42,7.14,7.14,0,0,0,2.49-1.62,7.18,7.18,0,0,0,1.53-2.26,7.61,7.61,0,0,0,1.39,1.94l.09.08.09.1A7.31,7.31,0,0,0-437.68,275.74Zm13.61,13.62a7.12,7.12,0,0,0-2.36,1.57,7.14,7.14,0,0,0-1.67,2.62,7.1,7.1,0,0,0-1.56-2.35l-.1-.09-.09-.09a7,7,0,0,0-2.35-1.57,7.14,7.14,0,0,0,2.62-1.67,7.3,7.3,0,0,0,1.58-2.36,7.19,7.19,0,0,0,1.52,2.23l.1.09.08.09A7.47,7.47,0,0,0-424.07,289.36Zm13.43,13.42a7.2,7.2,0,0,0-2.36,1.58,7.1,7.1,0,0,0-1.67,2.61,7,7,0,0,0-1.57-2.34l-.1-.09-.08-.1a7,7,0,0,0-2-1.42,7,7,0,0,0,2.49-1.63,7.31,7.31,0,0,0,1.53-2.25,7.13,7.13,0,0,0,1.38,1.93l.1.09.09.1A7.37,7.37,0,0,0-410.64,302.78ZM-397,316.39a7.3,7.3,0,0,0-2.36,1.58,7.18,7.18,0,0,0-1.67,2.61,7,7,0,0,0-1.57-2.34l-.09-.09-.09-.1a7.31,7.31,0,0,0-2.35-1.56,7.35,7.35,0,0,0,2.62-1.67,7.31,7.31,0,0,0,1.57-2.37,7.22,7.22,0,0,0,1.53,2.23.76.76,0,0,0,.09.09l.09.1A7.19,7.19,0,0,0-397,316.39Zm13.43,13.43A7.19,7.19,0,0,0-386,331.4a7.23,7.23,0,0,0-1.67,2.61,7.31,7.31,0,0,0-1.56-2.35l-.1-.08-.09-.1a7.11,7.11,0,0,0-2-1.42,7.51,7.51,0,0,0,2.49-1.63,7.35,7.35,0,0,0,1.53-2.26,7.17,7.17,0,0,0,1.38,1.94l.1.09.09.1A7.37,7.37,0,0,0-383.6,329.82ZM-370,343.43a7.19,7.19,0,0,0-2.37,1.58,7.37,7.37,0,0,0-1.67,2.61,7.16,7.16,0,0,0-1.56-2.34.81.81,0,0,0-.1-.09.43.43,0,0,0-.09-.1,7.16,7.16,0,0,0-2.34-1.56,7.37,7.37,0,0,0,2.61-1.67,7.19,7.19,0,0,0,1.58-2.37,7.37,7.37,0,0,0,1.52,2.23l.1.09.09.1A7.37,7.37,0,0,0-370,343.43Zm13.42,13.42a7.3,7.3,0,0,0-2.36,1.58,7.14,7.14,0,0,0-1.67,2.62,7.1,7.1,0,0,0-1.56-2.35l-.1-.09-.09-.1a7.42,7.42,0,0,0-2-1.42,7.14,7.14,0,0,0,2.49-1.62,7.18,7.18,0,0,0,1.53-2.26,7.44,7.44,0,0,0,1.39,1.94l.1.09.08.09A7.13,7.13,0,0,0-356.57,356.85ZM-343,370.47a7.27,7.27,0,0,0-2.36,1.57,7.35,7.35,0,0,0-1.67,2.62,7.2,7.2,0,0,0-1.56-2.35l-.1-.09-.09-.09a7,7,0,0,0-2.35-1.57,7.14,7.14,0,0,0,2.62-1.67,7.3,7.3,0,0,0,1.58-2.36,7.19,7.19,0,0,0,1.52,2.23l.1.09a.76.76,0,0,0,.09.09A7.3,7.3,0,0,0-343,370.47Zm13.43,13.42a7.2,7.2,0,0,0-2.36,1.58,7.1,7.1,0,0,0-1.67,2.61,7,7,0,0,0-1.57-2.34l-.09-.09a.81.81,0,0,1-.09-.1,7.21,7.21,0,0,0-2-1.42,7,7,0,0,0,2.49-1.63,7,7,0,0,0,1.53-2.25,7.35,7.35,0,0,0,1.38,1.93l.1.09.09.1A7.37,7.37,0,0,0-329.53,383.89Zm13.61,13.61a7.3,7.3,0,0,0-2.36,1.58,7.14,7.14,0,0,0-1.67,2.62,7,7,0,0,0-1.57-2.35l-.09-.09-.09-.1A7.1,7.1,0,0,0-324,397.6a7.35,7.35,0,0,0,2.62-1.67,7.27,7.27,0,0,0,1.57-2.36,7.47,7.47,0,0,0,1.53,2.23l.09.08.09.1A7.19,7.19,0,0,0-315.92,397.5Zm13.43,13.43a7.19,7.19,0,0,0-2.37,1.58,7.37,7.37,0,0,0-1.67,2.61,7.31,7.31,0,0,0-1.56-2.35l-.1-.08-.09-.1a7,7,0,0,0-2-1.42,7.41,7.41,0,0,0,2.49-1.63,7.35,7.35,0,0,0,1.53-2.26,7.17,7.17,0,0,0,1.38,1.94l.1.09.09.1A7.37,7.37,0,0,0-302.49,410.93Zm13.61,13.61a7.19,7.19,0,0,0-2.37,1.58,7.37,7.37,0,0,0-1.67,2.61,7.16,7.16,0,0,0-1.56-2.34.43.43,0,0,0-.1-.09l-.08-.1a7.31,7.31,0,0,0-2.35-1.56A7.37,7.37,0,0,0-294.4,423a7.19,7.19,0,0,0,1.58-2.37,7.37,7.37,0,0,0,1.52,2.23l.1.09.09.1A7.37,7.37,0,0,0-288.88,424.54ZM-275.46,438a7.12,7.12,0,0,0-2.36,1.57,7.14,7.14,0,0,0-1.67,2.62,7.1,7.1,0,0,0-1.56-2.35l-.1-.09-.09-.1a7.42,7.42,0,0,0-2-1.42,7.27,7.27,0,0,0,2.5-1.62,7.32,7.32,0,0,0,1.52-2.26,7.44,7.44,0,0,0,1.39,1.94l.1.09.08.09A7.47,7.47,0,0,0-275.46,438Zm13.61,13.61a7.38,7.38,0,0,0-2.36,1.57,7.35,7.35,0,0,0-1.67,2.62,7.31,7.31,0,0,0-1.56-2.35l-.1-.09-.09-.09a7,7,0,0,0-2.34-1.57,7.18,7.18,0,0,0,2.61-1.67,7.3,7.3,0,0,0,1.58-2.36,7.19,7.19,0,0,0,1.52,2.23l.1.09.09.1A7.45,7.45,0,0,0-261.85,451.58ZM-248.42,465a7.2,7.2,0,0,0-2.36,1.58,7.18,7.18,0,0,0-1.67,2.61,7,7,0,0,0-1.57-2.34l-.09-.09a.81.81,0,0,1-.09-.1,7.21,7.21,0,0,0-2-1.42,7,7,0,0,0,2.49-1.63,7,7,0,0,0,1.53-2.25,7.35,7.35,0,0,0,1.38,1.93l.1.09.09.1A7.37,7.37,0,0,0-248.42,465Zm13.61,13.61a7.3,7.3,0,0,0-2.36,1.58,7.14,7.14,0,0,0-1.67,2.62,7.1,7.1,0,0,0-1.56-2.35l-.1-.09-.09-.1a7.1,7.1,0,0,0-2.35-1.56,7.14,7.14,0,0,0,2.62-1.67,7.12,7.12,0,0,0,1.57-2.36,7.47,7.47,0,0,0,1.53,2.23l.09.08.09.1A7.19,7.19,0,0,0-234.81,478.61ZM-221.38,492a7.19,7.19,0,0,0-2.37,1.58,7.37,7.37,0,0,0-1.67,2.61,7.31,7.31,0,0,0-1.56-2.35l-.1-.08a.43.43,0,0,0-.09-.1,7,7,0,0,0-2-1.42,7.41,7.41,0,0,0,2.49-1.63,7.43,7.43,0,0,0,1.53-2.25,7.29,7.29,0,0,0,1.38,1.93l.1.09.09.1A7.37,7.37,0,0,0-221.38,492Zm13.61,13.61a7,7,0,0,0-2.36,1.58,7.1,7.1,0,0,0-1.67,2.61,7,7,0,0,0-1.57-2.34.43.43,0,0,0-.1-.09l-.08-.1a7.31,7.31,0,0,0-2.35-1.56,7.37,7.37,0,0,0,2.61-1.67,7.19,7.19,0,0,0,1.58-2.37,7.37,7.37,0,0,0,1.52,2.23l.1.09.09.1A7.37,7.37,0,0,0-207.77,505.65Zm13.42,13.43a7.12,7.12,0,0,0-2.36,1.57,7.14,7.14,0,0,0-1.67,2.62,7.1,7.1,0,0,0-1.56-2.35l-.1-.09-.09-.09a7,7,0,0,0-2-1.42,7.44,7.44,0,0,0,2.5-1.63,7.32,7.32,0,0,0,1.52-2.26,7.44,7.44,0,0,0,1.39,1.94l.1.09.08.09A7.47,7.47,0,0,0-194.35,519.08Zm13.62,13.61a7.31,7.31,0,0,0-2.37,1.57,7.35,7.35,0,0,0-1.67,2.62,7.31,7.31,0,0,0-1.56-2.35.81.81,0,0,1-.1-.09l-.09-.09a7,7,0,0,0-2.34-1.57,7.1,7.1,0,0,0,2.61-1.67,7.2,7.2,0,0,0,1.58-2.36,7.37,7.37,0,0,0,1.52,2.23l.1.09.09.1A7.37,7.37,0,0,0-180.73,532.69Zm13.42,13.42a7.3,7.3,0,0,0-2.36,1.58,7.18,7.18,0,0,0-1.67,2.61,7,7,0,0,0-1.57-2.34l-.09-.09-.09-.1a7.21,7.21,0,0,0-2-1.42,7.14,7.14,0,0,0,2.49-1.62,7.18,7.18,0,0,0,1.53-2.26,7.17,7.17,0,0,0,1.39,1.93.76.76,0,0,0,.09.09l.09.1A7.19,7.19,0,0,0-167.31,546.11Zm13.61,13.61a7.3,7.3,0,0,0-2.36,1.58,7.14,7.14,0,0,0-1.67,2.62,7.1,7.1,0,0,0-1.56-2.35l-.1-.09-.09-.1a7.1,7.1,0,0,0-2.35-1.56,7.14,7.14,0,0,0,2.62-1.67,7.3,7.3,0,0,0,1.58-2.36,7.25,7.25,0,0,0,1.52,2.23l.09.08.09.1A7.31,7.31,0,0,0-153.7,559.72Zm13.43,13.43a7.19,7.19,0,0,0-2.37,1.58,7.37,7.37,0,0,0-1.67,2.61,7.16,7.16,0,0,0-1.56-2.34.43.43,0,0,0-.1-.09.43.43,0,0,0-.09-.1,7,7,0,0,0-2-1.42,7.26,7.26,0,0,0,2.49-1.63,7.43,7.43,0,0,0,1.53-2.25,7.29,7.29,0,0,0,1.38,1.93l.1.09.09.1A7.37,7.37,0,0,0-140.27,573.15Zm13.61,13.61a7.2,7.2,0,0,0-2.36,1.58,7.1,7.1,0,0,0-1.67,2.61,7,7,0,0,0-1.57-2.34l-.1-.09-.08-.1a7.31,7.31,0,0,0-2.35-1.56,7.37,7.37,0,0,0,2.61-1.67,7.19,7.19,0,0,0,1.58-2.37,7.37,7.37,0,0,0,1.52,2.23l.1.09.09.1A7.37,7.37,0,0,0-126.66,586.76Zm13.42,13.43a7.27,7.27,0,0,0-2.36,1.57,7.35,7.35,0,0,0-1.67,2.62,7.31,7.31,0,0,0-1.56-2.35l-.1-.09-.09-.09a7,7,0,0,0-2-1.42,7.44,7.44,0,0,0,2.5-1.63,7.32,7.32,0,0,0,1.52-2.26,7.44,7.44,0,0,0,1.39,1.94l.1.09.09.09A7.3,7.3,0,0,0-113.24,600.19Zm13.62,13.61a7.19,7.19,0,0,0-2.37,1.58,7.37,7.37,0,0,0-1.67,2.61,7.31,7.31,0,0,0-1.56-2.35l-.1-.08-.09-.1a7,7,0,0,0-2.34-1.57,7.1,7.1,0,0,0,2.61-1.67,7.2,7.2,0,0,0,1.58-2.36,7.37,7.37,0,0,0,1.52,2.23l.1.09.09.1A7.37,7.37,0,0,0-99.62,613.8Zm13.42,13.42a7.3,7.3,0,0,0-2.36,1.58,7.14,7.14,0,0,0-1.67,2.62,7,7,0,0,0-1.57-2.35l-.09-.09-.09-.1a7.21,7.21,0,0,0-2-1.42,7.14,7.14,0,0,0,2.49-1.62A7.18,7.18,0,0,0-90,623.58a7.37,7.37,0,0,0,1.39,1.94l.09.08.09.1A7.19,7.19,0,0,0-86.2,627.22Zm13.61,13.61a7.3,7.3,0,0,0-2.36,1.58A7.14,7.14,0,0,0-76.62,645a7.1,7.1,0,0,0-1.56-2.35l-.1-.09-.09-.1a7.1,7.1,0,0,0-2.35-1.56,7.14,7.14,0,0,0,2.62-1.67,7.3,7.3,0,0,0,1.58-2.36A7.31,7.31,0,0,0-75,639.13l.1.09.08.09A7.25,7.25,0,0,0-72.59,640.83Zm13.43,13.43a7.19,7.19,0,0,0-2.37,1.58,7.37,7.37,0,0,0-1.67,2.61,7.16,7.16,0,0,0-1.56-2.34.43.43,0,0,0-.1-.09l-.08-.1a7.15,7.15,0,0,0-2-1.42,7,7,0,0,0,2.49-1.63A7.31,7.31,0,0,0-63,650.62a7.29,7.29,0,0,0,1.38,1.93l.1.09.09.1A7.37,7.37,0,0,0-59.16,654.26Zm13.61,13.61a7.2,7.2,0,0,0-2.36,1.58,7.1,7.1,0,0,0-1.67,2.61,7,7,0,0,0-1.57-2.34l-.09-.09a.81.81,0,0,1-.09-.1A7.31,7.31,0,0,0-53.68,668a7.35,7.35,0,0,0,2.62-1.67,7.31,7.31,0,0,0,1.57-2.37A7.37,7.37,0,0,0-48,666.16l.1.09.09.1A7.37,7.37,0,0,0-45.55,667.87Zm13.42,13.43a7.38,7.38,0,0,0-2.36,1.57,7.35,7.35,0,0,0-1.67,2.62,7.31,7.31,0,0,0-1.56-2.35.81.81,0,0,1-.1-.09l-.09-.09a7,7,0,0,0-2-1.42,7.44,7.44,0,0,0,2.5-1.63,7.14,7.14,0,0,0,1.52-2.26,7.44,7.44,0,0,0,1.39,1.94l.1.09.09.1A7.45,7.45,0,0,0-32.13,681.3Zm13.62,13.61a7.19,7.19,0,0,0-2.37,1.58,7.37,7.37,0,0,0-1.67,2.61,7.31,7.31,0,0,0-1.56-2.35l-.1-.08a.43.43,0,0,0-.09-.1A7,7,0,0,0-26.64,695,7.1,7.1,0,0,0-24,693.33,7.2,7.2,0,0,0-22.45,691a7.37,7.37,0,0,0,1.52,2.23l.1.09.09.1A7.37,7.37,0,0,0-18.51,694.91Zm13.42,13.42a7.3,7.3,0,0,0-2.36,1.58,7.14,7.14,0,0,0-1.67,2.62,7.1,7.1,0,0,0-1.56-2.35l-.1-.09-.09-.1a7.42,7.42,0,0,0-2-1.42A7.14,7.14,0,0,0-10.42,707a7.18,7.18,0,0,0,1.53-2.26,7.37,7.37,0,0,0,1.39,1.94l.09.08.09.1A7.19,7.19,0,0,0-5.09,708.33ZM8.52,722a7.19,7.19,0,0,0-4,4.19,7.1,7.1,0,0,0-1.56-2.35l-.1-.09-.09-.1A7.1,7.1,0,0,0,.39,722,7.14,7.14,0,0,0,3,720.37,7.3,7.3,0,0,0,4.59,718a7.19,7.19,0,0,0,1.52,2.23l.1.09.08.09A7.47,7.47,0,0,0,8.52,722ZM22,735.37A7.2,7.2,0,0,0,19.59,737a7.1,7.1,0,0,0-1.67,2.61,7,7,0,0,0-1.57-2.34l-.1-.09-.08-.1a7.15,7.15,0,0,0-2-1.42A7,7,0,0,0,16.62,734a7.31,7.31,0,0,0,1.53-2.25,7.29,7.29,0,0,0,1.38,1.93l.1.09.09.1A7.37,7.37,0,0,0,22,735.37ZM35.56,749a7.3,7.3,0,0,0-2.36,1.58,7.18,7.18,0,0,0-1.67,2.61A7,7,0,0,0,30,750.83l-.09-.09-.09-.1a7.31,7.31,0,0,0-2.35-1.56,7.17,7.17,0,0,0,4.19-4,7.37,7.37,0,0,0,1.52,2.23l.1.09.09.1A7.19,7.19,0,0,0,35.56,749ZM49,762.41a7.17,7.17,0,0,0-4,4.19,7.31,7.31,0,0,0-1.56-2.35.81.81,0,0,1-.1-.09l-.09-.09a7.11,7.11,0,0,0-2-1.42A7.51,7.51,0,0,0,43.66,761a7.14,7.14,0,0,0,1.52-2.26,7.44,7.44,0,0,0,1.39,1.94l.1.09.09.1A7.37,7.37,0,0,0,49,762.41Z"/></g></g></g></g><rect class="cls-1" x="-1172.47" y="798.35" width="240.94" height="269.29" transform="translate(-2104 1866) rotate(-180)"/><path class="cls-8" d="M164.22,80Q193.11,56.36,222,32.71c1.24-1,2.42-2.08,3.67-3.08,8.29-6.64,10.54-6.8,18.68-.14q74.53,61,149,122.07c10.47,8.6,20.93,17.2,31.24,26,2.52,2.15,4.4,5.06,7,8.14-7.9,7.26-15.37,14.36-23.17,21.07-1.22,1.05-4.45,1.19-5.89.32a124.29,124.29,0,0,1-15-10.53c-4.84-4-9.17-8.57-14.92-14v8.11c0,33.71-.14,67.42.13,101.13.05,5.88-1.78,7.24-7.42,7.22-64.83-.19-129.65-.06-194.48-.24-5.48,0-7.89,1.23-7.91,7.1-.05,15.53-.67,31.06-.86,46.59-.18,13.76-.14,27.53-.07,41.29a30.24,30.24,0,0,0,1,7.62c1.59,5.89,5,11.36,11.07,12,6.48.63,12.13-3.49,14.56-9.6,2.17-5.43,3.15-11.45,3.9-17.31,3.69-28.83,17.56-49.76,45.38-60.57,10.78-4.19,21.28-9,33.13-9.13,35.41-.45,66.07,22.6,76.08,58.4,2.62,9.37,2.84,19.57,3.06,29.42.38,16.73-.31,33.47-.09,50.21,0,3.09,1.39,7.48,3.66,9,7,4.68,5.79,11,5.1,18.32-26.77,2.86-53.57.67-80.66,1.51-.51-7.47-3.4-14.43,4.48-19.79,2.19-1.49,3.2-6,3.25-9.15.28-18.34.12-36.7.08-55a18.46,18.46,0,0,0-.44-4.13c-2-8.81-8.32-15.15-14.81-15s-12.75,6.69-14.31,15.48q-2.49,14.07-4.34,28.25A40.47,40.47,0,0,1,240.57,448c-18.21,18.27-39.34,29.75-66.24,26.37-9.43-1.18-19.21-1.34-28.18-4.08-25-7.65-37.3-26.51-43.41-51-4.59-18.43-5.16-37-5.07-55.72q.33-70.31.37-140.6c0-10.17-.17-20.33-.36-30.5-.05-2.36-.49-4.72-.87-8.1-8.9,7.45-17.46,14.17-25.47,21.49-4.14,3.78-6.84,3.75-10.83-.13-7-6.8-14.52-13-22.6-20.18,6.12-5.76,11.74-11.58,17.9-16.77,20-16.82,40.21-33.32,60.08-50.25,2.15-1.83,3.58-5.66,3.63-8.59.32-18.74.29-37.5.07-56.24,0-4.13,1.52-6,5.27-6.14,10.94-.47,21.89-.75,32.84-1.18,3.93-.16,4,2.6,4,5.2.07,9.33,0,18.66,0,28Z"/><rect class="cls-9" x="163" y="167.29" width="76" height="106"/></svg>