<svg id="Capa_1" data-name="Capa 1" xmlns="http://www.w3.org/2000/svg" viewBox="0 0 500 500"><defs><style>.cls-1{fill:#bcbcbc;}</style></defs><title>iconofamilia</title><path class="cls-1" d="M344.38,455.43c-2.52-22.47-6-44.54-18.3-64.2,5.66-4.19,11.25-8.13,16.62-12.35,24.93-19.61,21.67-44.55,10.41-61.44-6.25-9.38-15.12-15.3-25.84-18.7-1.64-.52-3.79-2.26-4.09-3.76-4.95-24.64-20.55-39.86-42.89-49.29-1-.42-2-.8-3-1.26-.3-.15-.49-.51-.94-1,9.23-11,20.32-19.37,34.93-21.71a20,20,0,0,1,10.78,1.73c26.58,12.13,53,12.14,79.61.1A21.67,21.67,0,0,1,413,221.66c12.65,1.77,24.22,6.69,35.29,13.1,17.2,10,25.55,25.85,29.22,44.26,5.58,28,11.1,56,14.77,84.22,3.74,28.82,5.23,57.94,7.67,86.92.14,1.61,0,3.23,0,5.27Z"/><path class="cls-1" d="M255.49,239.42c-23.15-1.61-44,4.21-62.19,18.92C182,267.46,174.71,279,172.1,293.22c-.71,3.88-2.41,5.19-5.84,6.25-23.82,7.4-37.65,31.57-31.7,55.46,2.76,11.12,10.66,18.68,19.14,25.59,4.6,3.74,9.61,7,14.68,10.61-12.32,19.69-16,41.7-18.35,64.36H0c.36-5.86.52-11.73,1.1-17.56,5.6-55.46,14.58-110.29,31.46-163.57,2.66-8.41,6.29-16.52,9.65-24.7,5.75-14,15.82-23.59,30.22-28.35,7-2.31,14.14-4.34,21.3-6.15,7-1.76,13.26-.61,20.2,2.45C141,229.53,168.25,229,195,215.83c2-1,4.43-2,6.54-1.8,15.83,1.5,31,5.41,44.41,14.29,3.91,2.59,7,6.48,10.43,9.77Z"/><path class="cls-1" d="M272.6,213.87c1.17-13.78,2.67-26.33,3.2-38.92,1-22.75,2.69-45.58,1.66-68.27-1.74-38.4,24.09-60.56,52.27-68.49,27-7.6,51.8-4.28,72.15,16.38,5.82,5.91,10.39,13.43,14.2,20.9,12,23.47,25.94,45.59,43.84,64.91,8.11,8.76,17.84,16,27.21,24.29-4.59,2.85-9.88,6.6-15.57,9.58-20.7,10.86-42.27,19.48-65.25,24.3a15.6,15.6,0,0,0-5.57,3c-15.62,11.51-33,16.73-52.37,14.52a8.21,8.21,0,0,1-3.14-.78c-12.83-7.48-26.33-4.7-39.94-3.14C294.58,213.35,283.72,213.32,272.6,213.87Z"/><path class="cls-1" d="M165.22,22.25c35.56.48,68,25,76.13,57.92,3.27,13.25,1.86,26.48-2.09,39.09C233.87,136.44,228,153.59,220.57,170c-12.38,27.42-39.58,41.28-69.86,37.29-31.7-4.19-54.87-23.78-59.88-53.38-4.46-26.31-4.67-53.08,2.07-79.19C100.11,46.77,120.18,31.86,147,25,153,23.48,159.15,23.13,165.22,22.25Z"/><path class="cls-1" d="M307,313c3.42.22,6.29.34,9.14.59,18,1.57,31,18,27.76,35.62a18.74,18.74,0,0,1-4.68,9.47,192.17,192.17,0,0,1-19.67,16.77c2.91-18.68,6-36.82-14.29-49.05-4,18.3-6.87,36.46-23.8,47.51a57.18,57.18,0,0,1-37.12,9.45c-30.86-2.84-48.42-15.68-55-56.66-9.64,4.17-14.82,11.62-15.55,21.47-.68,9,.19,18.1.38,27.16-8.77-7-20.75-12.28-23.7-25.93-3.26-15.11,8-31.7,23.29-34.54,4.4-.81,8.89-1.1,13.75-1.68,0-1.58.06-3.16,0-4.74-1-18.68,7.58-32.21,22.92-42,24.76-15.74,57.51-13.88,80.09,4.4,10.8,8.74,16.25,20,16.52,33.86C307.07,307.26,307,309.77,307,313Z"/><path class="cls-1" d="M329,477.75H165.7c.85-10.52,1.42-20.74,2.54-30.91,1.64-14.79,4.73-29.24,11.93-42.5,4.06-7.48,9.27-13.9,17.46-17a8.34,8.34,0,0,1,6.36.42c28.94,17.11,57.75,17.13,86.7,0a8.24,8.24,0,0,1,6.34-.38c9.34,3.67,14.7,11.36,18.87,20,7.69,15.88,10.21,33,11.82,50.34C328.32,464.16,328.55,470.64,329,477.75Z"/></svg>