<svg id="Capa_1" data-name="Capa 1" xmlns="http://www.w3.org/2000/svg" viewBox="0 0 500 500"><defs><style>.cls-1{fill:#2a4395;stroke:#2a4494;stroke-miterlimit:10;stroke-width:11px;}</style></defs><title>iconoalquiler</title><path class="cls-1" d="M441.88,447.08c0,8.84-.17,17.24.06,25.62.14,5-1.66,7.3-6.84,7.06s-10.14-.05-15.22-.05H77.56c-11.15,0-11.16,0-11.18-11,0-7,0-14,0-21.46-2.58-.28-4.44-.62-6.31-.68-23.1-.72-40.69-17.94-40.72-40.95q-.22-172,0-344c0-22.8,18.08-40.7,41-40.73q192.28-.21,384.58,0a40.59,40.59,0,0,1,40.9,40.87q.24,172,0,344C485.81,428.9,469.16,444.63,441.88,447.08ZM252.58,28.26q-94.68,0-189.37,0c-22.88,0-37,13.92-37,36.7q-.12,168.66,0,337.31c0,23.06,14.42,37.36,37.5,37.37q188.52,0,377.05,0c24.21,0,38.34-14.1,38.34-38.23q0-167.39,0-334.78c0-24.75-13.42-38.33-37.9-38.35Q346.85,28.23,252.58,28.26ZM73.67,471.77H434.33V447.11H73.67Z"/><path class="cls-1" d="M253,67.53c58.87,0,117.75.15,176.62-.16,7.61,0,9.36,2.31,9.34,9.59q-.36,128.87,0,257.74c0,8.38-2.69,10.28-10.61,10.26q-175.78-.34-351.56.05c-8.89,0-10.67-2.88-10.65-11.11q.41-128,0-256.06c0-7.94,1.89-10.55,10.2-10.5C135.26,67.68,194.14,67.52,253,67.53ZM431.24,337.27V74.86H73.78V337.27Z"/><path class="cls-1" d="M379.57,388.38c-.09,15.21-11.45,26.43-26.81,26.48-14.72.05-27-12.17-26.91-26.75A26.86,26.86,0,0,1,353,361.71C368.3,361.79,379.66,373.22,379.57,388.38ZM353.1,407.74c11.22-.13,19.77-8.81,19.56-19.86a19.88,19.88,0,0,0-20.33-19.27,19.25,19.25,0,0,0-18.89,19.63C333.44,399.65,341.72,407.86,353.1,407.74Z"/><path class="cls-1" d="M414.24,414.77c-15.05-.37-26.67-12.43-26.21-27.19s12.55-26.16,27.63-25.88A26.63,26.63,0,0,1,441.84,389C441.44,403.84,429.34,415.15,414.24,414.77Zm.39-46.18c-10.79.15-20,9.65-19.58,20.21.44,11.1,9.27,19.22,20.61,18.94a19.76,19.76,0,0,0,19.22-19.55C434.88,377.66,425.36,368.44,414.63,368.59Z"/><path class="cls-1" d="M89.31,414.77a26.38,26.38,0,0,1-26-27.38c.52-14.77,12.68-26,27.77-25.71a26.72,26.72,0,0,1,26,27.48C116.68,403.86,104.43,415.13,89.31,414.77Zm.63-7c11,.12,20.16-8.65,20.23-19.39.06-10.58-9.34-19.84-20.06-19.76a20,20,0,0,0-19.68,19.19A19.39,19.39,0,0,0,89.94,407.75Z"/><path class="cls-1" d="M111.77,243.53c38.8.67,74.23,12.58,107.52,19.18,9.71-6.14,16.94-12.83,25.46-15.66,17.14-5.7,35.54,5.85,39.69,23.11a33.16,33.16,0,0,1-25.31,40.44c-16.88,3.74-35-7.65-38.28-24.9-1.07-5.71-3-7.73-8.6-9.07-32.44-7.81-65.59-13.05-96.6-26.16-1.38-.58-3.47-.17-5,.39-7.23,2.63-10,.71-9.54-7,3.81-71.44,50.89-127.31,120.61-143.1C303.3,82.27,388.2,139.69,401.49,222.4c1.11,6.92,1.7,13.94,2.4,20.93.39,3.94,1.17,8.28-4.94,8.6s-5.76-3.82-5.9-7.93c-1.34-38.14-15.67-70.87-43.52-96.66C308.76,109.57,260.6,98.07,208,115.89,155.17,133.77,123.8,172,113.74,227.15,112.79,232.36,112.46,237.67,111.77,243.53ZM227.7,280.37c1.16,13.47,10.91,23,23.53,23.83,11.58.79,23.36-7.94,26.32-19.5a26,26,0,0,0-13.92-29.56c-12.06-5.68-24.3-2-32.62,10.31,8.42,1.9,16.48,3.91,24.62,5.51,5.86,1.15,6.75,4.17,5.55,9.64-1.24,5.64-3.88,6.6-9,5.29C244.2,283.83,236.06,282.23,227.7,280.37Z"/></svg>