<svg id="Capa_1" data-name="Capa 1" xmlns="http://www.w3.org/2000/svg" xmlns:xlink="http://www.w3.org/1999/xlink" viewBox="0 0 500 500"><defs><style>.cls-1,.cls-2{fill:none;}.cls-1{stroke:#1d1d1b;stroke-miterlimit:10;}.cls-3{clip-path:url(#clip-path);}.cls-4{clip-path:url(#clip-path-2);}.cls-5{opacity:0.42;}.cls-6{clip-path:url(#clip-path-3);}.cls-7{fill:#ccc8c8;}.cls-8{fill:#2a4395;}</style><clipPath id="clip-path"><rect class="cls-1" x="-132.47" y="798.35" width="240.94" height="269.29" transform="translate(-24 1866) rotate(-180)"/></clipPath><clipPath id="clip-path-2"><rect class="cls-2" x="-132.47" y="911.74" width="240.94" height="113.39" transform="translate(-24 1936.87) rotate(-180)"/></clipPath><clipPath id="clip-path-3"><rect id="SVGID" class="cls-2" x="-142.95" y="742.45" width="750" height="500"/></clipPath></defs><title>iconocivil</title><g class="cls-3"><g class="cls-4"><g class="cls-5"><g class="cls-6"><path class="cls-7" d="M316.4,503.84l-.08-.1-.1-.09a3.67,3.67,0,0,1-1-1.79l4.54-4.54a3.8,3.8,0,0,1,1.79,1l.08.1.11.09a3.78,3.78,0,0,1-5.35,5.34Z"/><path class="cls-7" d="M329.91,490.33l-.08-.1-.11-.08a3.87,3.87,0,0,1-1-1.78l4.84-4.84a3.86,3.86,0,0,1,1.77,1,.81.81,0,0,1,.09.1l.1.08a4,4,0,0,1-5.61,5.61Z"/><path class="cls-7" d="M343.42,476.82l-.08-.1-.11-.08a4.2,4.2,0,0,1-1-1.76l5.14-5.15a4.22,4.22,0,0,1,1.76,1l.08.1.11.09a4.15,4.15,0,1,1-5.88,5.87Z"/><path class="cls-7" d="M356.93,463.32l-.09-.11-.1-.08a4.22,4.22,0,0,1-1-1.74l5.45-5.45a4.27,4.27,0,0,1,1.73,1.05l.09.1.1.08a4.35,4.35,0,0,1-6.14,6.15Z"/><path class="cls-7" d="M370.43,449.81a1,1,0,0,1-.08-.11l-.1-.08a4.5,4.5,0,0,1-1.06-1.72l5.75-5.75a4.5,4.5,0,0,1,1.72,1.06l.08.1.1.09a4.53,4.53,0,1,1-6.41,6.41Z"/><path class="cls-7" d="M383.94,436.3l-.08-.1-.1-.09a4.68,4.68,0,0,1-1.08-1.7l6.05-6.05a4.68,4.68,0,0,1,1.7,1.08l.09.1.1.08a4.72,4.72,0,0,1-6.68,6.68Z"/><path class="cls-7" d="M411.06,436.4l-.08-.1-.1-.08a4.91,4.91,0,0,1,6.94-7l.08.11.11.08a4.91,4.91,0,0,1-6.95,6.94Z"/><path class="cls-7" d="M397.45,422.79l-.08-.1-.11-.09a4.91,4.91,0,0,1-1.09-1.68l6.35-6.35a4.81,4.81,0,0,1,1.69,1.09l.08.1a.81.81,0,0,0,.1.09,4.91,4.91,0,0,1-6.94,6.94Z"/><path class="cls-7" d="M424.57,422.89l-.08-.1-.11-.08a5.1,5.1,0,0,1,7.21-7.21,1.28,1.28,0,0,0,.19.19,5.09,5.09,0,0,1-7.21,7.2Z"/><path class="cls-7" d="M411,409.28l-.08-.1-.11-.08a5.3,5.3,0,0,1-1.11-1.67l6.65-6.65a4.79,4.79,0,0,1,1.67,1.11.81.81,0,0,0,.09.1l.1.08a5.1,5.1,0,0,1-7.21,7.21Z"/><path class="cls-7" d="M424.47,395.78l-.09-.11-.1-.08a5.35,5.35,0,0,1-1.12-1.66l6.93-6.93a5.19,5.19,0,0,1,1.67,1.11l.08.11.1.08a5.29,5.29,0,0,1-7.47,7.48Z"/><path class="cls-7" d="M438.08,409.39l-.09-.11-.1-.08a5.29,5.29,0,0,1,7.48-7.48l.08.11.1.08a5.29,5.29,0,0,1-7.47,7.48Z"/><path class="cls-7" d="M451.59,395.88a.81.81,0,0,1-.09-.1l-.1-.09a5.47,5.47,0,0,1,7.74-7.74.81.81,0,0,0,.09.1l.1.09a5.47,5.47,0,0,1-7.74,7.74Z"/><path class="cls-7" d="M438,382.27a1,1,0,0,1-.08-.11l-.1-.08a5.35,5.35,0,0,1-1.12-1.66l7.2-7.2a5.35,5.35,0,0,1,1.66,1.12l.08.1.11.09a5.48,5.48,0,0,1-7.75,7.74Z"/><path class="cls-7" d="M465.1,382.37a1.28,1.28,0,0,0-.19-.19,5.66,5.66,0,0,1,8-8l.08.1.1.08a5.66,5.66,0,1,1-8,8Z"/><path class="cls-7" d="M451.48,368.76l-.08-.1a.81.81,0,0,0-.1-.09,5.52,5.52,0,0,1-1.13-1.65l7.48-7.48a5.65,5.65,0,0,1,1.66,1.12l.08.11.1.08a5.66,5.66,0,0,1-8,8Z"/><path class="cls-7" d="M424.62,436.45l-.08-.1-.1-.08a5,5,0,0,1,7.07-7.08,1.28,1.28,0,0,0,.19.19,5,5,0,0,1-7.08,7.07Z"/><path class="cls-7" d="M411,422.84l-.08-.1-.11-.08a5,5,0,0,1,7.08-7.08l.08.1.11.09a5,5,0,0,1-7.08,7.07Z"/><path class="cls-7" d="M438.13,423a1,1,0,0,1-.08-.11l-.11-.08a5.19,5.19,0,0,1,7.35-7.34l.08.1.1.08a5.19,5.19,0,0,1-7.34,7.35Z"/><path class="cls-7" d="M424.52,409.34l-.09-.11-.1-.08a5.19,5.19,0,0,1,7.34-7.34.81.81,0,0,1,.09.1l.1.08a5.19,5.19,0,0,1-7.34,7.35Z"/><path class="cls-7" d="M438,395.83l-.09-.11-.1-.08a5.38,5.38,0,0,1,7.61-7.61l.08.1.11.09a5.38,5.38,0,0,1-7.61,7.61Z"/><path class="cls-7" d="M451.64,409.44a1.28,1.28,0,0,0-.19-.19,5.38,5.38,0,0,1,7.61-7.61l.08.11.11.08a5.38,5.38,0,0,1-7.61,7.61Z"/><path class="cls-7" d="M451.45,382.22a.81.81,0,0,0-.1-.09,5.56,5.56,0,0,1,7.87-7.87.81.81,0,0,1,.09.1l.1.08a5.57,5.57,0,1,1-7.88,7.88Z"/><path class="cls-7" d="M465.06,395.83a.81.81,0,0,1-.1-.09,5.57,5.57,0,0,1,7.88-7.87l.08.1a.81.81,0,0,1,.1.09,5.56,5.56,0,0,1-7.87,7.87A.81.81,0,0,1,465.06,395.83Z"/><path class="cls-7" d="M478.57,382.32l-.1-.08a5.76,5.76,0,1,1,8.14-8.15l.08.11.11.08a5.76,5.76,0,1,1-8.15,8.14Z"/><path class="cls-7" d="M465,368.71a.81.81,0,0,1-.1-.09,5.76,5.76,0,0,1,8.14-8.14l.08.1a.81.81,0,0,0,.1.09,5.76,5.76,0,0,1-8.14,8.14Z"/><path class="cls-7" d="M348.94,498.15a.81.81,0,0,1,.09.1l.1.08a4,4,0,0,1-5.61,5.61l-.08-.1-.1-.08a4,4,0,0,1,5.6-5.61Z"/><path class="cls-7" d="M362.72,484.37l.08.1.11.09a4.15,4.15,0,1,1-5.88,5.87l-.08-.1-.11-.08a4.16,4.16,0,1,1,5.88-5.88Z"/><path class="cls-7" d="M376.49,470.6a.81.81,0,0,1,.09.1l.1.08a4.35,4.35,0,1,1-6.14,6.15l-.09-.11-.1-.08a4.34,4.34,0,0,1,6.14-6.14Z"/><path class="cls-7" d="M390.27,456.82a1,1,0,0,1,.08.11l.11.08a4.53,4.53,0,1,1-6.41,6.41.81.81,0,0,1-.09-.1l-.1-.09a4.53,4.53,0,1,1,6.41-6.41Z"/><path class="cls-7" d="M411,463.34l-.08-.11-.11-.08a4.72,4.72,0,1,1,6.68-6.68l.08.11.11.08a4.72,4.72,0,1,1-6.68,6.68Z"/><path class="cls-7" d="M404,443.05a.81.81,0,0,1,.09.1l.1.08a4.72,4.72,0,0,1-6.68,6.68l-.08-.1a.81.81,0,0,1-.1-.09,4.72,4.72,0,0,1,6.67-6.67Z"/><path class="cls-7" d="M424.49,449.83l-.09-.1a.81.81,0,0,0-.1-.09,4.91,4.91,0,1,1,6.94-6.94.81.81,0,0,1,.09.1l.1.08a4.91,4.91,0,1,1-6.94,6.95Z"/><path class="cls-7" d="M438.1,463.44l-.08-.1-.11-.09a4.91,4.91,0,1,1,6.95-6.94l.08.1a.81.81,0,0,1,.1.09,4.91,4.91,0,1,1-6.94,6.94Z"/><path class="cls-7" d="M451.61,449.93l-.09-.1a.81.81,0,0,1-.1-.09,5.09,5.09,0,1,1,7.21-7.2l.08.1.11.08a5.1,5.1,0,1,1-7.21,7.21Z"/><path class="cls-7" d="M438,436.32a1.28,1.28,0,0,0-.19-.19,5.1,5.1,0,1,1,7.21-7.21l.08.11.11.08a5.1,5.1,0,1,1-7.21,7.21Z"/><path class="cls-7" d="M465.11,436.42l-.08-.1-.1-.08a5.29,5.29,0,1,1,7.47-7.48.81.81,0,0,1,.09.1.81.81,0,0,0,.1.09,5.29,5.29,0,1,1-7.48,7.47Z"/><path class="cls-7" d="M451.5,422.81l-.08-.1-.1-.08a5.29,5.29,0,0,1,7.47-7.48l.09.1a.81.81,0,0,1,.1.09,5.29,5.29,0,1,1-7.48,7.47Z"/><path class="cls-7" d="M465,409.3l-.08-.1-.11-.08a5.48,5.48,0,0,1,7.75-7.74l.08.1.1.08A5.47,5.47,0,0,1,465,409.3Z"/><path class="cls-7" d="M478.62,422.92l-.08-.11-.1-.08a5.47,5.47,0,0,1,7.74-7.74l.08.1.1.08a5.48,5.48,0,0,1-7.74,7.75Z"/><path class="cls-7" d="M492.13,409.41a1,1,0,0,1-.08-.11l-.1-.08a5.66,5.66,0,0,1,8-8,.81.81,0,0,1,.09.1.81.81,0,0,0,.1.09,5.66,5.66,0,0,1-8,8Z"/><path class="cls-7" d="M478.52,395.8l-.08-.11-.11-.08a5.66,5.66,0,0,1,8-8l.09.1a.81.81,0,0,1,.1.09,5.66,5.66,0,0,1-8,8Z"/><path class="cls-7" d="M473.16,346.89l.11.09a5.85,5.85,0,1,1-8.28,8.27l-.08-.1a.81.81,0,0,1-.1-.09,5.64,5.64,0,0,1-1.14-1.64l7.76-7.76a5.71,5.71,0,0,1,1.65,1.13Z"/><path class="cls-7" d="M486.69,360.4a.81.81,0,0,0,.09.1.81.81,0,0,1,.1.09,5.85,5.85,0,1,1-8.28,8.27l-.08-.1-.1-.08a5.85,5.85,0,1,1,8.27-8.28Z"/><path class="cls-7" d="M500.47,346.63l.08.1.1.08a6,6,0,1,1-8.54,8.54l-.08-.1-.11-.08a6,6,0,0,1,8.55-8.54Z"/><path class="cls-7" d="M486.94,333.12l.1.08a6,6,0,0,1-8.54,8.54l-.08-.1-.11-.08a6.1,6.1,0,0,1-1.14-1.65l8-8a5.66,5.66,0,0,1,1.64,1.13Z"/><path class="cls-7" d="M500.71,319.34l.11.09a6.23,6.23,0,0,1-8.81,8.8l-.09-.1-.1-.08a6,6,0,0,1-1.14-1.64l8.31-8.32a6.32,6.32,0,0,1,1.64,1.15Z"/><path class="cls-7" d="M335.25,498.23l.09.1.1.08a3.87,3.87,0,0,1-5.48,5.48l-.08-.1a.81.81,0,0,1-.1-.09,3.87,3.87,0,0,1,5.47-5.47Z"/><path class="cls-7" d="M349,484.45l.08.11.1.08a4.06,4.06,0,1,1-5.74,5.74l-.08-.1-.11-.08a4.07,4.07,0,0,1,5.75-5.75Z"/><path class="cls-7" d="M362.64,498.07l.08.1.1.08a4.06,4.06,0,0,1-5.74,5.74l-.08-.1-.1-.08a4.06,4.06,0,0,1,5.74-5.74Z"/><path class="cls-7" d="M376.41,484.29l.09.1.1.09a4.25,4.25,0,1,1-6,6l-.08-.11-.11-.08a4.25,4.25,0,1,1,6-6Z"/><path class="cls-7" d="M362.8,470.68a.81.81,0,0,0,.09.1.81.81,0,0,1,.1.09,4.25,4.25,0,0,1-6,6l-.09-.11-.1-.08a4.25,4.25,0,0,1,6-6Z"/><path class="cls-7" d="M376.58,456.9l.08.11.1.08a4.44,4.44,0,1,1-6.27,6.28.48.48,0,0,1-.09-.11l-.1-.08a4.44,4.44,0,1,1,6.28-6.28Z"/><path class="cls-7" d="M390.19,470.52l.08.1.1.08A4.44,4.44,0,1,1,384.1,477l-.09-.1-.1-.09a4.44,4.44,0,1,1,6.28-6.27Z"/><path class="cls-7" d="M390.35,443.13l.08.1a.48.48,0,0,1,.11.09,4.63,4.63,0,1,1-6.55,6.54l-.08-.1-.1-.09a4.62,4.62,0,0,1,6.54-6.54Z"/><path class="cls-7" d="M404,456.74l.09.1.1.09a4.62,4.62,0,1,1-6.54,6.54,1.28,1.28,0,0,0-.19-.19,4.62,4.62,0,0,1,6.54-6.54Z"/><path class="cls-7" d="M404.13,429.36l.08.1.1.08a4.82,4.82,0,0,1-6.81,6.81l-.08-.1a.81.81,0,0,1-.1-.09,4.81,4.81,0,0,1,6.81-6.8Z"/><path class="cls-7" d="M417.74,443l.08.1.1.08a4.82,4.82,0,0,1-6.81,6.81l-.08-.1-.1-.08a4.82,4.82,0,0,1,6.81-6.81Z"/><path class="cls-7" d="M451.66,463.49a.81.81,0,0,0-.09-.1l-.1-.08a5,5,0,1,1,7.08-7.08l.08.1a.81.81,0,0,1,.1.09,5,5,0,1,1-7.07,7.07Z"/><path class="cls-7" d="M438.05,449.88l-.09-.1a.81.81,0,0,1-.1-.09,5,5,0,1,1,7.08-7.07l.08.1.1.08a5,5,0,1,1-7.07,7.08Z"/><path class="cls-7" d="M451.55,436.37l-.08-.1-.1-.08a5.19,5.19,0,1,1,7.34-7.35l.08.11.11.08a5.19,5.19,0,1,1-7.35,7.34Z"/><path class="cls-7" d="M465.17,450a.81.81,0,0,1-.09-.1l-.1-.08a5.19,5.19,0,1,1,7.34-7.34l.09.1.1.08a5.19,5.19,0,1,1-7.34,7.34Z"/><path class="cls-7" d="M465.06,422.86l-.08-.1-.1-.08a5.38,5.38,0,0,1,7.61-7.61l.08.1.1.08a5.38,5.38,0,0,1-7.61,7.61Z"/><path class="cls-7" d="M478.68,436.48l-.09-.11-.1-.08a5.38,5.38,0,0,1,7.61-7.61l.08.1a.81.81,0,0,1,.1.09,5.38,5.38,0,1,1-7.6,7.61Z"/><path class="cls-7" d="M478.49,409.25l-.1-.08a5.57,5.57,0,0,1,7.87-7.88l.08.11.11.08a5.57,5.57,0,0,1-7.88,7.88Z"/><path class="cls-7" d="M492.1,422.86l-.1-.08a5.56,5.56,0,0,1,7.87-7.87.81.81,0,0,0,.09.1l.1.08a5.57,5.57,0,0,1-7.88,7.88A1,1,0,0,1,492.1,422.86Z"/><path class="cls-7" d="M492,395.74l-.11-.08a5.76,5.76,0,0,1,8.14-8.14,1.28,1.28,0,0,0,.19.19,5.76,5.76,0,0,1-8.14,8.14A1,1,0,0,1,492,395.74Z"/><path class="cls-7" d="M486.86,346.81l.1.08a5.95,5.95,0,1,1-8.41,8.41l-.08-.1-.1-.08a5.94,5.94,0,1,1,8.4-8.41A.81.81,0,0,1,486.86,346.81Z"/><path class="cls-7" d="M500.47,360.42l.1.08a5.95,5.95,0,1,1-8.41,8.41l-.08-.1-.1-.08a5.95,5.95,0,1,1,8.41-8.41Z"/><path class="cls-7" d="M500.63,333l.1.08a6.13,6.13,0,0,1-8.67,8.67.81.81,0,0,0-.09-.1l-.1-.08a6.14,6.14,0,0,1,8.68-8.68A1,1,0,0,1,500.63,333Z"/><path class="cls-7" d="M376.15,497.8l.08.1.1.08a4.15,4.15,0,1,1-5.87,5.88,1.28,1.28,0,0,0-.19-.19,4.15,4.15,0,0,1,5.88-5.87Z"/><path class="cls-7" d="M403.53,497.63l.08.11.11.08a4.35,4.35,0,0,1-6.15,6.14l-.08-.1-.1-.08a4.35,4.35,0,0,1,6.14-6.15Z"/><path class="cls-7" d="M389.92,484l.08.11.11.08a4.35,4.35,0,0,1-6.15,6.14l-.08-.1-.1-.08a4.35,4.35,0,0,1,6.14-6.15Z"/><path class="cls-7" d="M403.69,470.25a.81.81,0,0,1,.09.1l.1.08a4.53,4.53,0,0,1-6.41,6.41l-.08-.1-.1-.08a4.53,4.53,0,0,1,6.4-6.41Z"/><path class="cls-7" d="M417.31,483.86l.08.1a.81.81,0,0,1,.1.09,4.53,4.53,0,0,1-6.41,6.41l-.08-.11-.1-.08a4.53,4.53,0,0,1,6.41-6.41Z"/><path class="cls-7" d="M431.08,470.08l.09.11.1.08a4.72,4.72,0,0,1-6.68,6.68,1,1,0,0,1-.08-.11l-.1-.08a4.72,4.72,0,1,1,6.67-6.68Z"/><path class="cls-7" d="M438,490.37a.81.81,0,0,1-.09-.1l-.1-.08a4.72,4.72,0,0,1,6.68-6.68l.08.1a.81.81,0,0,1,.1.09,4.72,4.72,0,0,1-6.67,6.67Z"/><path class="cls-7" d="M451.52,476.86l-.08-.1-.1-.08a4.91,4.91,0,0,1,6.94-6.94l.08.1.11.08a4.91,4.91,0,0,1-7,6.94Z"/><path class="cls-7" d="M465.14,490.48l-.09-.11-.1-.08a4.91,4.91,0,0,1,6.94-6.94l.09.1.1.08a4.91,4.91,0,1,1-6.94,7Z"/><path class="cls-7" d="M478.64,477l-.08-.1a.81.81,0,0,0-.1-.09,5.1,5.1,0,1,1,7.21-7.21l.08.1a.81.81,0,0,0,.1.09,5.1,5.1,0,0,1-7.21,7.21Z"/><path class="cls-7" d="M465,463.36l-.08-.11-.1-.08a5.1,5.1,0,0,1,7.21-7.21l.08.1.1.09a5.1,5.1,0,0,1-7.21,7.21Z"/><path class="cls-7" d="M492.15,463.46l-.08-.1a.81.81,0,0,1-.1-.09,5.28,5.28,0,0,1,7.47-7.47l.08.1a.48.48,0,0,1,.11.09,5.29,5.29,0,1,1-7.48,7.47Z"/><path class="cls-7" d="M478.54,449.85l-.08-.1-.11-.09a5.29,5.29,0,0,1,7.48-7.47l.08.1.11.08a5.29,5.29,0,0,1-7.48,7.48Z"/><path class="cls-7" d="M492.05,436.34a.81.81,0,0,0-.09-.1.81.81,0,0,1-.1-.09,5.47,5.47,0,1,1,7.74-7.74.48.48,0,0,1,.09.11l.1.08a5.47,5.47,0,1,1-7.74,7.74Z"/><path class="cls-7" d="M500.2,373.93l.1.08a5.85,5.85,0,0,1-8.27,8.28l-.09-.11-.1-.08a5.85,5.85,0,0,1,8.28-8.27Z"/><path class="cls-7" d="M389.84,497.72l.08.1.1.08a4.25,4.25,0,0,1-6,6l-.08-.1-.1-.08a4.25,4.25,0,0,1,6-6Z"/><path class="cls-7" d="M403.61,483.94l.09.1.1.09a4.44,4.44,0,0,1-6.28,6.27l-.08-.1-.1-.08a4.44,4.44,0,0,1,6.27-6.28Z"/><path class="cls-7" d="M417.22,497.55a.48.48,0,0,1,.09.11l.1.08a4.44,4.44,0,0,1-6.28,6.28l-.08-.11-.1-.08a4.44,4.44,0,0,1,6.27-6.28Z"/><path class="cls-7" d="M417.39,470.17l.08.1.1.08A4.63,4.63,0,0,1,411,476.9l-.08-.11-.11-.08a4.63,4.63,0,0,1,6.55-6.54Z"/><path class="cls-7" d="M431,483.78l.08.1.11.08a4.63,4.63,0,0,1-6.55,6.55,1,1,0,0,1-.08-.11l-.1-.08a4.62,4.62,0,0,1,6.54-6.54Z"/><path class="cls-7" d="M431.16,456.39l.09.1a.81.81,0,0,0,.1.09,4.82,4.82,0,1,1-6.81,6.81l-.08-.1-.11-.09a4.82,4.82,0,1,1,6.81-6.81Z"/><path class="cls-7" d="M444.77,470l.09.11.1.08a4.82,4.82,0,0,1-6.81,6.81l-.08-.1-.11-.09a4.82,4.82,0,0,1,6.81-6.81Z"/><path class="cls-7" d="M465.08,476.92l-.08-.11-.1-.08a5,5,0,0,1,7.07-7.08l.09.11.1.08a5,5,0,0,1-7.08,7.08Z"/><path class="cls-7" d="M478.7,490.53a.81.81,0,0,1-.09-.1.81.81,0,0,0-.1-.09,5,5,0,1,1,7.08-7.07l.08.1.1.08a5,5,0,1,1-7.07,7.08Z"/><path class="cls-7" d="M478.59,463.41l-.08-.1-.11-.09a5.19,5.19,0,0,1,7.35-7.34l.08.1a.81.81,0,0,1,.1.09,5.19,5.19,0,0,1-7.34,7.34Z"/><path class="cls-7" d="M492.2,477l-.08-.1a.81.81,0,0,1-.1-.09,5.19,5.19,0,1,1,7.34-7.34l.08.1.11.09A5.19,5.19,0,1,1,492.2,477Z"/><path class="cls-7" d="M492.1,449.9l-.08-.1-.11-.09a5.38,5.38,0,0,1,7.61-7.6l.09.1.1.08a5.38,5.38,0,0,1-7.61,7.61Z"/><path class="cls-7" d="M430.73,497.28l.09.11.1.08a4.53,4.53,0,1,1-6.41,6.41.81.81,0,0,0-.09-.1.81.81,0,0,1-.1-.09,4.53,4.53,0,0,1,6.41-6.41Z"/><path class="cls-7" d="M458.12,497.12l.08.1a.81.81,0,0,0,.1.09,4.72,4.72,0,0,1-6.67,6.67.81.81,0,0,0-.09-.1l-.1-.08a4.72,4.72,0,0,1,6.68-6.68Z"/><path class="cls-7" d="M478.56,503.9l-.08-.1-.1-.08a4.91,4.91,0,0,1,6.94-7l.08.1a.81.81,0,0,0,.1.09,4.91,4.91,0,0,1-6.94,6.94Z"/><path class="cls-7" d="M492.07,490.39l-.08-.1-.11-.08a5.1,5.1,0,0,1,7.21-7.21l.09.1.1.08a5.1,5.1,0,0,1-7.21,7.21Z"/><path class="cls-7" d="M444.42,497.2l.09.11.1.08a4.62,4.62,0,0,1-6.54,6.54l-.09-.1-.1-.08a4.63,4.63,0,0,1,6.54-6.55Z"/><path class="cls-7" d="M471.81,497l.08.1a.48.48,0,0,1,.11.09,4.82,4.82,0,0,1-6.81,6.81l-.09-.11-.1-.08a4.82,4.82,0,0,1,6.81-6.81Z"/><path class="cls-7" d="M458.2,483.43l.08.1.11.09a4.81,4.81,0,1,1-6.81,6.8.81.81,0,0,1-.09-.1l-.1-.08a4.82,4.82,0,0,1,6.81-6.81Z"/><path class="cls-7" d="M492.12,504l-.08-.1-.11-.08a5,5,0,0,1,7.08-7.08l.08.1.11.09a5,5,0,0,1-7.08,7.07Z"/></g></g></g></g><rect class="cls-1" x="-132.47" y="798.35" width="240.94" height="269.29" transform="translate(-24 1866) rotate(-180)"/><path class="cls-8" d="M194,334.83H296.24a67,67,0,0,1,24.7,4.22c23.69,9.29,38.77,26.36,43.8,51.25,4.6,22.8-1.4,43.21-17.26,60.42-10.85,11.78-24.4,18.65-40.16,21.11a69.75,69.75,0,0,1-10.61.75q-102.58.06-205.15,0c-16.8,0-31.85-5.18-44.76-16a68.78,68.78,0,0,1-14.17-89.7c10.76-16.84,26.11-27.27,45.84-30.89A76.16,76.16,0,0,1,92,334.89C126,334.79,160,334.83,194,334.83ZM90.73,426.58A22.92,22.92,0,1,0,67.9,403.64,23,23,0,0,0,90.73,426.58Zm46-23a22.92,22.92,0,0,0,45.83.28,22.92,22.92,0,1,0-45.83-.28Zm91.67,23a22.92,22.92,0,1,0-22.83-22.94A23,23,0,0,0,228.42,426.58Zm68.82,0a22.92,22.92,0,1,0-22.81-23A23,23,0,0,0,297.24,426.58Z"/><path class="cls-8" d="M136.63,197.15v-2.32c0-14.11,0-28.23,0-42.34,0-10.82,2.91-20.66,9.6-29.23a44.64,44.64,0,0,1,30.94-17.51,49.93,49.93,0,0,1,6-.34c13.88,0,27.76-.09,41.64,0,18,.12,31.73,8,41,23.45q24.21,40.37,48.27,80.82c1.9,3.18,3.82,6.36,5.68,9.57a4.08,4.08,0,0,1,.49,1.94c0,15.26.07,30.52,0,45.77-.05,10.14-8.37,19.82-18.37,21.52a36.57,36.57,0,0,1-5.63.49c-6.59.06-13.19,0-19.79,0h-2v22.8H113.79V289h-2.21c-7.51,0-15,.14-22.53-.19a22.53,22.53,0,0,1-20.7-18,29.74,29.74,0,0,1-.53-5.8q-.07-21.94,0-43.89c0-10.46,5.37-18.61,14.62-22.38a24.34,24.34,0,0,1,9.41-1.58h44.8ZM266.23,220c-.3-.61-.51-1.13-.8-1.61q-19.52-32.85-39-65.71a2.46,2.46,0,0,0-2.45-1.37q-19.78.06-39.57,0c-.56,0-1.12.05-1.75.08V220Z"/><path class="cls-8" d="M374,84.69l-68,67.33c-.61-1-1.14-1.83-1.65-2.68Q293.83,132,283.38,114.65c-1.76-2.9-1.85-2.85.58-5.31l52.3-52.82c1.89-1.91,3.71-3.91,5.66-5.77a3.89,3.89,0,0,0,1.29-3,34.43,34.43,0,0,1,37.83-34,34.6,34.6,0,0,1,30.29,27,30.2,30.2,0,0,1-1,16.56,3.07,3.07,0,0,0,.38,2.86q19.58,32.43,39.05,64.93a9.74,9.74,0,0,0,6.14,4.86c13.86,4.15,22.33,13.56,24.6,27.88,3,18.64-10.49,36.4-29.09,39a34.62,34.62,0,0,1-39.21-30.07,31.08,31.08,0,0,1,1.52-13.52,3,3,0,0,0-.16-2.17q-19.5-32.88-39.08-65.71A8.41,8.41,0,0,0,374,84.69Z"/><path class="cls-8" d="M343.22,311.91c2.38-3,4.49-5.68,6.63-8.34q12.18-15.21,24.39-30.42l38.68-48.21c2.47-3.07,4.95-6.14,7.35-9.27.73-.94,1.3-1.28,2.53-.71a54.5,54.5,0,0,0,25.83,5c3.06-.15,6.1-.76,9.3-1.17v46.72c0,22.44-15,40.94-36.95,45.51a37,37,0,0,1-7.49.81c-23,.07-46,0-69,.05Z"/></svg>