<svg id="Capa_1" data-name="Capa 1" xmlns="http://www.w3.org/2000/svg" viewBox="0 0 500 500"><defs><style>.cls-1{fill:#2a4494;}</style></defs><title>iconomateriales</title><path class="cls-1" d="M251.45,34.29c6.08-10.62,23.22-14.45,34.26-6.27A125.24,125.24,0,0,1,299,39.93c2.34,2.31,4.28,3,7.51,1.6,10.32-4.59,19.74-2.86,28.05,4.85q61.58,57.11,123.17,114.17c2.08,1.93,4.39,3.62,6.18,6-11.47-2.08-20.61,2.4-29.65,8.32-.77-4-.94-7.82-2.28-11.21-3.43-8.73-14.2-13.88-24.3-12.22a39.23,39.23,0,0,0-24.7,14.68Z"/><path class="cls-1" d="M375.64,188c-16.21-4-28.17,2.79-38.3,14.38L206.11,70.58c8.46-13.4,26-15.56,38.4-4.32,4.24,3.85,8.35,7.84,12.25,11.51l11-3.57c-5.14-11.07-20.89-15.6-19.67-30.5l1.52-1.3c8.47,8.78,16.82,17.67,25.43,26.31q49.8,50,99.82,99.72c3,3,3.68,5.47,2.28,9.37C376.12,180.78,376.18,184.16,375.64,188Z"/><path class="cls-1" d="M221.47,107.17c-5-9.09-19.33-13.43-17.89-29.12,5.77,5.49,11,10.3,16,15.32q30.7,30.57,61.29,61.25c17,17,34.09,34,50.91,51.21,1.23,1.26,1.18,4.53.68,6.61-2.09,8.66-2.18,16.86,4.67,23.54,2.4,2.35,5.58,3.91,8.5,5.91L334.4,252.68c-11.68-12.24-23.15-24.6-35-36.57q-41.27-41.74-82.81-83.19c-3.25-3.26-6.3-6.76-9.78-9.74-3.17-2.72-2.41-5.16.25-7C211.67,112.92,216.61,110.16,221.47,107.17Z"/><path class="cls-1" d="M328.82,270C315.24,255.7,302,241.7,288.61,227.75q-30.19-31.58-60.41-63.1c-7.42-7.75-14.87-15.48-22.19-23.33-3.57-3.84-4.58-8.53-3.76-15.08,17.66,17.86,34.49,35,51.41,52q24.27,24.41,48.67,48.67c9.61,9.59,19.24,19.16,28.76,28.84a4.25,4.25,0,0,1,.94,3.39C331.21,262.59,330,266,328.82,270Z"/><path class="cls-1" d="M382.21,258.15c0,15.15-18.07,30.14-33,27.38-11.59-2.15-17.32-12.17-13.33-23.28,5-13.81,21.58-23.36,34.16-20.18C376.38,243.66,383.25,251.75,382.21,258.15Zm-9.32,2.24c-.06-7-4.26-11.23-10.95-11.14-9.62.13-18.16,8.59-18,17.87.1,6.68,4.9,11,12.08,10.79C365.06,277.69,373,269.48,372.89,260.39Z"/><path class="cls-1" d="M356,236.61c-16.07-.06-23.84-12.09-17.86-25.35,4.89-10.83,13.76-17.49,25.78-18.52,15.73-1.33,24.55,11.29,17.65,25.6C376.14,229.62,366.65,236,356,236.61Zm18.44-25.13c0-6.82-4.13-11.18-10.85-11.37-9-.25-18.39,8.83-18.36,17.68,0,6.49,5,11,12.06,10.94A17.82,17.82,0,0,0,374.45,211.48Z"/><path class="cls-1" d="M398.31,251.54c-14.63,0-22.15-13-15.28-25.94,5.74-10.82,14.19-17.49,26.61-17.93,14-.5,21.88,10.78,17.06,23.94C422.62,242.76,410.11,251.55,398.31,251.54Zm10-37.27c-8.59,1.17-14,5-17.1,11.8-2.21,4.89-2.59,10,1.39,14.48s9.42,4.21,14.25,2.23a22.17,22.17,0,0,0,8.83-6.94c3.31-4.4,5.09-10,1.62-14.94C415.25,218,411.34,216.44,408.28,214.27Z"/><path class="cls-1" d="M399.15,200.88c-13,.09-20.07-8.66-17.22-21.45,2.95-13.23,18.64-24.21,32-22.43,11.82,1.58,17.64,12.76,12.94,24.83C422.72,192.54,410.68,200.8,399.15,200.88Zm9-36c-8.18-.09-16.52,6.91-17.87,15a11.25,11.25,0,0,0,10.6,13.43c8.57.49,17.08-6.44,18.39-14.94C420.5,170.07,416.27,165,408.11,164.87Z"/><path class="cls-1" d="M473.41,189.65c-.61,16.54-20.71,30.82-36.38,25.85-10-3.16-14-16.15-8-26.45,5.39-9.27,13.42-15.06,24.09-16.83C464.6,170.31,473.83,178.31,473.41,189.65Zm-9,1.43c-.11-6.93-4.31-11.11-11.15-11.1-9.63,0-18.45,8.7-18.14,17.86.22,6.46,5.51,11.17,12.28,10.94C456.33,208.48,464.57,199.91,464.43,191.08Z"/><path class="cls-1" d="M40,264.55c13.91-2,26.27-3.72,38.62-5.45,4.07-.57,8.24-.69,12.18-1.72,10-2.6,19-1,28.41,3.34,50,23.12,100.34,45.72,150.56,68.45,13.55,6.13,27.17,12.1,40.69,19.42q-16,2.27-32,4.53c-15.32,2.14-30.67,4.06-45.94,6.46A21.93,21.93,0,0,1,218,357.4Q144.3,318.84,70.44,280.56C60.74,275.52,51.08,270.4,40,264.55Z"/><path class="cls-1" d="M259.3,384.61v67.65c-7.93-4.66-15.26-8.92-22.55-13.27Q164.08,395.54,91.4,352c-9.1-5.45-18.2-10.93-27.21-16.53a4.92,4.92,0,0,1-2.27-3.25c-.18-9.31-.11-18.63-.11-29,9,4.78,17.16,9.08,25.29,13.45q59.07,31.76,118.13,63.54a2.66,2.66,0,0,1,.51.24c11.94,10.14,25.44,9.18,39.44,5.86C249.65,385.27,254.35,385.18,259.3,384.61Z"/><path class="cls-1" d="M322.74,452.81v15.85l-98.93,13.93V466.65c10.44-1.54,20.72-3.21,31-4.52,8.17-1,10.62-3.22,10.67-11.2q.21-31.92.21-63.83c0-7.8-2.13-9.34-9.9-8.25-9.58,1.33-19.19,2.41-29.22,3.65V366.73l96.78-13.66c0,5,.32,9.26-.2,13.45-.16,1.28-2.53,3-4.1,3.27-9,1.46-18.08,2.66-27.16,3.72-8.77,1-11.06,3.39-11.07,12q0,31.36-.12,62.74c0,8.24,2.07,9.83,10.07,8.66C301.28,455.4,311.8,454.21,322.74,452.81Z"/><path class="cls-1" d="M39.78,342.34c13.11-8,23-.66,33.29,5.57q64.11,38.65,128.42,77,23.25,13.94,46.5,27.86c1.36.81,2.56,1.89,4.34,3.22-8.43,1.34-16.09,2.79-23.81,3.64a12.14,12.14,0,0,1-7.22-1.88q-47.24-29.85-94.29-60-41-26.1-82.08-52.11C43.1,344.5,41.29,343.32,39.78,342.34Z"/><path class="cls-1" d="M29.57,266.28c7.94,4.09,15.36,7.88,22.75,11.72q56.28,29.21,112.56,58.44c17.52,9.11,35,18.2,52.46,27.5a6.63,6.63,0,0,1,2.8,4.56c.41,3.8.13,7.67.13,12.74-6.52-3.42-11.92-6.2-17.26-9.07q-75.33-40.5-150.62-81c-4.92-2.65-9.7-5.56-14.64-8.18C28.37,278,28.34,278,29.57,266.28Z"/><path class="cls-1" d="M217,478.52c-19.26-12.63-37.46-24.6-55.69-36.51q-35.06-22.92-70.17-45.78c-20-13-40.16-25.83-59.73-39.47-2.71-1.89-2.44-8.07-3.55-12.26l1.81-1c5.89,3.71,11.79,7.4,17.68,11.13q63.74,40.42,127.47,80.87c12.28,7.79,24.37,15.87,36.79,23.42,4.17,2.54,6.22,5.28,5.46,10.21C216.69,471.83,217,474.65,217,478.52Z"/><path class="cls-1" d="M310.2,448.15,287,451.36V436.15l23.41,10.73Z"/></svg>